/* XPM */
static char *f52d68879d794d838d3c8eaf6a28f3a0qrx1PahzxvBo6QQ4[] = {
/* columns rows colors chars-per-pixel */
"32 32 162 2 ",
"   c #000000",
".  c #000C00",
"X  c #040B0A",
"o  c #001500",
"O  c #011B01",
"+  c #06120F",
"@  c #091413",
"#  c #002500",
"$  c #002E00",
"%  c #003100",
"&  c #003C00",
"*  c #0E241E",
"=  c #112D24",
"-  c #004400",
";  c #004D00",
":  c #005500",
">  c #015B01",
",  c #006400",
"<  c #006D00",
"1  c #1D4A3C",
"2  c #1E4D40",
"3  c #235B4B",
"4  c #2D665D",
"5  c #2E7863",
"6  c #008400",
"7  c #008F00",
"8  c #009400",
"9  c #009D00",
"0  c #059709",
"q  c #198819",
"w  c #099F12",
"e  c #00AE00",
"r  c #00B400",
"t  c #11BF24",
"y  c #00CF00",
"u  c #00D000",
"i  c #00DB00",
"p  c #00EE00",
"a  c #00F100",
"s  c #00FF00",
"d  c #05FA0C",
"f  c #08FF0F",
"g  c #06F710",
"h  c #0AF614",
"j  c #08F912",
"k  c #0DF21D",
"l  c #10F717",
"z  c #1DFB1D",
"x  c #14FB16",
"c  c #0EEE24",
"v  c #11ED26",
"b  c #13EC2A",
"n  c #0FFB22",
"m  c #11F924",
"M  c #1AF524",
"N  c #16E733",
"B  c #1AE636",
"V  c #17EE31",
"C  c #1AE833",
"Z  c #1BE33B",
"A  c #1CEF3C",
"S  c #21FB20",
"D  c #27F92A",
"F  c #2EF82E",
"G  c #31FB2F",
"H  c #21E53E",
"J  c #33F43A",
"K  c #3CF53C",
"L  c #36886F",
"P  c #348770",
"I  c #1FDF45",
"U  c #21DF45",
"Y  c #24DC4C",
"T  c #26D557",
"R  c #29D756",
"E  c #27D951",
"W  c #28D854",
"Q  c #26D558",
"!  c #2BD45C",
"~  c #2DDA5E",
"^  c #1FE341",
"/  c #21E644",
"(  c #30EC41",
")  c #3AEE46",
"_  c #2DCC68",
"`  c #31CF67",
"'  c #32CE6B",
"]  c #2DD163",
"[  c #3DD46B",
"{  c #2EC671",
"}  c #33C873",
"|  c #3BCB74",
" . c #37CA79",
".. c #4EF04E",
"X. c #45F447",
"o. c #49EE52",
"O. c #43EB51",
"+. c #58F457",
"@. c #57FD55",
"#. c #5FFF5C",
"$. c #56F455",
"%. c #4FD17E",
"&. c #5EE472",
"*. c #65F164",
"=. c #3F9887",
"-. c #3FA184",
";. c #3CB592",
":. c #41A788",
">. c #43AE8F",
",. c #42BE8C",
"<. c #47BB93",
"1. c #48B39F",
"2. c #49BC9B",
"3. c #44B39C",
"4. c #47AEA5",
"5. c #48ADA6",
"6. c #4AACA9",
"7. c #53ADAF",
"8. c #51BBAD",
"9. c #5AB4AB",
"0. c #52ADB0",
"q. c #56B8B5",
"w. c #63B8AD",
"e. c #3CC381",
"r. c #5ACD8A",
"t. c #56D381",
"y. c #4BC29F",
"u. c #73CE9F",
"i. c #6BD293",
"p. c #78D19D",
"a. c #7ADC92",
"s. c #4BC4A1",
"d. c #4ECAA5",
"f. c #50C6A4",
"g. c #52D4AD",
"h. c #6DC0AB",
"j. c #73C3AD",
"k. c #8DEC8B",
"l. c #87E095",
"z. c #83CFA8",
"x. c #87D0AA",
"c. c #89C2BF",
"v. c #88CAB4",
"b. c #92D1B3",
"n. c #B1EAAB",
"m. c #AEF1A9",
"M. c #A6CEC7",
"N. c #AACDCC",
"B. c #A0D0C1",
"V. c #A8D3C4",
"C. c #B9CFD5",
"Z. c #B3CBD4",
"A. c #C4D5D7",
"S. c #C7D3DD",
"D. c #CFD5E1",
"F. c #EEDFEA",
"G. c #FCDEF6",
"H. c #FFDCFD",
"J. c #EEE1E9",
"K. c #EEE4E3",
"L. c #F0E0E9",
"P. c #FDE1F4",
/* pixels */
"                                                                ",
"                                                                ",
"                                                                ",
"                * -.3                                           ",
"                = y.5   X X X X X X X X X                       ",
"                X + 1 >.:.:.:.:.:.:.:.>.1                       ",
"                    1 g.d.d.s.2.2.d.d.g.3                       ",
"                      X X   2 s.P   X X                         ",
"                            1 f.L                               ",
"                        & s #.P.m.s 9                           ",
"                . - - & < s o.S.l.s r & - - #                   ",
"                % s a p a s H 9.| s s p a s 6                   ",
"            o $ > n M G D k I e.! s s s j m w % o               ",
"            > s m 6.c.P.S.4.] s s s s s ! 7.~ s <               ",
"            > s h ! t.N.x.Q Z s z *.O.Z E ! B s ,               ",
"            : s s s N 4.} s s s X.H.N.5.^ s s s ,               ",
"        . > q ..X.N Y ` Y s s s J C.p.] Y B k s 9 : &           ",
"        % s @.J.D.5.` s s s s s b 6.Q s Q 5.T s s s r           ",
"        $ s ( v.u.Z b s z k.&.T W U v s &.N.i.Q v s e           ",
"        $ s N ;.{ s s s K H.Z.4.| s s s k.G.N.6./ s e           ",
"        $ s ) V.b.] ^ s x +.) B U ` Z s F $.) Z h s e           ",
"        % s @.F.D.4.` s s s s s c 4.T s s s s s s s r           ",
"        . - q K J v U } %.n.a.{ r.A.z.} C s s s 7 - %           ",
"            : s s s B 1.h.L.M.;.j.K.B.3.U s s s ,               ",
"            > s s s d h B w.[ d l S x g R ,.Y s ,               ",
"            > s s s s s k 0.] s s s s s ! 0.~ s <               ",
"            . o ; s C <.' d d s s s Z <.U f 0 o .               ",
"                & s A 8. .s s s s s ^ 8./ s 8                   ",
"                        % s s s V q.4                           ",
"                        $ i y u t =.3                           ",
"                        . O O O O @ X                           ",
"                                                                "
};
