/* XPM */
static char *_4e77fbb509c47a2b21016c63be79231HI6JcSyxizfAeaTU[] = {
/* columns rows colors chars-per-pixel */
"64 64 210 2 ",
"   c #020202",
".  c #090807",
"X  c #06000E",
"o  c #0A050F",
"O  c #0C0B0B",
"+  c #080706",
"@  c #100F0E",
"#  c #11100F",
"$  c #070011",
"%  c #090015",
"&  c #0A0019",
"*  c #0E0A19",
"=  c #0D0916",
"-  c #110C15",
";  c #11071D",
":  c #110B1D",
">  c #151413",
",  c #181716",
"<  c #191817",
"1  c #15111C",
"2  c #1C1C1B",
"3  c #181818",
"4  c #201F1E",
"5  c #22211F",
"6  c #0E0023",
"7  c #0F0028",
"8  c #100025",
"9  c #140C21",
"0  c #11002A",
"q  c #130A28",
"w  c #1B0E2D",
"e  c #161124",
"r  c #1A1425",
"t  c #1D1924",
"y  c #161129",
"u  c #1C1529",
"i  c #1E1B2C",
"p  c #1D0E35",
"a  c #1E1132",
"s  c #1D1A32",
"d  c #211B24",
"f  c #231B2B",
"g  c #251B2D",
"h  c #28193B",
"j  c #242423",
"k  c #282725",
"l  c #2A2927",
"z  c #2A242D",
"x  c #2B2B29",
"c  c #26212D",
"v  c #312F2D",
"b  c #2F302D",
"n  c #33322F",
"m  c #242434",
"M  c #2B2435",
"N  c #2E2832",
"B  c #2B233B",
"V  c #2A2A3C",
"C  c #272838",
"Z  c #312935",
"A  c #352D3B",
"S  c #312635",
"D  c #3A343B",
"F  c #3D3C3C",
"G  c #373534",
"H  c #41353E",
"J  c #43413E",
"K  c #49403E",
"L  c #574B3D",
"P  c #372E45",
"I  c #2F3342",
"U  c #323243",
"Y  c #3C3342",
"T  c #36384B",
"R  c #343847",
"E  c #2B2844",
"W  c #443A44",
"Q  c #483E48",
"!  c #453B50",
"~  c #454442",
"^  c #4B434C",
"/  c #4D4B4A",
"(  c #4E4846",
")  c #524849",
"_  c #51504E",
"`  c #4B4351",
"'  c #47495A",
"]  c #544B55",
"[  c #524854",
"{  c #575353",
"}  c #595353",
"|  c #5D5955",
" . c #5D545B",
".. c #5C5B58",
"X. c #49535D",
"o. c #635448",
"O. c #625B5C",
"+. c #6B5E5F",
"@. c #635853",
"#. c #63615E",
"$. c #6A635F",
"%. c #4E5964",
"&. c #5E5563",
"*. c #51596A",
"=. c #655D65",
"-. c #675B64",
";. c #55626B",
":. c #5B6874",
">. c #6C6366",
",. c #6D646A",
"<. c #6F6D69",
"1. c #6B6A66",
"2. c #736B6E",
"3. c #756B65",
"4. c #74726E",
"5. c #7A756C",
"6. c #646E7A",
"7. c #746C71",
"8. c #796774",
"9. c #62727B",
"0. c #767471",
"q. c #7E7A75",
"w. c #7E7C7A",
"e. c #7B7371",
"r. c #89725E",
"t. c #88786C",
"y. c #837E7A",
"u. c #857A76",
"i. c #85827D",
"p. c #8A837A",
"a. c #98897C",
"s. c #6E7787",
"d. c #857C85",
"f. c #6E8089",
"g. c #76878D",
"h. c #748891",
"j. c #8D8682",
"k. c #8D8984",
"l. c #8B8587",
"z. c #928B85",
"x. c #938D8A",
"c. c #988F8C",
"v. c #9B948E",
"b. c #9A9287",
"n. c #978F92",
"m. c #969292",
"M. c #9A9593",
"N. c #9E979C",
"B. c #9E9997",
"V. c #A29689",
"C. c #AC9B8C",
"Z. c #A99683",
"A. c #B09F8A",
"S. c #A19B93",
"D. c #A49E9B",
"F. c #A89D93",
"G. c #ADA293",
"H. c #ACA49C",
"J. c #A5A19D",
"K. c #BBA995",
"L. c #B2A699",
"P. c #B7A899",
"I. c #AAA4A3",
"U. c #ADAAA5",
"Y. c #AAA5A7",
"T. c #B2ABA3",
"R. c #BAAEA4",
"E. c #B3ACAA",
"W. c #BCB2A6",
"Q. c #BEB5AC",
"!. c #B6B2AB",
"~. c #BBB7B3",
"^. c #BBB9B5",
"/. c #C4AC80",
"(. c #C0A999",
"). c #C6B5A6",
"_. c #C4B6A9",
"`. c #C9B7A9",
"'. c #C6BAAD",
"]. c #D3BEAF",
"[. c #C4BCB2",
"{. c #C2BDBB",
"}. c #CDBFB4",
"|. c #CCC1B6",
" X c #CCC4BC",
".X c #CEC9BE",
"XX c #C4C1BC",
"oX c #D3C6BC",
"OX c #D2C9BF",
"+X c #DACABB",
"@X c #D7C5B4",
"#X c #CEC9C2",
"$X c #CCC8C5",
"%X c #D3CCC3",
"&X c #DCCEC3",
"*X c #D2CECA",
"=X c #D6D1C7",
"-X c #D6D1CC",
";X c #DAD3CC",
":X c #D8D1C7",
">X c #DBD6D2",
",X c #DED9D3",
"<X c #E0D8CF",
"1X c #E2DCD6",
"2X c #E3DED9",
"3X c #E5E1DD",
"4X c #E9E4DF",
"5X c #E9E5E0",
"6X c #EEEAE5",
"7X c #F1EEE9",
/* pixels */
"& & & & & & & & & & & & & & & & & & & & & & & & & & & & & & & & & & & & & & & & & & & & & & & & & & & & & & & & & & & & & & & & ",
"& & & & & & & & & & % % % % & & & & & & & & & & & & & & & & & & & & & & & & & & & & & & & & & & & & & & & & & & & & & & & & & & ",
"& & & & & & & % % % % % % % % % % & & & & & & & & & & & & % % % & & & & & & & & % % % % % & & & & & & & & & & & & & & & & & & & ",
"& & & & & % % % % % % % % % % % % % % & & & & & & % % % % % % % % % % % % & & % % % % % % % % % & & & & & & & & & & & & & & & & ",
"& & & & % % % % % % % % % % % % % % % % % & & & % % % % % % % % % % % m r % % % % % % % % % % % % & & & & & & & & & & & & & & & ",
"& & & % % % % % % % % % % % % % % % % % 6 0 0 8 % % % % % % % % % & 6 6 % % % % % % % % % % % % % % & & & % $ & & & & & & & & & ",
"% $ % % % % % % % % % % % % % % $ % % % 7 0 0 0 & % % % % % % % % 0 0 0 6 % % % % % % % % % % % % % % & % V :.& & & & & & & & & ",
"; :.e % % % % % $ $ % % % $ % $ U % % % 7 0 0 0 & % % % % % % % & 0 8 0 8 % % % % % % % % % % % % % % % % U f.& & & & & & & & & ",
"e h.i % % % % $ % & & & & & $ % $ % % % % 8 7 & $ % % % % % % % % 0 0 8 & % % % % % $ $ $ % % % % % % % % % % 7 0 0 & & & & & & ",
"% $ % % % % $ $ & & & & & & & $ $ $ % % % % % i R $ % % % % % % % & & & % % % % $ $ $ X $ $ $ % % % % % % % 6 7 8 0 & & & & % % ",
"% % % % % $ $ % & & & y & & & $ $ $ % % & i X %.g.% % % % % % % % % % % % % % % $ $ r C $ $ % $ % % % % % % 6 7 7 0 & & & % % % ",
"% % % % $ $ $ % & & s T & & & $ $ $ $ % % % % $ & % % % % % % % % % % % % % % % $ % ;.;.m X $ $ % % % % % % % 6 6 & % % % % % % ",
"% % % $ $ $ $ % & & & & & & & & $ $ $ % % % % ; % % % % % % % % % % % % % % % % $ $ X.%.e $ $ $ $ % % % % % % % % % % % % % % % ",
"% $ $ $ $ $ $ X & & & & & & & & & $ $ % % % % ; % % % % % % % % % % % % % % % % $ $ X X % & $ $ $ $ % % % % % % % % % % % % % $ ",
"$ $ $ $ $ $ $ $ $ % & & & & & & & % $ $ $ r % % % % % % % % % % % % % % % % % % $ $ $ & & & & % $ $ $ % % % % % % % % % % $ r ; ",
"$ $ $ $ $ $ X X $ X $ $ & & & & & % X C % $ r % % % % % % % % % % % % % % % % % $ $ $ & & & & % $ $ $ $ $ $ % % % % % $ $ $ $ $ ",
"$ $ $ $ $ X X X X $ X X * * & & % $ $ $ $ u % % % % % % % % % % % % % % % % % % $ $ $ & & & & % $ $ $ $ $ $ $ $ $ $ $ $ $ $ $ $ ",
"$ $ $ $ $ X X X X $ X X X X $ $ $ $ $ $ % E & % % % % % % % & 6 % % % % % e % % $ $ $ % & & % $ $ $ $ $ $ $ $ $ $ $ $ $ $ $ $ $ ",
"$ $ $ $ X X X X X X X X X X $ $ $ $ $ $ $ % % % % % % % % 8 0 0 8 % % % i 9.' X $ $ $ $ $ $ X $ $ $ $ $ $ $ $ $ $ $ $ $ $ $ X $ ",
"$ $ $ $ $ X X X X X X X X X $ $ $ $ $ $ % % % % % % % % % 8 8 8 0 & % % 9 :.' X $ $ $ $ $ $ $ $ $ $ $ $ $ $ $ % $ $ $ $ $ X i % ",
"$ $ $ $ $ $ X X X X X X X X $ $ $ $ $ % % % % % % % % % % 6 6 7 8 % % % % % $ % $ $ $ $ $ $ $ $ X X X X X X X : = X X $ $ $ X $ ",
"$ $ $ $ $ $ X X X X X X X X $ $ $ $ $ % % % % % % % % % % % & & % % % % % % % % % $ $ $ $ $ $ X X X X X X X X X X X X X X $ $ $ ",
"X X $ $ $ $ $ $ X X X X X $ $ $ $ $ % % % % % % % % % % % % % % % % % % % % % % % % $ $ 1 % $ X X X X X X X X X X X X X X X $ $ ",
"$ $ $ $ $ X X X $ $ $ $ $ $ $ $ $ $ % % % % % & % % % % % % % $ % % % % % % % % % % $ $ $ $ $ X X X X X X X X X X X X X X X $ $ ",
"$ $ $ X $ % V $ X $ $ $ $ $ $ $ $ % % % % % % % & % % % $ $ $ $ $ $ $ $ $ % % % % % % $ $ $ $ X X X X X X X X X X X X X X X X $ ",
"$ $ $ $ & & s.*.$ X $ $ $ $ $ $ $ % % % % % % % % % % $ $ X X X X X X $ $ $ % % % % % $ $ $ $ $ X X X X X X X X X X X X X X X $ ",
"$ $ $ $ & & ' q $ $ $ $ $ $ $ $ % 6 & % % % % % % % $ X X X X X X X X X X r 9 % % % % % $ $ $ $ X r X X X X X X X X X X X X X X ",
"$ $ $ $ & 6 & & $ $ $ $ $ $ $ $ % 6 & % % % & % % $ $ & X X $ X X X X X X X $ % % % % % $ $ $ $ X = X X X X X X $ % % X X X X X ",
"$ $ $ $ $ % & $ $ $ $ $ $ $ $ $ $ $ % % % % % % $ & 8 8 8 8 % & $ X X   X X $ % % % % % % : ,.$.$ X X X X X X $ % % & X X X X X ",
"$ $ $ $ $ $ $ $ $ $ $ $ $ $ $ $ % % % % % % % % % a 6 8 8 8 & & & X X X X X $ % N > D u ; z e.-Xk.c X X X X X $ % % $ R   X X X ",
"$ $ $ $ $ $ $ $ $ $ $ $ $ $ $ $ $ 9 % % % % % % & 6 7 8 8 6 6 & & $ X X   X $ % u > # j 2 @ . j !.XX{ : X X X X % y *.g.%.X X X ",
"$ $ $ $ $ $ $ $ $ $ $ $ $ $ X 9 $ % % % % % % % & 7 6 8 8 6 & & & o o o - d z d : t 2 2 > O O > #.%Xv.N X X X X X % m g.  X X X ",
"$ $ $ : : $ $ $ $ $ $ $ $ X I e % % % % M u 9 g A [ P M f 1 - 1 O.k.z.q.u.v.v.( 2 1 2 2 O O @ 2 x i..X/ X X X X X X   * X X X $ ",
"$ $ $ $ $ $ $ $ $ $ $ $ $ $ $ $ % r Y =.M.c.2.W / F j 3 > O O O M.%X[.W.W.H.| < . O > , , > O , < ~ [.x.X X X X X X X X X X X $ ",
"$ $ $ $ $ $ $ $ $ $ $ $ $ $ % Y B.$X X>X%X:Xi.> < 2 # O       , 3.O p.[.[.|       2 2 < , < > < > j S.[.O.X X X X X X X X X X $ ",
"$ $ $ $ $ $ X $ $ $ $ $ $ & B {  X-X,X3X-X1XD.< > + @ +       H.< , U.:XT.O     . @ < < 2 y.$.O x k.OX[.`.>.- X X X X X X X $ $ ",
"$ $ $ $ $ X r $ $ $ $ $ $ 9 x 0.k.i.*X4X2X2XU.2 # > @ O + + G 2   G -X2Xk         @ < 2 z.%X.X!.q.[.'.G.o.3.f X X X X X X X $ $ ",
"$ $ $ $ $ X i $ $ $ $ $ $ A l i.l #.$X5X4X*X1.@ , > < , # v J.  + ~ ,X,XO           2 < i.$XOX=X%X|.W.V.t.K 1 X X X X X $ $ $ $ ",
"$ $ $ $ $ $ $ $ $ $ % % % >.D w.2 w.>X6XU.<.k # > < < 2 < F ..# 5 w.6X$X, O         < , 5.Q.W.M.S.y./ D z t $ $ $ $ $ $ $ $ $ $ ",
"$ $ $ $ $ % % $ $ % % % g =.z q.J ~.6X6Xm.k < j j < 2 2 2 4 k 2 4.*X,X0.d > +     O < , u.L.2.Z A g * = $ $ $ $ $ $ $ X $ $ $ $ ",
"$ $ $ $ & 6 6 6 % % % % ^ ] u T.6X7X7X6XU.2 j ~ x 4 2 2 j k x } 3X3X~.~ k < O     O > O 5.j.N $ $ $ $ $ $ $ $ $ $ $ $ t $ $ $ $ ",
"$ % $ $ & 6 6 7 & % % % =.^ ; ;X4X5X5X3X^.v j 2 k k k k k j n 3X2X2XM.G 2 < , . O O O 2 } z $ $ $ $ $ $ $ $ $ $ $ $ $ $ $ $ $ $ ",
"$ r $ $ & 7 7 6 & % % % 7.Q % 2X3X3X2X,X6X4.F x x x k j j k / 5X>X,XI..., # > O x # O 5 t $ $ $ $ $ $ $ $ $ $ $ $ $ $ $ $ $ $ $ ",
"$ $ $ $ $ & 6 & % % % % ,.Q % *X3X3X,X,X2X*Xx.w.~ k j 2 k 4.~.2X-X-X2X0.3 O l 4.S.@.< d = $ $ $ $ $ $ $ $ $ $ $ $ $ $ $ $ $ $ $ ",
"$ $ $ $ $ $ % % % % % & 7.^ % {.3X1X,X1X;X;Xk.#.~ 2 2 x k.$X3X1X-XQ.{..., j 4. X XH.p.{ $ $ $ $ $ $ $ & & $ $ $ $ $ $ $ $ $ $ $ ",
"$ $ $ $ $ % % % % % % & l.] % {.2X,X;X+X@X.X<.2 c., b q.<X;X,X>X%Xv._ M./ J !.-X;X Xc.A $ $ $ $ $ $ $ & & $ $ $ $ $ $ $ $ $ $ $ ",
"$ $ $ $ $ % % $ X % & 9 x.^ % *X2X|.).|.+X&X[.y.Q.[. X&XOXOX|.[._.R.J M.XX5.W.%X=X|.O.$ $ $ $ $ $ 1 $ $ $ $ $ $ $ $ $ $ $ $ $ $ ",
"$ $ $ $ $ % $ m 6.% & D R.^ & ,X,XC.K.@X+X+X+X-X%XOX|.}.|.'.R.L.R._.O.B.,X.XG.'.$XQ.g $ $ $ $ $ $ $ $ $ $ $ $ $ $ $ $ $ $ $ $ $ ",
"$ $ $ $ $ % $ C :.% Z z.I.Y Y ;X-XZ.(.].`.`.`.R.W.`.).`.).P.P.[.H.2.D m.>X.XG.Q. Xd.& $ $ $ $ $ $ $ $ $ $ $ $ $ $ $ $ $ $ $ $ $ ",
"$ $ $ $ $ % % % $ % >.L. .r n.>X{.H.R.C.u.a.+.W W -.8.8.-.[ W ^ Y f ; d.>X~.p.b.v.B % % $ $ $ $ $ $ $ $ $ $ $ $ $ $ X X $ $ $ $ ",
"$ $ $ $ % % % % u u.Z.V.h & [.;XD.v.L.a.S W u & % a h h p 9 % % % % % &.;Xm.j.T.{ % % $ $ $ $ $ $ $ $ $ $ $ $ $ $ $ r i $ $ $ $ ",
"$ $ $ $ % % % % M./.A.&.7 7 E.-Xl.-.a.C.% % % % % 8 0 0 0 & % % % % % f D.i.k.~.Y % $ 9 & $ $ $ $ $ $ $ $ $ $ $ $ % 8 q $ $ $ $ ",
"$ $ $ % % % & 2.K.u.P 7 7 8 I.{. .O.b.e.& % % % % % 7 0 6 % % % % % % & F J.x.E.Y % ; e $ % $ $ $ $ $ $ $ $ $ $ % & & 6 & $ $ $ ",
"$ $ % % % % & [ d.w 7 7 7 7 N.I.M O.F.>.% % % % % % i % % % % % % % % & j  X%XI.A % u i m % % % $ $ $ $ $ $ $ $ % & & 6 & $ $ $ ",
"% % % % % % % % 8 7 7 7 7 7 m.N.6.w.H.=.% % % % % % % & & & % % % % & & ` OX%X=.9 % % % % % % % % % $ $ $ $ $ $ $ & & 6 & $ $ $ ",
"% % % % % % % % & 7 7 7 0 6 M.M.U >.T.7.% % % % % % % & & & % % & & & & M #X;X] & & % % % % % % % % $ 9 $ % % $ $ $ % % % % % % ",
"% % % % % % % & & % & & & & I.n.; ,.R.d.6 % & % % % % % % % % % & & & & & $X3X=.; & & % % % % % % % % 9.i $ % % % % % % % % % % ",
"% % % % % % & & & & & & & * Q.D.S Z z.H.w & & % % % % % & % % % & & 7 0 7 >X4XE.P & & & % % % % % % % R * % % % % % % % % % % % ",
"% % % & & & & & & & & & & 9 E.T.` & O.t.( ; & & & & & % % % % % & 6 7 7 p >X5X-X` & & & & & % & % % % $ % % % % % % % % % % % % ",
"% % & y % & & & & & & & & & t.r.) 9 u d N ; & & & & & & & & % % & 7 7 7 ! -X2X X+.& & & & & & 7 & % % % % % % % % % % % % % % % ",
"& & & % & & & & & & & & & & H @.W 9 & & & & & & & & & & & & & & & & 0 7 B U. Xt.L A & & & & & & & & & & % % % % % % % % % % % & ",
"& & & & & & & & & & & & & & * r 9 & & & & & & & & & & & & & & & & & & & * O.o.L G g & & & & & & & & & & & & & & & & & & & & & & ",
"& & & & & & & & & & & & & & & & & & & & & & & & & & & & & & & & & ; { @.( u & & & & & & & & & & & & & & & & & & & & & & & & & & ",
"& & & & & & & & & & & & & & & & & & & & & & & & & & & & & & & & & & & & & & & & & & & & & & & & & & & & & & & & & & & & & & & & "
};
