/* XPM */
static char *collect__1_1735329564[] = {
/* columns rows colors chars-per-pixel */
"64 64 245 2 ",
"   c #030100",
".  c #0B0101",
"X  c #130101",
"o  c #1C0201",
"O  c #240301",
"+  c #2B0401",
"@  c #2C0905",
"#  c #330501",
"$  c #3C0501",
"%  c #340A04",
"&  c #3B0C04",
"*  c #310E09",
"=  c #3B1106",
"-  c #2F170D",
";  c #3E2019",
":  c #430601",
">  c #420A02",
",  c #4A0A01",
"<  c #540C01",
"1  c #481508",
"2  c #531304",
"3  c #5B1504",
"4  c #541906",
"5  c #5C1B05",
"6  c #5A1B0C",
"7  c #491D12",
"8  c #631B05",
"9  c #6B1E05",
"0  c #641805",
"q  c #771901",
"w  c #572208",
"e  c #48231A",
"r  c #582717",
"t  c #50311C",
"y  c #68230A",
"u  c #782607",
"i  c #632614",
"p  c #762B15",
"a  c #68341B",
"s  c #76351A",
"d  c #7B3102",
"f  c #4C3329",
"g  c #5B3627",
"h  c #52332B",
"j  c #683828",
"k  c #753A27",
"l  c #6A3B30",
"z  c #694437",
"x  c #774937",
"c  c #73462E",
"v  c #7F451A",
"b  c #7B5545",
"n  c #71564E",
"m  c #8A2904",
"M  c #932E06",
"N  c #8A330A",
"B  c #983308",
"V  c #883719",
"C  c #983B18",
"Z  c #A83706",
"A  c #B03804",
"S  c #863922",
"D  c #923D21",
"F  c #922917",
"G  c #934919",
"H  c #8C4A18",
"J  c #A54517",
"K  c #B6501D",
"L  c #884A27",
"P  c #9E5327",
"I  c #884C35",
"U  c #8A5538",
"Y  c #99583B",
"T  c #964A2B",
"R  c #A74B27",
"E  c #A8572B",
"W  c #B75923",
"Q  c #A34C37",
"!  c #A45834",
"~  c #B55934",
"^  c #B44722",
"/  c #93613D",
"(  c #A66338",
")  c #B46539",
"_  c #AC602D",
"`  c #CC5930",
"'  c #C56636",
"]  c #CF7235",
"[  c #E66E3B",
"{  c #845443",
"}  c #875A45",
"|  c #945B48",
" . c #AD5D44",
".. c #876149",
"X. c #976549",
"o. c #896455",
"O. c #966956",
"+. c #987259",
"@. c #9C714F",
"#. c #A76B43",
"$. c #B86B47",
"%. c #AB734B",
"&. c #B7774A",
"*. c #AD7A54",
"=. c #A67657",
"-. c #B47D55",
";. c #9A7A65",
":. c #8F7C72",
">. c #A87C67",
",. c #B27364",
"<. c #C67845",
"1. c #C47D53",
"2. c #D3744B",
"3. c #E9774B",
"4. c #F07442",
"5. c #C67F69",
"6. c #D0803D",
"7. c #B8825B",
"8. c #9D8679",
"9. c #AA8368",
"0. c #B88867",
"q. c #BC916B",
"w. c #A88A75",
"e. c #B88D75",
"r. c #BA9577",
"t. c #C78659",
"y. c #D78C58",
"u. c #D9945B",
"i. c #CD8650",
"p. c #E88958",
"a. c #E9995B",
"s. c #E18346",
"d. c #C58C66",
"f. c #CB9469",
"g. c #DC9C6D",
"h. c #D69868",
"j. c #C79875",
"k. c #D29C74",
"l. c #D99D77",
"z. c #C28671",
"x. c #E39B66",
"c. c #E69D75",
"v. c #F39A69",
"b. c #CDA17E",
"n. c #DCA473",
"m. c #D4A47D",
"M. c #DAA57C",
"N. c #DBA87A",
"B. c #DEA36F",
"V. c #E9A267",
"C. c #F2A666",
"Z. c #EBAB75",
"A. c #E4AB7D",
"S. c #E6A774",
"D. c #F3AF76",
"F. c #EBB27D",
"G. c #F4B379",
"H. c #A99589",
"J. c #B89986",
"K. c #B09F90",
"L. c #BAA798",
"P. c #BCA996",
"I. c #BCB0A6",
"U. c #C89B82",
"Y. c #E2968B",
"T. c #CDA483",
"R. c #C3A48B",
"E. c #CAA88D",
"W. c #DDAB83",
"Q. c #D4A887",
"!. c #DDB28D",
"~. c #C2A593",
"^. c #C9AB96",
"/. c #D7AD95",
"(. c #D5B395",
"). c #DDBA9C",
"_. c #D8B598",
"`. c #CCB197",
"'. c #E3AD83",
"]. c #EAAF81",
"[. c #EAB589",
"{. c #F5BD8C",
"}. c #F3B785",
"|. c #ECBB93",
" X c #E3BB9C",
".X c #E5B896",
"XX c #F3BC97",
"oX c #F0A485",
"OX c #C8B7A8",
"+X c #D8BAA6",
"@X c #C3B9B2",
"#X c #E5BCA0",
"$X c #F4C294",
"%X c #F7C59A",
"&X c #EBC19E",
"*X c #DDC2AB",
"=X c #DBCCBC",
"-X c #D9C7B6",
";X c #CCC0B5",
":X c #ECC3A3",
">X c #E4C4AC",
",X c #E9C6AA",
"<X c #F4CEAC",
"1X c #F5CAA5",
"2X c #FBD3AD",
"3X c #E3CBB5",
"4X c #EACBB2",
"5X c #E4CDBB",
"6X c #E3C6B5",
"7X c #EBD3BC",
"8X c #ECD2B9",
"9X c #F5D3B4",
"0X c #F7D7B9",
"qX c #FDE1BE",
"wX c #DACFC3",
"eX c #DADAD5",
"rX c #D4CFC5",
"tX c #E3D3C3",
"yX c #EBD5C4",
"uX c #ECDAC6",
"iX c #E9DACA",
"pX c #F3DBC4",
"aX c #F8DCC2",
"sX c #F2DECB",
"dX c #F3D6C2",
"fX c #E7D7CE",
"gX c #F4E1CD",
"hX c #F9E3C9",
"jX c #EAE3D9",
"kX c #F4E5D3",
"lX c #F9EAD6",
"zX c #F5ECDC",
"xX c #FAEDDB",
"cX c #F7E7D5",
"vX c #FEF2DD",
"bX c #EAEAE6",
"nX c #F7EEE3",
"mX c #FEF4E4",
"MX c #FFFBED",
"NX c #FBF5E8",
"BX c #FFFEF3",
"VX c #FEFFFD",
"CX c #EDF0ED",
"ZX c #DDE0DF",
"AX c None",
/* pixels */
"AXAXAXAXAXAXAXAXAXAXAXAXAXAXAXAXAXAXAXAXAXAXAXAXAXAXAXAXAXAXAXAXAXAXAXAXAXAXAXAXAXAXAXAXAXAXAXAXAXAXAXAXAXAXAXAXAXAXAXAXAXAXAXAX",
"AXAXAXAXAXAXAXAXAXAXAXAXAXAXAXAXAXAXAXAXAXAXAXAXAXAXAXAXAXAXAXAXAXAXAXAXAXAXAXAXAXAXAXAXAXAXAXAXAXAXAXAXAXAXAXAXAXAXAXAXAXAXAXAX",
"AXAXAXAXAXAXAXAXAXAXT.U.'.0XAXAXAXAXAXAXAXAXAXAXAXAXAXAXAXAXAXAXAXAXAXAXAXAXAXAXAXAXAXAXAXAXAXAXAXAXAXAXAXAXAXAXAXAXAXAXAXAXAXAX",
"AXAXAXAXAXAXAXAXAXQ.X.X.d.k.0XAXAXAXAXAXAXAXAXAXAXAXAXAXAXAXAXAXAXAXAXAXAXAXAXAXAXAXAXAXAXAXAXAXAXAXAXAXAXAXAXAXAXAXAXAXAXAXAXAX",
"AXAXAXAXAXAXAXAXj._.+X#XE.uX.XF.AXAXAXAXAXAXAXAXAXAXAXAXAXAXAXAXAXAXAXAXAXAXAXAXAXAXAXAXAXAXAXAXAXAXAXAXAXAXAXAXAXAXAXAXAXAXAXAX",
"AXAXX   . AXAXAXwXsX6X+X7XnXdX..AXAXAXAX' k ,.xX2X2X%X2XhXMXAXAXAXAXAXAXAXAXAXAXAXAXAXAXAXAXAXAXAXAXAXAXAXAXAXAXAXAXAXAXAXAXAXAX",
"AXO # . . - k e mX6Xj.j.E.dXBX;.T S     + [ 8 >.zXdXaXcXmXmXxXmXp.Z AXAXAXAXAXAXAXAXAXAXAXAXAXAXBXvX/.BXAXAXAXAXAXAXAXAXAXAXAXAX",
"AXo $         n kX8X#XT.).yXVXI o         8 s l ^.O.mXcXxXNXBXmX#XA Z u 9 9 N J ~ ^ Z  .zXmXxXmXMXO.D  .MXlXC AXAXAXAXAXAXAXAXAX",
"AXAX+ .       K.kX>X_.^.+XiXVXS           J = 7 i i mXkXkXsX>.VXNXR A M Z B B R ~ ~ C X.sXMXxXhXcXO.y i /.+XV O O r AXAXAXAXAXAX",
"AXAXAX.       x tX+X-X-XE.tXOXT         y a @ o 6 i ^.lXsXmX: dXVXN A m M V M J p N V , 6 nX XR.3XO # > V oXXXS . @ AXAXAXAXAXAX",
"AXAXAXAXAXAXAX. /.3X3XtX(._.. k t X   6 P & O . 6 , { nXsXkX6XkXBXQ m B u A m R M m M M ~ jX=X- e.o X # 6 ^ 2.Y.[ ` Q AXAXAXAXAX",
"AXAXAXAXAXAXAX; c 5XjXfX).z * a V R J D & @ o O 2 , `.zXcXsXcXnXMXj.q Z M q M z.Q q u B C z.l @ ;XK.O # 0 3 ~ Q 3.4.Q Q AXAXAXAX",
"AXAXAXAXAXAXAX1 z -XjXfX`.X t V u 0 D 6 = & X + w I kXsXkXsXsXzXNXsXm q ~ 3 q $.4Xq q q B 5.S l BXl $ $ u + C R Q 2.` S AXAXAXAX",
"AXAXAXAXAXAXAX% n rXbXZX8.  = V j @ p 6 1 * @ & r mXzX{ ^.gXuXiXzXtX, 3 e.+X: q aXaX#Xq q R dX6XvX5Xe $ p O & V S 6 D 9 AXAXAXAX",
"AXAXAXAXAXAXAXAX8.eXbXjX=X@ % E } @ > 6 7 O O * 6 cXxXw.O.nXK.gXsXnXl i | +X6 < I VXzXY 3 u z.BXkXaXr.$ y + o & < + 9 0 AXAXAXAX",
"AXAXAXAXAXAXAXAXH.eXCXbXOXX , Y | > & = 1 X @ @ & | lX~.yXnX^.o.yXzXH.I p a 6 : y >XU.k , N p kXxXdX=.: 5 > X O : # 8 9 AXAXAXAX",
"AXAXAXAXAXAXAXAX;XZXCXbXrXo u >.{ 0 & & @ . O o # & | $ -XBXb o >.zXyX+X>., , # 1 ~.9./.9 N 9 ,.mXhX>., : 2 o + # > p 9 AXAXAXAX",
"AXAXAXAXAXAXAXAXrXZXCXeXI.1 < _.s 0 + 6 X . * O # # 8 6 i +XL.O > hXtXiXMX1 > $ o ^.yXzX6X< u 3 8XhX,Xs X 2 { O.O a X.u AXAXAXAX",
"AXAXAXAXAXAXAXAXbXbXCXCXI.: O.6X3 9 + 7 X   @ O # + 2 r , k xXX O 0X5X-XtX: # i O # j pXkX# 0 : e.hXhX_.;.`.<Xj + { O.V AXAXAXAX",
"AXAXAXAXAXAXAXAXnXyXnXVXVX>.NX| < 3 = > X   O X # & & 2 y # cX~.> 8X4X+X+ $ X x l # o J.vX7 j o.R.aXkX+X XhXhX=.O X.{ Q AXAXAXAX",
"AXAXAXAXAXAXAXAX,.,.Y.5.BX+X4X# 3 , & 1 .   X o O = 1 i p $ w.kX+.`.o J.n l % z sXO O J.lXo.O J.sXsXkXE.!.4X0X Xo /.X.~ AXAXAXAX",
"AXAXAXAXAXAXAXY.-   f S mX+X+X+ 2 2 + > .   . o o @ 7 r y & { 7XsX>.  ;.#XP.  ^.o.o l l kX`.X > sXkXkXT.Q.|.1X0Xk aX>.) AXAXAXAX",
"AXAXAXAXAXAXAXXXQ -  .D nXcXI + : 3 @ #     . X X X O > 8 # 6 sXpX+.  b 4X~.  l f X H.& OX+Xr J.cX-XzXT.h.Z.}.<X2X0X+XAXAXAXAXAX",
"AXAXAXAXAXAXAXXX$.j I 3.7X0X0.O : 3 @ @ .   . . . . . O 3 # >.nX0X).e z  X4Xo.. X O b o l uX7XuXkXk nX!.u.v.F.$X$X2XsXAXAXAXAXAX",
"AXAXAXAXAXAXAXAXAXv.i.AXAXF.$Xr # < # O X .   . . . . O 2 r tXNXkX[.g { |.&XJ.. X X + o h 7X5X8XuX`.zX XV.V.F.}.D.2XaXAXAXAXAXAX",
"AXAXAXAXAXAXAXAXAXAXAXAXAX|.B.<Xx + $ O o . . . . X . + 2 O O k sXV.X b |.E.r.o X X O o o.yX5XyXiXkXkX.Xn.Z.D.a.V.1XaXAXAXAXAXAX",
"AXAXAXAXAXAXAXAXAXAXAXAXAXAXg.$Xx # O o o e X X o X o $ $ o o + I h.&.l.|...  X X o o t 4X-X3X5XyXuXkXW.S.V.a.6.Z.1X0XAXAXAXAXAX",
"AXAXAXAXAXAXAXAXAXAXAXAXAXAXAX|.c + X . o.{ =.# o O # # + X o O 8 Q.h.F.|.g g z . o o 7  X#X#X>X4XpXsX*Xg.] u.6.V.$X1XAXAXAXAXAX",
"AXAXAXAXAXAXAXAXAXAXAXAXAXAXAX[.k X   o k.= j.W.+ >.%X* . O o O s -Xj.B.k.  g { . X >.!.'.'.[.:X9X0XfXbX!.u.h.y.Z.XXXXAXAXAXAXAX",
"AXAXAXAXAXAXAXAXAXAXAXAXAXAXAXAXM.X.k h.'. X1X1X[.|.!.z X @ = w.P.).*Xm.M.j   j.O . j.%XN.n.[.:X9XgX8XzX'.S.x.x.Z.$XM.AXAXAXAXAX",
"AXAXAXAXAXAXAXAXAXAXAXAXAXAXAXAX].].<.t.g.|.XX[.#XW.j.@X* + O tXjX8X).W.g.n.7.F.*.o = r m.A.[.1XaXgX~ M.>Xn.h.S.Z.G.f.AXAXAXAXAX",
"AXAXAXAXAXAXAXAXAXAXAXAXAXAXAXAX}.l.<.1.f.l.'.k.M.Q.J.-X; X X { +XyX].A.u.V.a.y.D.f.} 7.}.F.XX2XsXv.A m 9XN.h.A.}.{.7.AXAXAXAXAX",
"AXAXAXAXAXAXAXAXAXAXAXAXAXAXAXAX[.h.i.$.l.f.k.d.e.T.~.=XI.z f K.sXF.F.D.u.V.C.C.C.C.G.V.Z.{.<X0XS.[ [ J F.N.f.!.$X%X@.AXAXAXAXAX",
"AXAXAXAXAXAXAXAXAXAXAXAXAXAXAXAXAXl.y.! W.Q.^.^.#X[.).O ;X:.e nXkXv.G.a.a.G.G.C.C.C.V.C.$X1X9XA.N 3.` ` h.b.j._.1XhXX.AXAXAXAXAX",
"AXAXAXAXAXAXAXAXAXAXAXAXAXAXAXAXAXQ.u.Q d. X+X#X%X2.g.X K.eX=XjXuXV.C.a.C.D.$Xa.Z.$X{.%X%X1X&Xy.i.p.` [ AXf.b.).<XkXU F.AXAXAXAX",
"AXAXAXAXAXAXAXAXAXAXAXAXAXAXAXAXAXAXh.~ %.'.1X:X}.G.Z.o P.-X*XtX8XV.S.}.G.$X$X$X$X$X%X|.F.AXAXk.t.y.x.[ AXb.m._.kX4Xa F.AXAXAXAX",
"AXAXAXAXAXAXAXAXAXAXAXAXAXAXAXAXAXAXZ.1.%.Q.[.[.g.i.i.:.OX=X*X=XAXAXAXAXG.C.i.S.V.[.$XAXAXAXAXj.7.t.m._ AXr.T.(.zX_.a h.AXAXAXAX",
"AXAXAXAXAXAXAXAXAXAXAXAXAXAXAXAXAXAXAXy.) l.l.1.) ~ ^ e ; @X7Xw.AXAXAXAXAXAXAXAXAXAXAXAXAXAXAXT.7.7.j.( AXAXb.(.jX$Xa s.AXAXAXAX",
"AXAXAXAXAXAXAXAXAXAXAXAXAXAXAXAXAXAXAXAXt.$.t.$._ ' AXX X o H.b AXAXAXAXAXAXAXAXAXAXAXAXAXAXAXU.7.q.d.( AXAXb.(.jXb.U ] AXAXAXAX",
"AXAXAXAXAXAXAXAXAXAXAXAXAXAXAXAXAXAXAXAXAX1.~ ~ t.:XAXO X O o b AXAXAXAXAXAXAXAXAXAXAXAXAXAXAXAX0.7.7.( _ AXW.(.jX( j.W AXAXAXAX",
"AXAXAXAXAXAXAXAXAXAXAXAXAXAXAXAXAXAXAXAXAXR.l.d.t. XAX+ X + o ..AXAXAXAXAXAXAXAXAXAXAXAXAXAXAXAXq.%.9.( P AX!.m.=XP._ W AXAXAXAX",
"AXAXAXAXAXAXAXAXAXAXAXAXAXAXAXAXAXAXAXAXAX~.0.z.0.AXAXO X + O o.AXAXAXAXAXAXAXAXAXAXAXAXAXAXAXAX9.@.%.( G AXq.r.=XcXJ W AXAXAXAX",
"AXAXAXAXAXAXAXAXAXAXAXAXAXAXAXAXAXAXAXAXAX`.=.0.z.AXAXO X + O AXAXAXAXAXAXAXAXAXAXAXAXAXAXAXAXAX9.=./ @._ AXq.j.r.7X( 6.AXAXAXAX",
"AXAXAXAXAXAXAXAXAXAXAXAXAXAXAXAXAXAXAXAXAXOX;.-.U.AXAXo X + o AXAXAXAXAXAXAXAXAXAXAXAXAXAXAXAXAXq.0.%.%.) AXAXq.E.hXW ) AXAXAXAX",
"AXAXAXAXAXAXAXAXAXAXAXAXAXAXAXAXAXAXAXAXAX@XU.>.^.AXAXz . @ % AXAXAXAXAXAXAXAXAXAXAXAXAXAXAXAXAXT.+.=.7.AXAXAXr.7.N.6.s.AXAXAXAX",
"AXAXAXAXAXAXAXAXAXAXAXAXAXAXAXAXAXAXAXAXAX&.~.*.Q.AXAX^.P.wXL.AXAXAXAXAXAXAXAXAXAXAXAXAXAXAXAXAXAX=.( 7.AXAXAX0.).u.u.a.AXAXAXAX",
"AXAXAXAXAXAXAXAXAXAXAXAXAXAXAXAXAXAXAXAXAXm T.j..XAXAXG G (.cXAXAXAXAXAXAXAXAXAXAXAXAXAXAXAXAXAXAX=.( t.AXAXAX7.(.n.B.AXAXAXAXAX",
"AXAXAXAXAXAXAXAXAXAXAXAXAXAXAXAXAXAXAXAXAXAX=.R. XAXAXm 9 J -XAXAXAXAXAXAXAXAXAXAXAXAXAXAXAXAXAXAX%.7.S.AXAXAXAX(.h.S.AXAXAXAXAX",
"AXAXAXAXAXAXAXAXAXAXAXAXAXAXAXAXAXAXAXAXAXAX0.m.&XAXAXAX0 N 9XAXAXAXAXAXAXAXAXAXAXAXAXAXAXAXAXAX9...t.B.AXAXAXAX=Xh.AXAXAXAXAXAX",
"AXAXAXAXAXAXAXAXAXAXAXAXAXAXAXAXAXAXAXAXAXAXP.K.AXAXAXAXy 7.hXAXAXAXAXAXAXAXAXAXAXAXAXAXAXAXAXAX8.@.q.AXAXAXAXAXwX).AXAXAXAXAXAX",
"AXAXAXAXAXAXAXAXAXAXAXAXAXAXAXAXAXAXAXAXAXAXw.r.AXAXAXAXq.;XAXAXAXAXAXAXAXAXAXAXAXAXAXAXAXAXAXAXo.9.7.AXAXAXAXAX=X&XAXAXAXAXAXAX",
"AXAXAXAXAXAXAXAXAXAXAXAXAXAXAXAXAXAXAXAXAXAXw.J.AXAXAXAXK.I.AXAXAXAXAXAXAXAXAXAXAXAXAXAXAXAXAXAX+.q.t.AXAXAXAXAX=X,XAXAXAXAXAXAX",
"AXAXAXAXAXAXAXAXAXAXAXAXAXAXAXAXAXAXAXAXAXAX9.q.AXAXAXAXK.P.kXAXAXAXAXAXAXAXAXAXAXAXAXAXAXAXAXAX+.q.AXAXAXAXAXAX=X4XAXAXAXAXAXAX",
"AXAXAXAXAXAXAXAXAXAXAXAXAXAXAXAXAXAXAXAXAXAXo.w.AXAXAXAXw.E.lXAXAXAXAXAXAXAXAXAXAXAXAXAXAXAXAX+.9.9.AXAXAXAXAXAX5X4XAXAXAXAXAXAX",
"AXAXAXAXAXAXAXAXAXAXAXAXAXAXAXAXAXAXAXAXAXAX8.7.!.AXAXAXw.P.qXAXAXAXAXAXAXAXAXAXAXAXAXAXAXAXAX9.0.t.AXAXAXAXAX*.3X&XAXAXAXAXAXAX",
"AXAXAXAXAXAXAXAXAXAXAXAXAXAXAXAXAXAXAXAXAXr./ %.h.AXAXAXP.*XNXAXAXAXAXAXAXAXAXAXAXAXAXAXAXAX7./ 7.7.AXAXAXAXAXL &.B.AXAXAXAXAXAX",
"AXAXAXAXAXAXAXAXAXAXAXAXAXAXAXAXAXAXAXAXAXw.c H i.AXAXAX+.r.%XAXAXAXAXAXAXAXAXAXAXAXAXAXAXAX@.U H P AXAXAXAXAX( m.u.AXAXAXAXAXAX",
"AXAXAXAXAXAXAXAXAXAXAXAXAXAXAXAXAXAXAXAXAXP.+.H d AXAXAX9.0.h.AXAXAXAXAXAXAXAXAXAXAXAXAXAXf.@.7.w d AXAXAXAXAX&X3X/ AXAXAXAXAXAX",
"AXAXAXAXAXAXAXAXAXAXAXAXAXAXAXAXAXAXAXAX7.7.%.7.AXAXAXAX`.3Xq.AXAXAXAXAXAXAXAXAXAXAXAXAXAXv H 7.4 AXAXAXAXAXL n.9X/ AXAXAXAXAXAX",
"AXAXAXAXAXAXAXAXAXAXAXAXAXAXAXAXAXAXAXAXI w a AXAXAXAXF.$XlX9.AXAXAXAXAXAXAXAXAXAXAXAXAXx j w w AXAXAXAXAXAX@.U ) AXAXAXAXAXAXAX",
"AXAXAXAXAXAXAXAXAXAXAXAXAXAXAXAXAXAXAXc a w = AXAXAXAXa &.A.qXAXAXAXAXAXAXAXAXAXAXAXAXAXg r 4 AXAXAXAXAXAXf 9.U g AXAXAXAXAXAXAX",
"AXAXAXAXAXAXAXAXAXAXAXAXAXAXAXAXAXAXAXAXAXAXAXAXAXAXAXz 7.G u.AXAXAXAXAXAXAXAXAXAXAXAXAXAXAXAXAXAXAXAXAXAXAXAXAXAXAXAXAXAXAXAXAX",
"AXAXAXAXAXAXAXAXAXAXAXAXAXAXAXAXAXAXAXAXAXAXAXAXAXAXf M.d.L AXAXAXAXAXAXAXAXAXAXAXAXAXAXAXAXAXAXAXAXAXAXAXAXAXAXAXAXAXAXAXAXAXAX",
"AXAXAXAXAXAXAXAXAXAXAXAXAXAXAXAXAXAXAXAXAXAXAXAXAXAXAXAXAXAXAXAXAXAXAXAXAXAXAXAXAXAXAXAXAXAXAXAXAXAXAXAXAXAXAXAXAXAXAXAXAXAXAXAX"
};
