/* XPM */
static char *_d2917c28755461bcb88cfaef13b7a215hYn3IoTojCOj4VW[] = {
/* columns rows colors chars-per-pixel */
"32 32 51 1 ",
"  c None",
". c #F9F903",
"X c #FAFA02",
"o c #FBFB02",
"O c #FBFB03",
"+ c #FCFC01",
"@ c #FDFD01",
"# c #FEFE00",
"$ c yellow",
"% c #FEFE01",
"& c #FFFF01",
"* c #FCFC02",
"= c #FDFD02",
"- c #FCFC03",
"; c #FEFE02",
": c #FFFF02",
"> c #FEFE03",
", c #FFFF03",
"< c #FAFA04",
"1 c #FBFB05",
"2 c #FCFC04",
"3 c #FDFD04",
"4 c #FCFC05",
"5 c #FEFE04",
"6 c #FFFF04",
"7 c #FEFE05",
"8 c #FFFF05",
"9 c #FDFD06",
"0 c #FFFF06",
"q c #FEFE07",
"w c #FFFF07",
"e c #F1F10A",
"r c #FCFC08",
"t c #FFFF08",
"y c #FFFF09",
"u c #FDFD0C",
"i c #FDFD0F",
"p c #FDFD11",
"a c #FCFC12",
"s c #FBFB15",
"d c #FFFF14",
"f c #FFFF15",
"g c #F6F61B",
"h c #F7F71F",
"j c #FFFF1A",
"k c #FFFF1B",
"l c #FFFF1C",
"z c #FFFF1D",
"x c #FFFF1F",
"c c #F8F823",
"v c #FFFF22",
/* pixels */
" $$$$$   $$$$$$  $$$$$$  $$$$$$ ",
"$                              $",
"$                              $",
"$                              $",
"$                              $",
"$                              $",
"                                ",
"             $$$    $$ps9$$     ",
"$           X$$$   $$9pu9$$$   $",
"$          $$$$    $9  9$$$$   $",
"$         $$$$     y   $$$$$   $",
"$        $$$$          $$$$$   $",
"$       $$$$           $$$$    $",
"$      <$$$           $$$$     $",
"$     $$$$          $$$$9      $",
"     9$$$X          $$$$        ",
"    fy$$$X$$$$$$9  $$$$         ",
"    fy$$$$$$$$$$9z $$$$   9$    ",
"$   f9$$$$$$$$$$9j $$$$  $$$   $",
"$            $$$9z $$$Xe<$$    $",
"$            $$$9j             $",
"$            $$$yz             $",
"$            yy9uz             $",
"$            vhgc              $",
"$                              $",
"$                              $",
"                                ",
"$                              $",
"$                              $",
"$                              $",
"$                              $",
" $$$$$$  $$$$$$  $$$$$$  $$$$$$ "
};
