/* XPM */
static char *pngegg__1___4_1735331763[] = {
/* columns rows colors chars-per-pixel */
"64 64 226 2 ",
"   c #1A1F1E",
".  c #1B2324",
"X  c #16242A",
"o  c #1B2629",
"O  c #1C282C",
"+  c #162024",
"@  c #1B2C33",
"#  c #1B2E39",
"$  c #172832",
"%  c #1C313D",
"&  c #212B2C",
"*  c #212F33",
"=  c #243235",
"-  c #23343B",
";  c #26383E",
":  c #2B383C",
">  c #1B211F",
",  c #1C3543",
"<  c #1F3846",
"1  c #1C3648",
"2  c #1E3A4C",
"3  c #1F3D52",
"4  c #243A44",
"5  c #243D4B",
"6  c #243944",
"7  c #213F51",
"8  c #1F4057",
"9  c #26414E",
"0  c #29424D",
"q  c #2D4247",
"w  c #35464A",
"e  c #234254",
"r  c #284454",
"t  c #22445B",
"y  c #294758",
"u  c #2A4A5C",
"i  c #26495E",
"p  c #324B59",
"a  c #3A4D56",
"s  c #35515B",
"d  c #234661",
"f  c #254A64",
"g  c #2A4D63",
"h  c #264D6A",
"j  c #294E6B",
"k  c #2C5066",
"l  c #2C526C",
"z  c #335163",
"x  c #395464",
"c  c #32546B",
"v  c #375A6D",
"b  c #2C5573",
"n  c #2E5975",
"m  c #2C5679",
"M  c #2E5A7B",
"N  c #325A74",
"B  c #3A5D74",
"V  c #315D7C",
"C  c #375A76",
"Z  c #35617D",
"A  c #3C637C",
"S  c #3D6377",
"D  c #495559",
"F  c #465C6A",
"G  c #48616C",
"H  c #476777",
"J  c #546C7A",
"K  c #5D717E",
"L  c #506A74",
"P  c #64747A",
"I  c #2F5D82",
"U  c #2F5E88",
"Y  c #315F83",
"T  c #346284",
"R  c #3A6684",
"E  c #3D6A84",
"W  c #34658B",
"Q  c #36688D",
"!  c #3B6A8C",
"~  c #3A6788",
"^  c #366992",
"/  c #3A6C94",
"(  c #3A6E9A",
")  c #356894",
"_  c #3C729C",
"`  c #3E7296",
"'  c #3D74A3",
"]  c #3E77AA",
"[  c #426B85",
"{  c #456D88",
"}  c #45738C",
"|  c #4A7388",
" . c #547283",
".. c #597888",
"X. c #427494",
"o. c #4B7C93",
"O. c #41769D",
"+. c #457A9D",
"@. c #4B7B99",
"#. c #527E9C",
"$. c #5B7D94",
"%. c #536F85",
"&. c #657B8A",
"*. c #6E7F89",
"=. c #437AA5",
"-. c #437CAB",
";. c #457AA3",
":. c #437EB2",
">. c #4D819C",
",. c #4D8297",
"<. c #568599",
"1. c #54828E",
"2. c #76848D",
"3. c #688699",
"4. c #768C99",
"5. c #67949E",
"6. c #6E828F",
"7. c #4C84A5",
"8. c #4B84AB",
"9. c #4A85AC",
"0. c #528CA6",
"q. c #528CAC",
"w. c #5687A7",
"e. c #5B94AC",
"r. c #5690AA",
"t. c #4682B4",
"y. c #4986B4",
"u. c #4D8AB5",
"i. c #4684BA",
"p. c #4887BA",
"a. c #4C8BBC",
"s. c #518DB4",
"d. c #538DB8",
"f. c #5A94B4",
"g. c #5292BC",
"h. c #5A96B8",
"j. c #668BA5",
"k. c #6598AA",
"l. c #7396A8",
"z. c #6799B6",
"x. c #779EB3",
"c. c #64A0BA",
"v. c #6AA4BA",
"b. c #77A7B6",
"n. c #79B3BC",
"m. c #71A2AB",
"M. c #4D8DC3",
"N. c #4C8EC9",
"B. c #4F90C7",
"V. c #5294C3",
"C. c #5B9BC4",
"Z. c #5295CA",
"A. c #569ACC",
"S. c #5A9DCB",
"D. c #5698C6",
"F. c #599ED2",
"G. c #5498D4",
"H. c #5EA2CD",
"J. c #5EA0C5",
"K. c #5DA3D3",
"L. c #5DA4DA",
"P. c #62A4C4",
"I. c #61A5CB",
"U. c #69AACA",
"Y. c #6CB2CB",
"T. c #7BBDCB",
"R. c #77B8C9",
"E. c #61A6D2",
"W. c #64ABD4",
"Q. c #64ACD9",
"!. c #65ABD5",
"~. c #6CB3D4",
"^. c #6AB4DC",
"/. c #6EB9DC",
"(. c #67B1D9",
"). c #72BAD5",
"_. c #73BCDC",
"`. c #78BAD5",
"'. c #7CA6C3",
"]. c #64AEE1",
"[. c #6BB7E2",
"{. c #73BEE2",
"}. c #70BDE9",
"|. c #619FC3",
" X c #7CC3D5",
".X c #7BC4DD",
"XX c #77C4DD",
"oX c #7DC3C7",
"OX c #76C3E3",
"+X c #7BCAE4",
"@X c #82909A",
"#X c #819BAB",
"$X c #85A6B5",
"%X c #89BABD",
"&X c #90AABB",
"*X c #85A9C2",
"=X c #88BAC6",
"-X c #91BCCE",
";X c #89C3CB",
":X c #97C3C5",
">X c #82CBDB",
",X c #88C8D7",
"<X c #95CCD6",
"1X c #8BD4DB",
"2X c #8CD1D8",
"3X c #9CD6D9",
"4X c #9CDADD",
"5X c #96D5DA",
"6X c #A6C8C9",
"7X c #ABD4D5",
"8X c #ACDCDD",
"9X c #A3D8D9",
"0X c #B6DBDC",
"qX c #A1CCDB",
"wX c #83CCE2",
"eX c #8AD5E2",
"rX c #8AD6E5",
"tX c #9ADAE3",
"yX c #9CE1E4",
"uX c #9BE2E8",
"iX c #A4E2E2",
"pX c #ADE2E2",
"aX c #B3E1E0",
"sX c #A6DFE1",
"dX c #C1DADC",
"fX c None",
/* pixels */
"fXfXfXfXfXfXfXfXfXfXfXfXfXfXfXfXfXfXfXfXfXfXfXfXfXfXfXfXfXfXfXfXfXfXfXfXfXfXfXfXfXfXfXfXfXfXfXfXfXfXfXfXfXfXfXfXfXfXfXfXfXfXfXfX",
"fXfXfXfXfXfXfXfXfXfXfXfXfXfXfXfXfXfXfXfXfXfXfXfXfXfX*Xx.j. .L H H J $.l.*X*Xz.fXfXfXfXfXfXfXfXfXfXfXfXfXfXfXfXfXfXfXfXfXfXfXfXfX",
"fXfXfXfXfXfXfXfXfXfXfXfXfXfXfXfXfXfXfXfXfXfX*X'.U.|.V.#.[ N v x s z v { d.A.u.e.*X-XfXfXfXfXfXfXfXfXfXfXfXfXfXfXfXfXfXfXfXfXfXfX",
"fXfXfXfXfXfXfXfXfXfXfXfXfXfXfXfXfXfXfXfXz.j.;.d.M.i.-.Y c g y p r g Q A.wXwX[.S.f.g.w.l.$XfXfXfXfXfXfXfXfXfXfXfXfXfXfXfXfXfXfXfX",
"fXfXfXfXfXfXfXfXfXfXfXfXfXfXfXfXfXfXk.w._ _ / i.:.M.) k 5 4 6 5 7 r b T -.K.wXwX_.I.t.+.[ ..2.fXfXfXfXfXfXfXfXfXfXfXfXfXfXfXfXfX",
"fXfXfXfXfXfXfXfXfXfXfXfXfXfXfXfX3.| / Y W ] g.].G.:.( C p 5 5 4 6 r u j X.O.p.E.^.[.).g./ v F L *.fXfXfXfXfXfXfXfXfXfXfXfXfXfXfX",
"fXfXfXfXfXfXfXfXfXfXfXfXfXfX$X<.E n l Q t.K.OX].S.-.=.-.d.U b 5 5 y N =.-.( U -.S.W.E.~.f.V g a D P fXfXfXfXfXfXfXfXfXfXfXfXfXfX",
"fXfXfXfXfXfXfXfXfXfXfXfXfXl.#.! N ! B.Z.a.-.i.M.Z.;.( :.F.Q.y.Y g r 5 7 c Y b ) p.C.H.S.V.p.! k a D L fXfXfXfXfXfXfXfXfXfXfXfXfX",
"fXfXfXfXfXfXfXfXfXfXfXfXj.[ ! -.p.A.i.t.] ( Q Y T M T T ( p.8.k r 6 6 5 r f y g r i / a.g.g.p.+.A S A $.$XfXfXfXfXfXfXfXfXfXfXfX",
"fXfXfXfXfXfXfXfXfXfXfXo.! T T ^ T ` _ ] _ T n V k l V n ' i.t.l * * 6 5 r e t i e 4 e T ( -.g.g.q.,.@.#.j.-XfXfXfXfXfXfXfXfXfXfX",
"fXfXfXfXfXfXfXfXfXfX| R Z T V l W W M n Z k l V i b ( Q W.t.( b * = = 6 r 4 5 4 = - 4 9 S Z / -.h.z.7.w.f.b.=XfXfXfXfXfXfXfXfXfX",
"fXfXfXfXfXfXfXfXfX%.C R Q n M ~ W ' Q Z l y i k 0 g Q u.OXy.M k k B A p * O & & O * - s L ,.>.7.e.n.|.d.h.C.v.fXfXfXfXfXfXfXfXfX",
"fXfXfXfXfXfXfXfX..x N R T T T n N V / _ V b g r l b 9.XXrXrX).U.5X4X4X`.+.4 & O O * q G P 5.5.k.k.n.=XT.oXc.f.z.fXfXfXfXfXfXfXfX",
"fXfXfXfXfXfXfX..F z N T l l N r l ^ A.!.g.=.T n b n J.yXuXuXyX4XwXY.U.~.).7.l 5 - : s L 1.6.5.k.k.v.:X:XT.T.z.k.b.fXfXfXfXfXfXfX",
"fXfXfXfXfXfXfXH z N l n k k y y l q.wXtX_.E.B._ b Q ~.iXiXuXeX^.y.T / t.g.y._ M c S A ` ,.>.>.+.+.f.=X6X;XoXR.n.x.$XfXfXfXfXfXfX",
"fXfXfXfXfXfX .v Z Z u l u 9 q u n U.rXrXOXL.Z._ Q _ ~.yXiXrXXXA.' _ ' ( :./ n W _ +._ / ` 0.-.+.W ` v.6X6X;X:X%X$Xb.fXfXfXfXfXfX",
"fXfXfXfXfX..H R =.k u u 0 4 0 r u r.OXG.].].N.] / ` .X8XyX+X^.M.' ] :.-.:.i./ Q ' ] _ Q Q _ _ ( Q / s.n.;X:X:X:X%X$Xb.fXfXfXfXfX",
"fXfXfXfXfXH V ;._ y 0 y q ; 9 r g c.OX^.+X+XK.g.g.R.iXiXeX1XL.M.V.H.D.a.i.] ' ' ] i./ Y Y b M I n j T 9.c.%X:X%X%X$Xb.m.fXfXfXfX",
"fXfXfXfXK x N T Q r y 9 % - q r ` XX+X+XOXOXOX(. XyXiXyX+XXXXX(.^.L.W.I.V.-.( _ t.9.8.Q Y b j b l t t b 8.c.n.n.%X$Xm.l.fXfXfXfX",
"fXfXfXfXD s l / n Z n b r ; ; g 0.(.+X+X}.[.[.XX1X1XiX+X/.H.(.L.L.G.G.K.E.D.a.d.g.e.7.s.+.W M j e t f e M q.9.0.m.b.5.<.fXfXfXfX",
"fXfXfXP a u u T ' -.( n f q 9 T g.Z.K.].L.].^.+X+X1X1XXXOXL.(.(.(.Z.i.N.Z.H.P.P.h.h.v.v.z.7.T b t 4 7 e d T s.Q ;.k.r.| &.fXfXfX",
"fXfXfXD w 9 0 Z J.^.:.M g g Q ' M.B.B.Z.B.M.L./.+XOXXXW.A.K.K.a.a.M.] ] i.J.S.V.V.g.h.m.z.r.E j h 2 , e f j 7.7.( ;.<.{ ..fXfXfX",
"fXfXfXw : = 0 _ (.g.:.T k n W T i.G.G.Z.i.:.M.A.XXOX^.B.:.-.' ) ) ( ] ] =.a.f.s.p.g.u.f.v.v.` j t < % 7 j m 7.c.;./ ! [ { #XfXfX",
"fXfXP w : - k u.a.T _ l u i n b / G.L.K.i.i.a.t.A.K.(.K.:._ _ _ ( U ) ] / 8.e.e.h.9._ >.w.h._ i 5 3 e n I I r.v.q.' Y T H 6.fXfX",
"fXfXP w ; 0 n i._ Q ' l u r n V V N.G.M.p.-.V.a.a.(.XXW.a.g.i.u.' ' ) ) T Q @.<.r.9./ >.q._ ' l e t m ) / ;.z.q.e.w.~ b c F fXfX",
"fXfX..q - u Z 8.V Q Q M r 9 i Z W p.t.:.-.:.a.K.B.F. XXXL.K.B.g.g.-.' M ^ n ` ,.<.>.` ` 9._ ( M h h Y ' q.e.k.O.O.0.U h V p fXfX",
"fXfXe.g 9 N t.Z r k n f 9 4 9 k ] :.) ( ) ( ] _ T -.H.1XXXK.Q.H.a.t._ m U T T ` } } E T Q _ _ Q U T U U _ _ ;.I I U U h ~ c @XfX",
"fXfX=X+.Z _ a.M u y k 9 4 4 < g -./ n b ( T I M h n V. X XXXXXH.a.;.Q b M M T Q T l b Y ) ' g.f.-./ j m I =.I 3 t m M d l H 4.fX",
"fXqX-XF.i.L.a.Q k r i q % 4 9 Z B._ M h / ' _ M b M ] Y.(.XX(.H.g._ U V b h ) Q b t h j U -.-._ ( ( f 7 I m I 3 3 3 I h V [ *.fX",
"fXqXI.' N.[.p.=.r 9 e q % q y _ K.] V M ) ] i.) n T ( D.Z.F.A.Z.i.] W V M m W ) U b n b ( ' b h U U j 3 h h h m t , h 7 b c &.fX",
"fX-Xd.! Z.I.W ` r 9 y y 9 r g g.G.t.( t.^ p.Z.] n n ] H.B.M.:.-.:.p.t.( ( ^ _ / ( ) ( Q ) ( ) h b U j f 3 d d m h , h d h C %.fX",
"fX*X#.^ K.;.n n k y g i r 9 k J.+XD.] p.g.K.Q.g.Q M ) D.H.u.=.( t.] ( _ T h 8 d j h b h ^ ^ h W h I h d 8 h 1 t d , 7 7 j C %.fX",
"fX*X#.T H.Q W l r i k n r 4 r Y.uX_.W.K.~./.[.E.A.i.:.] V.:.=.Q ` / T Y j f e f f 2 < e Y ^ h b T 8 1 2 f W 2 3 8 3 2 3 h m J fX",
"fX$X#.~ g._ +.V u l k c ; = u U.uXeX+X.X_.1XwX_.A.:.:./ =.i.' Q ` Q Q l g f e 8 g e < 8 h M Y l b 2 % % 8 M 3 3 2 8 , 3 3 j K fX",
"fX&Xw._ B.t.] / n Z b u q = i v.rX{.OXXXwX4X4X>X/.F.p.' =.' ' =.( ` M l i e 2 e y < % 2 8 f W f 8 < % , 2 8 8 8 3 1 # 1 b h &.2.",
"fX$X>.u.a.-.Z.t.Q W M E o.S E U.wXOX+X4XyXaXsXsX1X).C.d.) ) ( Q Q Q n t e e 5 O @ # @ 4 8 e f e e % # % % 8 8 1 8 2 , 8 R c 2.@X",
"fXfX| ;.u.s.V.N.p._ W 8.u.u.J.).eXrXyXyX4X8XaXsX5X).U.k.R W Q T ~ V b r < O o . o o @ < e 8 t t % O O # 1 8 2 3 d m b U { N 4.fX",
"fXfXH } 7.k.J.Q.A.t.) t.:.V.OXXXtXuXuX1X3X0XaX4X5X=Xn.m.@.E f g V g r - . > > > > > O % % , f < @ + + @ % 8 1 8 d m U m Y C fXfX",
"fXfXJ A 7.5.U.H.M.V._ ] :.N.Q.XXtXuXeX.X<X:X3X2X2XoXm.k.5.,.e - 6 6 & . & . > > > . # % % % 2 % O o $ # % 8 8 d 7 d m h m H fXfX",
"fXfXK B Q } q.a.M.H.-.i.a.L.^.OX2XtXwX XoX;X;XoXY.Y.e.,.o.1.z % * o > . > O . . . o @ O % < % O O $ # @ 1 8 8 2 1 7 h f c %.fXfX",
"fXfXP x Z W -.D.K.F.=.-.:.S.(.[.^.-X`.OX).=X,X`.U.J.0.X.T A g = o > > > > & > o o . o # < , , , $ $ , 1 3 d 3 1 1 7 d d x &.fXfX",
"fXfXK F C ' t.V.(.g.=.=.Q y.W.Q.V.Q.`.^.`.2X<X-XU.c.s.@.A l i < & o   & > >   > o O O O @ , 2 e 3 1 1 2 3 d 3 2 1 7 7 7 x fXfXfX",
"fXfXfXK A i.G.M.A.] T ` Q _ u.V.' h.~.`.-X1X3X,Xv.h.0.,.} A n i 6 * & >   . . . o . O o O % 2 t d d h 3 1 3 1 3 3 8 3 7 G fXfXfX",
"fXfXfX&.[ ;.i.Q.=.l n Z k n T =.] V.~.T.-X,X5X-Xg.t.r.<.,.E T T Y e * O o o O . . . o @ % < t h W M 8 1 , 1 , 2 1 8 3 7 &.fXfXfX",
"fXfXfXfX$.X./ u.:.l l g e b h Q p.U.,XqXqX3X<X_.V.i.8.r.0.X._ _ ' / k 2 5 , < @ . o @ # 6 2 2 t V T 8 # % , # 1 , 7 y F fXfXfXfX",
"fXfXfXfX3.[ ( _ B.) b r 9 g l n a.).0X0XdXsX1X.X).I.g.u.8._ =.=.9.q.7./ n f 5 @ o . $ % 2 < 2 8 8 f % % % , # $ 2 c x &.fXfXfXfX",
"fXfXfXfXfX&.V / i.] _ Z r k k k t.W.3X0X0XiX,X>X,X X~.D.h.V.V.t.P.T.R.c.Z f 5 O o o o $ % % , 8 f 8 # # % $ X % B H ..fXfXfXfXfX",
"fXfXfXfXfX..F c Q n -.B.` M l b t.H.2X8X0X5X1X1X2X2X).J.J.g.y.g.P.R.=X%X0.f < o . . . + @ @ , f 8 1 # $ @ X X r | { 4.fXfXfXfXfX",
"fXfXfXfXfXfXJ x l V ] A.V._ Q T 9.(. X7XaX3X3X3X2X2X XC.g.8.t.D.|.Y.U.v.z.n = o o O .   + O , t d 2 1 $ X X $ v [ 3.fXfXfXfXfXfX",
"fXfXfXfXfXfXfXL c T / -.E.S.-.=.D.W.H.2X8XaX8X8X3X2X,XY.s.q.7.r.h.f.y.a.f.~ 5 o + X o o $ % 7 V Q h 8 % + $ u { 1.fXfXfXfXfXfXfX",
"fXfXfXfXfXfXfX..H R _ ^ a.!._._.OX(.a.J.1X4X4X9X7X3X2X XY.f.k.k.<.+.T ) +.7.g , @ O # , 2 t T +.+.n 8 % X 7 | 1.l.fXfXfXfXfXfXfX",
"fXfXfXfXfXfXfXfX3.X.T n ' _ g.~.rX^.p.-.Y.9X1X5X7X9X5X;XoXb.m.k.o.Z m b b _ T t < < 2 3 e V / Y M f , $ 6 C o.l.fXfXfXfXfXfXfXfX",
"fXfXfXfXfXfXfXfXfXj.[ l W W T t.^.[.Z.i.D. X4X9X9X7X7X7X;X=Xz._ ` W M b b U T W b h h b I m j 8 h 3 2 t m [ j.fXfXfXfXfXfXfXfXfX",
"fXfXfXfXfXfXfXfXfXfX3.[ T ^ n W V._.A.a.p.D.<X8X8X7X7X7X>XJ._ / _ ,./ Y M Q ' ' ;.7.^ b 7 2 f h 3 , 7 b R $.fXfXfXfXfXfXfXfXfXfX",
"fXfXfXfXfXfXfXfXfXfXfXj.| R l k / i.K.A.p.' |.<X3X2X X).g.' ' ( ( _ Q ( O.q.h.9.+.Q j t , % 2 2 % 1 g B $.fXfXfXfXfXfXfXfXfXfXfX",
"fXfXfXfXfXfXfXfXfXfXfXfXl.#.A Z ) -.t.] W ( a.;XY.J.-.^ T Z W =.y.( ' 9.;.` n t f ^ f , # , # $ # u H &.fXfXfXfXfXfXfXfXfXfXfXfX",
"fXfXfXfXfXfXfXfXfXfXfXfXfXfX$.} [ / T T Y T ) g.=.m g i i y h ` +.+.] =.Q / b t 2 e % @ % $ o 4 g L 4.fXfXfXfXfXfXfXfXfXfXfXfXfX",
"fXfXfXfXfXfXfXfXfXfXfXfXfXfXfXj.#.X._ / W T O.y.l b / 8.` +.X.H ..>._ 8._ Z c y < % , , % % k S &.fXfXfXfXfXfXfXfXfXfXfXfXfXfXfX",
"fXfXfXfXfXfXfXfXfXfXfXfXfXfXfXfXfXw.w.;.-.y.:.I.C.] _ ! l 5 5 s S | ,.7.+./ Z N u e < 9 p  .3.fXfXfXfXfXfXfXfXfXfXfXfXfXfXfXfXfX",
"fXfXfXfXfXfXfXfXfXfXfXfXfXfXfXfXfXfXfXz.d.d.-.;.8.R y # = O % , y c E _ 7.+.` E A S v J 3.fXfXfXfXfXfXfXfXfXfXfXfXfXfXfXfXfXfXfX",
"fXfXfXfXfXfXfXfXfXfXfXfXfXfXfXfXfXfXfXfXfXz.w.} Z B c e 9 5 5 r u C { ;.=.;.>.#.#.$.3.fXfXfXfXfXfXfXfXfXfXfXfXfXfXfXfXfXfXfXfXfX",
"fXfXfXfXfXfXfXfXfXfXfXfXfXfXfXfXfXfXfXfXfXfXfXfX6. .F p p x G J ..#.7.7.7.j.z.x.fXfXfXfXfXfXfXfXfXfXfXfXfXfXfXfXfXfXfXfXfXfXfXfX",
"fXfXfXfXfXfXfXfXfXfXfXfXfXfXfXfXfXfXfXfXfXfXfXfXfXfXfXfXfX&.4.#X$Xx.fXfXfXfXfXfXfXfXfXfXfXfXfXfXfXfXfXfXfXfXfXfXfXfXfXfXfXfXfXfX",
"fXfXfXfXfXfXfXfXfXfXfXfXfXfXfXfXfXfXfXfXfXfXfXfXfXfXfXfXfXfXfXfXfXfXfXfXfXfXfXfXfXfXfXfXfXfXfXfXfXfXfXfXfXfXfXfXfXfXfXfXfXfXfXfX"
};
