/* XPM */
static char *_f48ba595c7742a3afe52709ca9c3b1etXcU3FKxayVe1ZrM[] = {
/* columns rows colors chars-per-pixel */
"32 32 179 2 ",
"   c None",
".  c #2C2B3C",
"X  c #3C2C3C",
"o  c #392739",
"O  c #3A313F",
"+  c #422C3A",
"@  c #4D2A37",
"#  c #45303D",
"$  c #52313C",
"%  c #55383C",
"&  c #722D36",
"*  c #65353D",
"=  c #7B333B",
"-  c #753B3D",
";  c #7B3B3F",
":  c #7F403F",
">  c #73413E",
",  c #2C2F41",
"<  c #3F2F40",
"1  c #3D3241",
"2  c #402E41",
"3  c #423443",
"4  c #443A46",
"5  c #4C3946",
"6  c #453C49",
"7  c #493C4B",
"8  c #5D3D47",
"9  c #553646",
"0  c #643442",
"q  c #623D43",
"w  c #7B3441",
"e  c #7D3943",
"r  c #773340",
"t  c #3F4150",
"y  c #4C444F",
"u  c #5A424D",
"i  c #4F4351",
"p  c #554553",
"a  c #5A4050",
"s  c #564A55",
"d  c #544B5B",
"f  c #5B4E5B",
"g  c #5D525D",
"h  c #664244",
"j  c #6C4545",
"k  c #64434A",
"l  c #6A4249",
"z  c #6A4B4D",
"x  c #774448",
"c  c #614955",
"v  c #60545F",
"b  c #5E5664",
"n  c #5F5862",
"m  c #615562",
"M  c #6F5565",
"N  c #635965",
"B  c #6A5967",
"V  c #655C6A",
"C  c #6A5D6A",
"Z  c #735B6C",
"A  c #795A6C",
"S  c #745667",
"D  c #7E5F73",
"F  c #62646A",
"G  c #6B626D",
"H  c #66686E",
"J  c #6C6B71",
"K  c #6F6771",
"L  c #746471",
"P  c #7A6474",
"I  c #736A74",
"U  c #786A79",
"Y  c #6E7279",
"T  c #7D727F",
"R  c #AA0B1F",
"E  c #970F21",
"W  c #841C2C",
"Q  c #B40E20",
"!  c #B91C28",
"~  c #852D32",
"^  c #853C3E",
"/  c #8D3739",
"(  c #99383A",
")  c #B7232B",
"_  c #BA222B",
"`  c #A52430",
"'  c #A33B3A",
"]  c #B43B33",
"[  c #B93738",
"{  c #C11E29",
"}  c #C4262A",
"|  c #CA2A2C",
" . c #CE372F",
".. c #CC3631",
"X. c #CE3B34",
"o. c #D33431",
"O. c #D73C34",
"+. c #85403F",
"@. c #A7423C",
"#. c #CA4538",
"$. c #C9483D",
"%. c #D34438",
"&. c #DE4B38",
"*. c #EF4D38",
"=. c #E54A38",
"-. c #E5503C",
";. c #813D42",
":. c #9F394C",
">. c #854240",
",. c #8C4647",
"<. c #985456",
"1. c #A74449",
"2. c #B74B47",
"3. c #BC5758",
"4. c #BA605F",
"5. c #AB5E6C",
"6. c #826475",
"7. c #8A6B7E",
"8. c #85677A",
"9. c #956670",
"0. c #B7767C",
"q. c #D74E41",
"w. c #D95C4C",
"e. c #D75546",
"r. c #C8706D",
"t. c #D07F79",
"y. c #8E6D82",
"u. c #906F84",
"i. c #857282",
"p. c #8E7384",
"a. c #897986",
"s. c #927386",
"d. c #947689",
"f. c #9A7A8D",
"g. c #967C8F",
"h. c #9D7E91",
"j. c #977E91",
"k. c #A1778B",
"l. c #A27E93",
"z. c #8D878F",
"x. c #8E8892",
"c. c #958C96",
"v. c #988299",
"b. c #98949A",
"n. c #A28295",
"m. c #A68499",
"M. c #AD8A9F",
"N. c #AB879D",
"B. c #AD909C",
"V. c #AE8CA1",
"C. c #B18EA3",
"Z. c #AE93A6",
"A. c #B494A5",
"S. c #B796AB",
"D. c #B69BA9",
"F. c #B89DAB",
"G. c #BC9DB1",
"H. c #A7A2A9",
"J. c #B6B4BA",
"K. c #C6ACBC",
"L. c #C9ADBE",
"P. c #BEBCC0",
"I. c #C7C4C6",
"U. c #CECED1",
"Y. c #D3D1D5",
"T. c #DAD7DA",
"R. c #DCDBDD",
"E. c #DFDEE0",
"W. c #DCE2E7",
"Q. c #EBEAEC",
"!. c #E5E8E9",
"~. c #EFEFF0",
"^. c #E4ECF0",
"/. c #F0EFF1",
"(. c #F4F4F4",
"). c #F4FAFB",
"_. c white",
"`. c #FDFEFE",
"'. c #FDFDFE",
/* pixels */
"                                                                ",
"                                                                ",
"                                                                ",
"                          n.d.m.A.M.L.                          ",
"                        y.y.y.y.C.V.V.G.                        ",
"                    p.p.7.y.s.D 8.A.C.C.m.A.                    ",
"          8       P Z 8.7.8.a L I 9 f.m.y.y.n.      0 F         ",
"          l `     Z Z Z 7.X s _._.m 5 u s.y.s.V.  W r F         ",
"          l )   Z Z Z Z + ~.G )._.N Q.p M s.y.d.  E r F         ",
"          l } 5.Z.M Z # g g 1 g g 3 g F + A y.m.k.R w F         ",
"          k | [ G.f.# y _._.C _._.N `._.G 5 6.S.:.Q w F         ",
"          l l $ V.A I.7 _._.C _._.N _._.N Y.c S.9 8 e F         ",
"          l * @ 6.# 3 o X 3 X 3 3 1 4 6 1 y 4 S @ $ w F         ",
"          l o.o.~ )._.3 _._.C _._.N _._.m _._.0 { ! w F         ",
"          l ....2._._.3 _._.V _._.N (._.g (._.0.! _ w           ",
"          l X.X.[ b B X C C 4 G G 6 G J 6 G J ( _ _ e H         ",
"        i.h O.X.$._._.1 _._.N _._.m (._.g (._.1.) } ; U         ",
"        U j x 1 1 _._.3 _._.C _._.N `._.v )._.d O u ^ I         ",
"      h.L j ; - / d f X m m 3 m N 4 n V 6 N F = & * ;.G n.      ",
"      Z B j ,.#.q.^.).X ).(.n /.(.g E.).f R.).3.| ;.x n Z       ",
"      Z B z t ^ e._._.3 _._.C _._.N _._.v `._.3.( t k m Z       ",
"        G j / @.$.V C 2 G G 7 G K 7 G I y J Y 1.' = ;.G         ",
"          l #.%.e.W.Q.X Q.Q.g !.Q.f Y.Q.s Y.^.4...[ +.T         ",
"        a.h -.&.w._._.3 _._.C _._.N `._.g )._.r. .O.>.I         ",
"      C.j.h -.2.q x.c.< c.c.i c.c.i z.b.i z.b.c ( %.>.C y.      ",
"      V.g.j z , 5 T.T.p T.T.C T.T.V I.R.g U.R.B . y ,.B y.      ",
"    n.f.i.j : @.w._._.J._._.P._._.P._._.H._._.t.] - >.G d.h.N.  ",
"  y.7.y.P q *.#.<.D.A.A.F.K.K.K.K.K.L.B.A.A.D.9.] =.>.C u.y.7.  ",
"    h.m.P % <.U d.p.s.s.n.m.n.n.l.m.m.M.l.l.l.m.v.<.> N h.d.s.  ",
"                                                                ",
"                                                                ",
"                                                                "
};
