/* XPM */
static char *cb2c3b5375c1447fc8c1630b507554c7FVoxhszc0JScV2PW[] = {
/* columns rows colors chars-per-pixel */
"64 64 225 2 ",
"   c #06000E",
".  c #000006",
"X  c #070011",
"o  c #090016",
"O  c #0D0816",
"+  c #0A0019",
"@  c #0E0A19",
"#  c #10061D",
"$  c #120C1D",
"%  c #16111E",
"&  c #0D0023",
"*  c #0F0028",
"=  c #0E0D24",
"-  c #110125",
";  c #150C22",
":  c #190F24",
">  c #11002A",
",  c #14092A",
"<  c #190B2B",
"1  c #180726",
"2  c #161224",
"3  c #1A1324",
"4  c #1C1926",
"5  c #191529",
"6  c #1D1A2C",
"7  c #16152B",
"8  c #1C1D34",
"9  c #211625",
"0  c #221925",
"q  c #24192B",
"w  c #2A1C2D",
"e  c #21152B",
"r  c #280D34",
"t  c #291936",
"y  c #3A1E37",
"u  c #200B2D",
"i  c #1F202F",
"p  c #28212F",
"a  c #242433",
"s  c #24283C",
"d  c #2B2939",
"f  c #332234",
"g  c #34243A",
"h  c #3A253C",
"j  c #332A3A",
"k  c #4C1E3C",
"l  c #41243E",
"z  c #331B47",
"x  c #370F48",
"c  c #272B45",
"v  c #392446",
"b  c #333646",
"n  c #3B2651",
"m  c #293556",
"M  c #2D2E50",
"N  c #313A65",
"B  c #431D4D",
"V  c #432B42",
"C  c #4A2C46",
"Z  c #4B2D49",
"A  c #462643",
"S  c #4D314B",
"D  c #4A3246",
"F  c #53324E",
"G  c #5C2E51",
"H  c #563554",
"J  c #5B3B57",
"K  c #5C3B5A",
"L  c #5A3655",
"P  c #542F4F",
"I  c #692B54",
"U  c #752756",
"Y  c #633D5D",
"T  c #6A345C",
"R  c #74315E",
"E  c #6C244E",
"W  c #561B6A",
"Q  c #611E6F",
"!  c #553962",
"~  c #663E60",
"^  c #6B3E64",
"/  c #783967",
"(  c #75336F",
")  c #374455",
"_  c #364667",
"`  c #3F5A7B",
"'  c #474859",
"]  c #544A5B",
"[  c #4E5964",
"{  c #45536F",
"}  c #51596A",
"|  c #534D70",
" . c #6C4265",
".. c #6C4569",
"X. c #674364",
"o. c #73446C",
"O. c #75486E",
"+. c #75426B",
"@. c #6A4C74",
"#. c #794771",
"$. c #7D4A75",
"%. c #7D4E78",
"&. c #754B75",
"*. c #78507E",
"=. c #55626B",
"-. c #5C6975",
";. c #62727B",
":. c #636B78",
">. c #82265E",
",. c #892D64",
"<. c #89356A",
"1. c #93336D",
"2. c #96356F",
"3. c #9F2F70",
"4. c #9A3A77",
"5. c #9A3977",
"6. c #A62E72",
"7. c #A33C7D",
"8. c #AA3379",
"9. c #B62F7B",
"0. c #814B77",
"q. c #834D7A",
"w. c #894D7D",
"e. c #88437C",
"r. c #83507C",
"t. c #89517F",
"y. c #A04079",
"u. c #43558B",
"i. c #785991",
"p. c #516E93",
"a. c #636B96",
"s. c #6E7787",
"d. c #557BAB",
"f. c #5179B3",
"g. c #813293",
"h. c #A53E81",
"j. c #AD3E82",
"k. c #B33D85",
"l. c #B93B86",
"z. c #BB3D89",
"x. c #BE3483",
"c. c #A239BF",
"v. c #C43B8B",
"b. c #CB3B8E",
"n. c #CC368B",
"m. c #D1398F",
"M. c #D33B92",
"N. c #DC3B95",
"B. c #D83E98",
"V. c #CD3D90",
"C. c #E23996",
"Z. c #E33C99",
"A. c #E93C9D",
"S. c #E03794",
"D. c #ED3EA1",
"F. c #F23EA3",
"G. c #8C4E82",
"H. c #9D498C",
"J. c #8C5382",
"K. c #875784",
"L. c #97588B",
"P. c #9E5E91",
"I. c #AB4084",
"U. c #B44086",
"Y. c #B64188",
"T. c #BC408A",
"R. c #A25E95",
"E. c #8E6694",
"W. c #946C9B",
"Q. c #926E97",
"!. c #A7619A",
"~. c #9D4AB3",
"^. c #AB57BF",
"/. c #9375A9",
"(. c #C2418E",
"). c #C64493",
"_. c #CB4695",
"`. c #CE4699",
"'. c #CF489A",
"]. c #D54197",
"[. c #D14599",
"{. c #DB459B",
"}. c #E2429D",
"|. c #EA43A4",
" X c #EC47A8",
".X c #E740A0",
"XX c #F142A6",
"oX c #F544A9",
"OX c #FC42AB",
"+X c #F449AD",
"@X c #FF44B0",
"#X c #FB48B1",
"$X c #BA55D2",
"%X c #AC4EC4",
"&X c #AE60C3",
"*X c #CA45EB",
"=X c #D257EE",
"-X c #D45AF0",
";X c #C850E9",
":X c #D769EF",
">X c #76878D",
",X c #71848D",
"<X c #5B80AA",
"1X c #7A90BA",
"2X c #558DC3",
"3X c #59A4E9",
"4X c #6EB4F3",
"5X c #7AB9F3",
"6X c #76B5F4",
"7X c #63ADF2",
"8X c #AF8FB7",
"9X c #8A97C7",
"0X c #9B94E1",
"qX c #97ACE8",
"wX c #A9A0EA",
"eX c #B294E5",
"rX c #C38DDC",
"tX c #D29FEA",
"yX c #F4B4EF",
"uX c #F5AEF0",
"iX c #F4B4F0",
"pX c #F5BCF2",
"aX c #F3AEEF",
"sX c #90C9EF",
"dX c #F8C8F6",
/* pixels */
"+ + + + + + + + + + + + + + + + + + + + + + + + + + + + + + + + + + + + + + + + + + + + + + + + + + + + + + + + + + + + + + + + ",
"+ + + + + + + + + + o o o o + + + + + + + + + + + + + + + + + + + + + + + + + + + + + + + + + + + + + + + + + + + + + + + + + + ",
"+ + + + + + + o o o o o o o o o o + + + + + + + + + + + + o o o + + + + + + + + o o o o o + + + + + + + + + + + + + + + + + + + ",
"+ + + + + o o o o o o o o o o o o o o + + + + + + o o o o o o o o o o o o + + o o o o o o o o o + + + + + + + + + + + + + + + + ",
"+ + + + o o o o o o o o o o o o o o o o o + + + o o o o o o o o o o o a 5 o o o o o o o o o o o o + + + + + + + + + + + + + + + ",
"+ + + o o o o o o o o o o o o o o o o o & > > - o o o o o o o o o + & & o o o o o o o o o o o o o o + + + o X + + + + + + + + + ",
"o X o o o o o o o o o o o o o o X o o o * > > > + o o o o o o o o > > > & o o o o o o o o o o o o o o + o d -.+ + + + + + + + + ",
"# -.2 o o o o o X X o o o X o X b o o o * > > > + o o o o o o o + > - > - o o o o o o o o o o o o o o o o b ,X+ + + + + + + + + ",
"2 >X6 o o o o X o + + + + + X o X o o o o - * + X o o o o o o o o > > - + o o o o o X X X o o o o o o o o o o * > > + + + + + + ",
"o X o o o o X X + + + + + + + X X X o o o o o 6 b X o o o o o o o + + + o o o o X X X   X X X ; o o o o o o & * - > + + + + o o ",
"o o o o o X X o + + + 2 + + + X X X q o + 6   [ >Xo o o o o o o o o o o o o o o X X 2 d X X o 1Xc o o o o o & * * > + + + o o o ",
"o o o o X X X o + + 8 b + + + X X o pXo o o o X + o o o o o o o o o o o o o o o X o =.=.a p 9XqX0X/.o o o o o & & + o o o o o o ",
"o o o X X X X o + + + + + + + # t W.pX*.t + o # o o o o o o o o o o o o o o o o X X [ [ 2 X a.qXeX: o o o o o o o o o o o o o o ",
"o X X X X X X   + + + + + + + W.uXiXdXiXuX@.o # o o o o o o o o o o o o o o o o X X     X + a.s.f.c o o o # 3 p ; o o o o o o X ",
"X X X X X X X X X o + + + + + + i.iXpXiXX.5 o o o o o o o o o o o o o o o o o o X X X + + + + o X X O t S ^ q.w.O.q o o o X 5 # ",
"X X X X X X     X   X X + + + + @.yXdXyXv X 5 o o o o o o o c c o o o o o o o o X X X + + + + o $ f ^ K Z F A H.e.q o X X X X X ",
"X X X X X         X     @ @ + + E.E.X W.E.5 o o o o o o o ; 4X6X@ o o o o o o o X X X + + + : v Y ~ Y L.R.!.F H.^ + X X X X X X ",
"X X X X X c 1X7   X         X X X X X X o c + o o o o o o o _ { o o o o o 2 o o X X X o : V  .o.$.L.w.r.G.t./ H.9 X X X X X X X ",
"X X X X   d.4X8             X X X X X X X o o o o o o o o - > > - o o o 6 ;.'   X X @ h  .#.$.J.$...#.$.q.Y H.Z X X X X X X   X ",
"X X X X X c c O             X X X X X X o o o o o o o o o - < t v h q + ; -.'   X 9  .#.q.q.O.Y C D Y #.o.L.T @ X X X X X   6 O ",
"X X X X X X                 X X X X X o o o o o o o o g A / 4.5.j.k.8.j.1.C ; 3 K $.q.q.O.Y V h w J o.$.w.#.O $ O     X X X   X ",
"X X X X X X                 X X X X X o o o o o o g / 5.7.j.I.Y.T.j.T._.[.{.n.<.O.J.$.X.V f h h S  .0.O.q.3               X X X ",
"  X X X X X X X           X X X X X o o o o o # G 5.I.h.h.I.Y.T.k.Y.T.(._.Z.C.B.z.H h 0 4 0 h V  .q.O.t.q                   X X ",
"X X X X X       X X X X X X X X X X o o o o + T h.7.h.I.I.T.T.k.z.Y.z.).{.Z.v.}.+XM.4 X X % V  .%. .G.f                     X X ",
"X X X   X o d X   X X X X X X X X o o o o o T 5.7.I.I.U.T.T.j.Y.Y.Y.(.{.Z.M.v.Z. XOXb.+ o f  .q.+.w.9                         X ",
"X X X X + + s.} X   X X X X X X X X o o o y I.I.I.I.Y.Y.T.j.Y.Y.T.T.{.Z.C.k.C.S.|.oXOX,.p +.q.+.q.0                           X ",
"X X X X + + ' , X X X X X X X X o & + o 5 5.I.I.U.Y.Y.k.j.T.Y.T.(.[.Z.Z.k.C.C.}. XoX|.3. .q.#./ % 3                             ",
"X X X X + & + + X X X X X X X X o & + o P I.I.Y.Y.T.k.k.T.T.T.).'.].Z.l.M.C.C.Z. X|.x.J %.0.^ $   O             X o o           ",
"X X X X X o + X X X X X X X X X X X o 5 2.Y.Y.T.k.j.Y.T.Y.(._.[.B.Z.l.N.C.C.C..X Xx.J 0.$.F o X     H         X o o +           ",
"X X X X X X X X X X X X X X X X o o o w (.Y.k.k.k.T.Y.z.).`.].B.Z.l.M.C.C.C.Z.oX6.Y $.$./ l X X   K.aXj       X o o X b .       ",
"X X X X X X X X X X X X X B X X X ; o P z.k.k.T.Y.z.T._.[.].N.C.k.N.C.C.C.Z.oX3.X.%.%.R OX/ + +   ' Q.          o 5 } >X[       ",
"X X X X X X X X X X X # x ;X! t X o o <.T.T.T.(.)._.`.].B.C.m.l.C.C.C.C.Z.OX,.&.$.$.2.OXoX<.& & o                 O a >X.       ",
"X X X $ $ X X X X X X + $X-X:Xt o o o 5.{.].].[.[.].B.N.N.l.v.Z.C.C.N.D.D.I %.#.o.6.@XXX}.2.& & +                   . @       X ",
"X X X X X X X X X X X X g.%X&XX o o + U.}.[.`.].B.N.N.v.l.C.C.C.C.C.OXn.L r.%.T N.@X XM.M.,.& & o X             O =           X ",
"X X X X X X X X X X X X r X e o X o o y.}.N.C.N.M.v.z.N.C.C.C.C.A.OX6.K q.#./ A.OX|.M.b.C.<.+ o X X           X _ p.X         X ",
"X X X X X X   X X X X X X + & & + o + <.A.M.l.z.v.C.C.N.Z.|.C.XXOXE ..%.O.1.OXoX|.M.v.C.A.U X X X X X         <X5X7X2X      X X ",
"X X X X X   5 X X X X X X + + & & + Y / b.b.C.C.C.N.Z.|. XA.OX9.F r.J.Y x.@X XZ.V.b.C.C.M.V # + X X X X       @ 4X6Xs       X X ",
"X X X X X   7 X X X X X X + & & - ~ o.X.C.C.Z.Z.D.OXOXXXXXF.U ..t.J.I |.+X|.Z.v.m.C.C.M.5.$ i 4   X X X X     8 m c )     X X X ",
"X X X X X X X X X X o o o o & ;  ...J.g 8.OXOXOXOXoXXXOX6.C K.$. .,.#X XZ.N.z.N.C.C.v.Y.I X o X X X X X X X X X X X X X X X X X ",
"X X X X X o o X X o o o o o 3 o.o.J.H 0 l @XOXOXoXXXM.k J J.#.T m.+X|.C.M.v.B.`.'.T.Y.7.3 X X X X X X X X X X X X X X   X X X X ",
"X X X X + & z & o o o o o q O.O.r.J w b o 8.OX|.b.E V J.0.^ ,.OXoXZ.N.v.).`.`._.k.Y.z.y X X X X X X X X X X X X X X X 4 X X X X ",
"X O X X + n wXi.+ o o o w $.O.q.J V d =.o 3 b.U C #.q.o.R n.OXF.Z.b.(.`.[.`.T.k.Y.T.I X X X X X X X X X X X X X X X X X X X X X ",
"X 5 O X + * qXu.+ o o : $.o.t.K Z h 3 $ 3 w S #.0.%.Y 3.OXOXA.N.v._.[.`.(.k.Y.(.k.I o X X X X X X X X X X X X X X X X X X X X X ",
"X X X X X & & + o o $ #.+.J.Y F h h f Z ^ w.w.O.$.T N.OXF.Z.b.M.[.`.).z.I.T.z.2.w o X X X X X X X X X X X X X X X X X X X X X X ",
"X X X X X X o o o + o.o.J. .X.Z S J  .q.q...J. .q I B.D.M.N.Z.{.`.(.T.j.5.R v o o o X X X X X X X X X + + X X X X X X X X X X X ",
"X X X X X o o o # ^ O.t.O.Y ~ X. .q.q.#.0.q.v + o o ; k E >.1.2.<.R T Z e o + o o X X X X X X X X X X + + X X X X X X X X X X X ",
"X X X X X o o X F $.+.L. .#.0.J.0. .%.q.C # o o o o o o + o o : : o o o o o o * * + X X X X X X X % X X X X ; X X X X X X X X X ",
"X X X X X o X g J.L R.L.L.P. .o.#.q.S ; o o o o + o o p.` o o o o o o o o o & > & + + X X X X X X X X X X X %Xu X X X X X X X X ",
"X X X X X o O ^ w.V #.Y J ^ G.0.H e o o o o o o o ; sX5X3X3X= o o o o + + o & & & & + X X X X X X X X X X r *X~.X X X X X X X X ",
"X X X X X o g 0.q.J.J.L.G.+.C 5 o o o o o o o o o + M 5X5X: + + o o o o + + + & * & o o X X X X X X X Q =X-X-X=X=X$XX   X X X X ",
"X X X X o o q q.0.q.^ H g : o o o o o + o o o o o - { d.f.m o + o + o o o + o o + o o X X X X X X X X X W *X*X:X%XX 5 6 X X X X ",
"X X X X o o o 3 q # < * * * + o o o o o + o o o o - > > > + + + o o o o + + + o o o X ; + X X X X X X X r -X:X=Xg.o - , X X X X ",
"X X X o o o o o & n 8Xn * - + + o o + o + + + + o o * > & o o o o o o o + + o + N M # 2 X o X X X X X X W c.z ( ^.+ + & + X X X ",
"X X o o o o o o & W.iX*.* * + o X o + o + + o o o o 6 o o o o o o o o + + + + ; tXrX6 6 a o o o X X X o 1 X X X 1 + + & + X X X ",
"o o o o o o o o & z ! r * * + 5 :.b o + o o o o o o o o + + o o o o + + + + + + n n o o o o o o o o X X X X X X X + + & + X X X ",
"o o o o o o o o + * * * > & o o d + o + o o o o o o o o o + o o + + + + + + + + + + o o o o o o o o X ; X o o X X X o o o o o o ",
"o o o o o o o + + o + + + + + + o o + > & o + o o o o o o o o o + + + + + + + + + + + o o o o o o o o ;.7 X o o o o o o o o o o ",
"o o o o o o + + + + + + + + + + + + + > + + + o o o o o + o o o + + * > * + + + + + + + o o o o o o o b @ o o o o o o o o o o o ",
"o o o + + + + + + + + + + + + + + + + + o + + + + + + o o o o o + & * * * & + + + + + + + + o + o o o X o o o o o o o o o o o o ",
"o o + 2 o + + + + + + + + + + + + + + + + + + + + + + + + + o o + * * * * & + + + + + + + + + * + o o o o o o o o o o o o o o o ",
"+ + + o + + + + + + + + + + + + + + + + + + + + + + + + + + + + + + > * , ; + + + + + + + + + + + + + + o o o o o o o o o o o + ",
"+ + + + + + + + + + + + + + + + + + + + + + + + + + + + + + + + + + + + @ @ + + + + + + + + + + + + + + + + + + + + + + + + + + ",
"+ + + + + + + + + + + + + + + + + + + + + + + + + + + + + + + + + + + + + + + + + + + + + + + + + + + + + + + + + + + + + + + + ",
"+ + + + + + + + + + + + + + + + + + + + + + + + + + + + + + + + + + + + + + + + + + + + + + + + + + + + + + + + + + + + + + + + "
};
