/* XPM */
static char *f4a9eba0cc214158aec5f6036b3da7deiexAOaNj69sQnz0n[] = {
/* columns rows colors chars-per-pixel */
"64 64 93 2 ",
"   c #020006",
".  c #06000E",
"X  c #08000F",
"o  c #070011",
"O  c #090016",
"+  c #0D0916",
"@  c #0A0019",
"#  c #0E0B1A",
"$  c #10071E",
"%  c #110B1E",
"&  c #14101F",
"*  c #0D0023",
"=  c #0F0028",
"-  c #100025",
";  c #130D21",
":  c #11002A",
">  c #14092A",
",  c #171125",
"<  c #161127",
"1  c #171525",
"2  c #141121",
"3  c #181623",
"4  c #181226",
"5  c #191327",
"6  c #191526",
"7  c #191427",
"8  c #191727",
"9  c #1B1726",
"0  c #191726",
"q  c #1A1827",
"w  c #1B1927",
"e  c #151029",
"r  c #171228",
"t  c #181328",
"y  c #191528",
"u  c #1A1729",
"i  c #1B172B",
"p  c #1B1929",
"a  c #1D182B",
"s  c #1F1E2B",
"d  c #1E1A2C",
"f  c #1E1A2D",
"g  c #1F1A2D",
"h  c #1E1B2D",
"j  c #1C1132",
"k  c #1D1A32",
"l  c #1F202F",
"z  c #242333",
"x  c #232631",
"c  c #262536",
"v  c #242235",
"b  c #282638",
"n  c #272838",
"m  c #282938",
"M  c #2B293D",
"N  c #2B2B3E",
"B  c #2E2D3F",
"V  c #2B2844",
"C  c #2F3342",
"Z  c #303241",
"A  c #323643",
"S  c #323345",
"D  c #333946",
"F  c #353748",
"G  c #343749",
"H  c #36384D",
"J  c #353848",
"K  c #424459",
"L  c #454D59",
"P  c #464E5A",
"I  c #454E5B",
"U  c #49535D",
"Y  c #4D5961",
"T  c #4E5865",
"R  c #4F5B66",
"E  c #505769",
"W  c #525B6A",
"Q  c #54616A",
"!  c #55626B",
"~  c #55626B",
"^  c #576470",
"/  c #5A6773",
"(  c #5C6A76",
")  c #5D6B77",
"_  c #626D79",
"`  c #63737D",
"'  c #607079",
"]  c #6E7787",
"[  c #6E8089",
"{  c #748489",
"}  c #74858E",
"|  c #7B8B8F",
" . c #748891",
/* pixels */
"@ @ @ @ @ @ @ @ @ @ @ @ @ @ @ @ @ @ @ @ @ @ @ @ @ @ @ @ @ @ @ @ @ @ @ @ @ @ @ @ @ @ @ @ @ @ @ @ @ @ @ @ @ @ @ @ @ @ @ @ @ @ @ @ ",
"@ @ @ @ @ @ @ @ @ @ O O O O @ @ @ @ @ @ @ @ @ @ @ @ @ @ @ @ @ @ @ @ @ @ @ @ @ @ @ @ @ @ @ @ @ @ @ @ @ @ @ @ @ @ @ @ @ @ @ @ @ @ ",
"@ @ @ @ @ @ @ O O O O O O O O O O @ @ @ @ @ @ @ @ @ @ @ @ O O O @ @ @ @ @ @ @ @ O O O O O @ @ @ @ @ @ @ @ @ @ @ @ @ @ @ @ @ @ @ ",
"@ @ @ @ @ O O O O O O O O O O O O O O @ @ @ @ @ @ O O O O O O O O O O O O @ @ O O O O O O O O O @ @ @ @ @ @ @ @ @ @ @ @ @ @ @ @ ",
"@ @ @ @ O O O O O O O O O O O O O O O O O @ @ @ O O O O O O O O O O O c 5 O O O O O O O O O O O O @ @ @ @ @ @ @ @ @ @ @ @ @ @ @ ",
"@ @ @ O O O O O O O O O O O O O O O O O * : : - O O O O O O O O O @ * * O O O O O O O O O O O O O O @ @ @ O o @ @ @ @ @ @ @ @ @ ",
"O o O O O O O O O O O O O O O O o O O O = : : : @ O O O O O O O O : : : * O O O O O O O O O O O O O O @ O N ) @ @ @ @ @ @ @ @ @ ",
"$ / , O O O O O o o O O O o O o Z O O O = : : : @ O O O O O O O @ : - : - O O O O O O O O O O O O O O O O S [ @ @ @ @ @ @ @ @ @ ",
",  .f O O O O o O @ @ @ @ @ o O o O O O O - = @ o O O O O O O O O : : - @ O O O O O o o o O O O O O O O O O O = : : @ @ @ @ @ @ ",
"O o O O O O o o @ @ @ @ @ @ @ o o o O O O O O f F o O O O O O O O @ @ @ O O O O o o o . o o o O O O O O O O * = - : @ @ @ @ O O ",
"O O O O O o o O @ @ @ e @ @ @ o o o O O @ a . T } O O O O O O O O O O O O O O O o o 1 n o o O O O O O O O O * = = : @ @ @ O O O ",
"O O O O o o o O @ @ k H @ @ @ o o o o O O O O o @ O O O O O O O O O O O O O O O o O ! ! z . o o O O O O O O O * * @ O O O O O O ",
"O O O o o o o O @ @ @ @ @ @ @ @ o o o O O O O $ O O O O O O O O O O O O O O O O o o U T 2 o o o o O O O O O O O O O O O O O O O ",
"O o o o o o o . @ @ @ @ @ @ @ @ @ o o O O O O $ O O O O O O O O O O O O O O O O o o . . O @ o o o o O O O O O O O O O O O O O o ",
"o o o o o o o o o O @ @ @ @ @ @ @ O o o o 7 O O O O O O O O O O O O O O O O O O o o o @ @ @ @ O o o o O O O O O O O O O O o 7 $ ",
"o o o o o o . . o . o o @ @ @ @ @ O . m O o 5 O O O O O O O O O O O O O O O O O o o o @ @ @ @ O o o o o o o O O O O O o o o o o ",
"o o o o o . . . . o . . # # @ @ O o o o o y O O O O O O O O O O O O O O O O O O o o o @ @ @ @ O o o o o o o o o o o o o o o o o ",
"o o o o o . . . . o . . . . o o o o o o O V @ O O O O O O O @ * O O O O O , O O o o o O @ @ O o o o o o o o o o o o o o o o o o ",
"o o o o . . . . . . . . . . o o o o o o o O O O O O O O O - : : - O O O f ` I . o o o o o o . o o o o o o o o o o o o o o o . o ",
"o o o o o . . . . . . . . . o o o o o o O O O O O O O O O - - - : @ O O ; ) I . o o o o o o o o o o o o o o o O o o o o o . s O ",
"o o o o o o . . . . . . . . o o o o o O O O O O O O O O O * * = - O O O O O o O o o o o o o o o . . . . . . . % + . . o o o . o ",
"o o o o o o . . . . . . . . o o o o o O O O O O O O O O O O @ @ O O O O O O O O O o o o o o o . . . . . . . . . . . . . . o o o ",
". . o o o o o o . . . . . o o o o o O O O O O O O O O O O O O O O O O O O O O O O O o o & O o . . . . . . . . . . . . . . . o o ",
"o o o o o . . . o o o o o o o o o o O O O O O @ O O O O O O O o O O O O O O O O O O o o o o o . . . . . . . . . . . . . . . o o ",
"o o o . o O N o . o o o o o o o o O O O O O O O @ O O O o o o o o o o o o O O O O O O o o o o . . . . . . . . . . . . . . . . o ",
"o o o o @ @ ] E o . o o o o o o o o O O O O O O O O O o o . . . . . . X o o O O O O O o o o o o . . . . . . . . . . . . . . . o ",
"o o o o @ @ K > o o o o o o o o O * @ O O O O O O O o X X X . . . . . . . 7 ; O O O O O o o o o . 3 . . . . . . . . . . . . . . ",
"o o o o @ * @ @ o o o o o o o o O * @ O O O @ O O o o O . . o . . . . . . . o O O O O O o o o o . + . . . . . . o O O . . . . . ",
"o o o o o O @ o o o o o o o o o o o O O O O O O o @ - - - * O @ o . .   . . o O O O O O O o o o . . . . . . . o O O @ . . . . . ",
"o o o o o o o o o o o o o o o o O O O O O O O O O j * - - - @ @ @ . . . . . o O O O O O O o o o . . . . . . . o O O o D   . . . ",
"o o o o o o o o o o o o o o o o o ; O O O O O O @ * - - - * * @ @ . . . . . o O O O O O O @ @ @ . . . . . . . . O t W | Y . . . ",
"o o o o o o o o o o o o o o . ; o O O O O O O O @ = * - - * @ O @ . . . . . o O O O O O O = * * O . . . . . . . . O x {   . . . ",
"o o o % % o o o o o o o o . C 2 O O O O O O O O O - * - - * o O .   . . . o o O O O O O @ = * * @ . . . . . . . . .   # . . . o ",
"o o o o o o o o o o o o o o o o O O @ @ O O O O O O @ - * . .       . . . o O O O @ O O O = * * O o . . . . . . . . . . . . . o ",
"o o o o o o o o o o o o o o O O o O O O O O O O O O o o . .     . . . o o O O O : * O O O O @ O o o . . . . . . . . . . . . . o ",
"o o o o o o . o o o o o o @ * * @ O O O O O O O O O o o . . . . . o o o O O O O * @ O O O O o o o o o . . . . . . . . . . . o o ",
"o o o o o . 7 o o o o o o @ @ * * @ O O O O O O O O O O o o o o o o O O O @ @ @ O O O O O o $ @ o o o o . . . . . . . . . . o o ",
"o o o o o . p o o o o o o @ * * * O O O O o o o O O O O O O O O O O O @ @ @ @ O O O O O O o l q . o o o o . . . . . . . o o o o ",
"o o o o o o o o o o O O O O * * @ o O o O o o o O O O O # $ O O O O @ @ @ @ @ O O O O O o o O o o o o o o o o o o o o o o o o o ",
"o o o o o O O o o O O O O O O O O O o . o o o o O O O O @ $ @ O O O O @ @ @ O O O O O o o o o o o o o o o o o o o o o . o o o o ",
"o o o o @ * * * O O O O O O O O O o y A O o o @ @ O O O @ O @ O @ = : @ @ @ O O O O O o o o o o o o o o o o o o o o o q o o o o ",
"o O o o @ * * = @ O O O O O O O O . I ! O O o @ @ O O O @ O O O : : : : O O O O O O o o o o o o o o o o o o o o o o o o o o o o ",
"o 7 o o @ = = * @ O O O O O O O O O o o o O O O O O O O @ O O @ : : : : @ O O O O O o o o o o o o o o o o o o o o o o o o o o o ",
"o o o o o @ * @ O O O O O O O O O O o O O O O O O @ O O O O O O = : : * O O O O O O o o o o o o o o o o o o o o o o o o o o o o ",
"o o o o o o O O O O O O O O O O O O O O O O O O O O O O O O O O O @ @ O @ O @ O O O o o o o o o o o o @ @ o o o o o o o o o o o ",
"o o o o o O O O O O O O O O O O O O O O O O O O O O O O @ O O O @ @ O O @ O @ O O o o o o o o o o o o @ @ o o o o o o o o o o o ",
"o o o o o O O o o @ O O O O O O O O O O O O O O O O O O @ @ O O O O O O O O O = = @ o o o o o o o & o o o o o o o o o o o o o o ",
"o o o o o O o c _ O O O O O O O O @ ; O O O @ @ @ O @ @ @ @ O O O O O O O O * : * @ @ o o o o o o o o o o o o o o o o o o o o o ",
"o o o o o O o b ~ o O O O O O O O O O O O @ @ @ O O @ @ O O O O O O O O O O * * * * @ o o o o o o o o o o o o o o o o o o o o o ",
"o o o o o O O O o O @ @ @ O O O O O O O O O O @ O @ : : : O O O @ O O O O @ @ * = * O O o o o o o o o o o o o o o o . . o o o o ",
"o o o o O O O O O * = = = @ O O O O O @ O O O O O - : : : @ O O @ @ @ O O @ O O @ O O o o o o o o o o o o o o o o o 7 s o o o o ",
"o o o o O O O O @ = = = = = @ O O O O O O O O O O - : : : @ O O @ @ @ O @ @ @ O O O o ; @ o o o o o o o o o o o o O - > o o o o ",
"o o o O O O O O * * = = = - @ @ O O @ O @ O O O O O = : * O O O O O O O @ @ O O O O $ , o O o o o o o o o o o o O @ @ * @ o o o ",
"o o O O O O O O * = = = = = @ O o O @ O O O @ O O O f O O O O O O O O @ @ @ @ @ O O y f v O O O o o o o o o o o O @ @ * @ o o o ",
"O O O O O O O O * = = = = = @ i _ F O @ O O @ @ O O O O @ @ O O O O @ @ @ @ @ @ @ O O O O O O O O O o o o o o o o @ @ * @ o o o ",
"O O O O O O O O @ = = = : * O O B @ O @ O O O @ O O O @ @ @ O O @ @ @ @ @ @ @ @ @ @ O O O O O O O O o ; o O O o o o O O O O O O ",
"O O O O O O O @ @ O @ @ @ @ @ @ O O @ : * O @ O O O O O O O O O @ @ @ @ @ @ @ @ @ @ O O O O O O O O O ' p o O O O O O O O O O O ",
"O O O O O O @ @ @ @ @ @ @ @ @ @ @ @ @ : @ @ @ O O O O O @ O O O @ @ = : = @ @ @ @ @ O @ O O O O O O O J # O O O O O O O O O O O ",
"O O O @ @ @ @ @ @ @ @ @ @ @ @ @ @ @ @ O O @ @ @ @ @ @ O O O O O @ * = = = * @ @ @ @ @ @ @ @ O @ O O O o O O O O O O O O O O O O ",
"O O @ e O @ @ @ @ @ @ @ @ @ @ @ @ @ @ @ @ @ @ @ @ @ @ @ @ @ O O @ = = = = * @ @ @ @ @ @ @ @ @ = @ O O O O O O O O O O O O O O O ",
"@ @ @ O @ @ @ @ @ @ @ @ @ @ @ @ @ @ @ @ @ @ @ @ @ @ @ @ @ @ @ @ @ @ : = > ; @ @ @ @ @ @ @ @ @ @ @ @ @ @ O O O O O O O O O O O @ ",
"@ @ @ @ @ @ @ @ @ @ @ @ @ @ @ @ @ @ @ @ @ @ @ @ @ @ @ @ @ @ @ @ @ @ @ @ # # @ @ @ @ @ @ @ @ @ @ @ @ @ @ @ @ @ @ @ @ @ @ @ @ @ @ ",
"@ @ @ @ @ @ @ @ @ @ @ @ @ @ @ @ @ @ @ @ @ @ @ @ @ @ @ @ @ @ @ @ @ @ @ @ @ @ @ @ @ @ @ @ @ @ @ @ @ @ @ @ @ @ @ @ @ @ @ @ @ @ @ @ ",
"@ @ @ @ @ @ @ @ @ @ @ @ @ @ @ @ @ @ @ @ @ @ @ @ @ @ @ @ @ @ @ @ @ @ @ @ @ @ @ @ @ @ @ @ @ @ @ @ @ @ @ @ @ @ @ @ @ @ @ @ @ @ @ @ "
};
