/* XPM */
static char *_325c1d047ae45c7b0cd7f6f580bc707GPUrGhCzVwmuDZGS[] = {
/* columns rows colors chars-per-pixel */
"32 32 219 2 ",
"   c black",
".  c #EC1B22",
"X  c #ED656B",
"o  c #EE5055",
"O  c #EE464D",
"+  c #EE444B",
"@  c #EE474D",
"#  c #EE5257",
"$  c #EC6368",
"%  c #FF424A",
"&  c #FF4D54",
"*  c #F03B42",
"=  c #ED262E",
"-  c #EE262D",
";  c #EE2129",
":  c #ED1B23",
">  c #EE2229",
",  c #EE262E",
"<  c #ED2830",
"1  c #F03C43",
"2  c #FF5057",
"3  c #FF3E46",
"4  c #FE474E",
"5  c #EE3239",
"6  c #EE232A",
"7  c #ED1921",
"8  c #ED1C24",
"9  c #ED232B",
"0  c #EE343B",
"q  c #FE474E",
"w  c #EF3C43",
"e  c #EE272E",
"r  c #EE3E45",
"t  c #EE353C",
"y  c #ED1F27",
"u  c #ED1A23",
"i  c #EE2128",
"p  c #EC363D",
"a  c #F53037",
"s  c #EE1F27",
"d  c #F12E35",
"f  c #FA2A31",
"g  c #EE222A",
"h  c #EE242C",
"j  c #EE252C",
"k  c #EE1B23",
"l  c #ED171F",
"z  c #EE252C",
"x  c #E91F28",
"c  c #EE1E26",
"v  c #ED161E",
"b  c #ED1B22",
"n  c #F2565D",
"m  c #F25A5F",
"M  c #EE1F28",
"N  c #EC141C",
"B  c #ED151D",
"V  c #ED1E26",
"C  c #F2585E",
"Z  c #ED1D24",
"A  c #E71F26",
"S  c #F5212A",
"D  c #EE1C24",
"F  c #EC151E",
"G  c #F14C53",
"H  c #FCE0E1",
"J  c #FFFEFE",
"K  c white",
"L  c #FFEEEE",
"P  c #F46266",
"I  c #EC121B",
"U  c #F1575E",
"Y  c #FEE4E6",
"T  c #FFEBE9",
"R  c #F3555B",
"E  c #EE121B",
"W  c #EE2027",
"Q  c #F41F26",
"!  c #ED1A22",
"~  c #EE1F26",
"^  c #FFFDFD",
"/  c #EEF4F9",
"(  c #AAC1DB",
")  c #F8FFFF",
"_  c #F1373E",
"`  c #EE2931",
"'  c #E8EFF5",
"]  c #AAC3DC",
"[  c #FCFFFF",
"{  c #F33E45",
"}  c #F01A23",
"|  c #AD141B",
" . c #EF1D25",
".. c #F58286",
"X. c #235395",
"o. c #003782",
"O. c #2C66A3",
"+. c #FF9A9C",
"@. c #ED131B",
"#. c #F69699",
"$. c #1A4C91",
"%. c #3A6EA8",
"&. c #FFB7B6",
"*. c #EE111A",
"=. c #B8161B",
"-. c #F01D25",
";. c #EC111A",
":. c #F8A4A8",
">. c #F6F8FB",
",. c #002879",
"<. c #043C86",
"1. c #002D7F",
"2. c #F2AFB3",
"3. c #EE121A",
"4. c #EC1019",
"5. c #F9B4B6",
"6. c #DFE6EF",
"7. c #00297A",
"8. c #002C7E",
"9. c #FBC7C9",
"0. c #F01019",
"q. c #B8161B",
"w. c #B7161B",
"e. c #F11D25",
"r. c #F3656B",
"t. c #6184B3",
"y. c #11468C",
"u. c #719EC7",
"i. c #FE8386",
"p. c #ED141C",
"a. c #F57A7F",
"s. c #567BAD",
"d. c #80A7CE",
"f. c #FF9EA0",
"g. c #EF131B",
"h. c #BA171C",
"j. c #ED121B",
"k. c #FCDADB",
"l. c #E7F6FD",
"z. c #FFF1F1",
"x. c #EF2027",
"c. c #EC161E",
"v. c #FCE5E7",
"b. c #E7F8FE",
"n. c #FFE7E6",
"m. c #F01B23",
"M. c #BA171C",
"N. c #F79FA3",
"B. c #FDE1E3",
"V. c #FEE5E5",
"C. c #FBAEB0",
"Z. c #EF3038",
"A. c #ED1720",
"S. c #ED1821",
"D. c #EF2B33",
"F. c #F9A7A9",
"G. c #FDE3E4",
"H. c #FEE3E4",
"J. c #FAA8AA",
"K. c #EE2A32",
"L. c #ED1820",
"P. c #F01C25",
"I. c #EE2932",
"U. c #EE2B33",
"Y. c #EC141D",
"T. c #B7151B",
"R. c #BB171C",
"E. c #F11C25",
"W. c #B8171C",
"Q. c #EF1C24",
"!. c #F01C24",
"~. c #B8171D",
"^. c #B7161B",
"/. c #D51920",
"(. c #D11920",
"). c #EB1B24",
"_. c #E91B24",
"`. c #D11820",
"'. c #D11A1F",
"]. c #D81922",
"[. c #D01920",
"{. c #E91C24",
"}. c #B6151B",
"|. c #AD151B",
" X c #CB171F",
".X c #8B1115",
"XX c #CC1820",
"oX c #EE1D25",
"OX c #C5181E",
"+X c #C8181E",
"@X c #EE1D24",
"#X c #DB1922",
"$X c #A11318",
"%X c #C5171F",
"&X c #EC1C24",
"*X c #B1161C",
"=X c #EF1C25",
"-X c #F21D25",
";X c #CC191F",
":X c #D51920",
">X c #F31D25",
",X c #D31A20",
"<X c #D11920",
"1X c #F21C25",
"2X c None",
"3X c #B9161D",
"4X c #CB181E",
"5X c #971217",
"6X c #DA1A22",
"7X c #CF1820",
"8X c #A6141A",
"9X c #D41A20",
"0X c #D31A20",
"qX c #AC141B",
"wX c #D11820",
"eX c #D51921",
"rX c #C0171D",
"tX c #CB191F",
"yX c #D41921",
/* pixels */
"                                                                ",
"                      . X o O + + @ # $                         ",
"                  % & * = - ; : : > , < 1 2 3                   ",
"                4 5 6 7 : : : 8 8 : : : 7 9 0 q                 ",
"              w e 7 : 8 8 8 8 8 8 8 8 8 8 : 7 e r               ",
"            t y : 8 8 8 8 8 8 8 8 8 8 8 8 8 8 u i p             ",
"          a s : 8 8 8 8 8 8 8 8 8 8 8 8 8 8 8 8 : ; d           ",
"        f g : 8 8 8 8 8 8 8 8 8 8 8 8 8 8 8 8 8 8 : h f         ",
"        j k 8 8 8 8 8 : l l : 8 8 8 8 8 8 8 : l l : k z         ",
"      x c 8 8 8 8 8 v b n m M N 8 8 8 8 8 B V C C Z B c A       ",
"      S D 8 8 8 8 F G H J K L P I 8 8 8 N U Y K K T R E W       ",
"      Q D 8 8 8 ! ~ ^ K K / ( ) _ 7 8 ! ` K K K ' ] [ { }       ",
"    |  .8 8 8 8 N ..K K K X.o.O.+.@.8 I #.K K K $.o.%.&.*.      ",
"    =.-.8 8 8 8 ;.:.K K >.,.<.1.2.3.8 4.5.K K 6.7.<.8.9.0.q.    ",
"    w.e.8 8 8 8 v r.K K K t.y.u.i.p.8 N a.K K K s.y.d.f.g.h.    ",
"    w.e.8 8 8 8 : j.k.K K K l.z.x.! 8 : c.v.K K K b.n.i m.M.    ",
"    w.e.8 8 8 8 8 7 - N.B.V.C.Z.A.8 8 8 S.D.F.G.H.J.K.L.P.M.    ",
"    w.e.8 8 8 8 8 8 ! N I.U.F 7 8 8 8 8 8 7 Y.K.K.Y.7 8 P.M.    ",
"    w.e.8 8 8 8 8 8 8 8 ! ! 8 8 8 8 8 8 8 8 8 ! ! 8 8 8 P.M.    ",
"    w.e.8 8 8 8 8 8 8 8 8 8 8 8 8 8 8 8 8 8 8 8 8 8 8 8 P.M.    ",
"    w.e.8 8 8 8 8 8 8 8 8 8 8 8 8 8 8 8 8 8 8 8 8 8 8 8 P.M.    ",
"    w.e.8 8 8 8 8 8 8 8 8 8 8 8 8 8 8 8 8 8 8 8 8 8 8 8 P.M.    ",
"    w.e.8 8 8 8 8 8 8 8 8 8 8 8 8 8 8 8 8 8 8 8 8 8 8 8 P.M.    ",
"    w.e.8 8 8 8 8 8 8 8 8 8 8 8 8 8 8 8 8 8 8 8 8 8 8 8 P.M.    ",
"    T.e.8 8 8 8 8 8 8 8 8 8 8 8 8 8 8 8 8 8 8 8 8 8 8 8 P.M.    ",
"    R.E.8 8 8 8 8 8 8 8 8 8 8 8 8 8 8 8 8 8 8 8 8 8 8 8 P.M.    ",
"    W.E.8 8 8 Q.!.D 8 8 8 8 D !.!.D 8 8 8 8 8 Q.!.D 8 8 P.~.    ",
"    ^.-.8 D  ./.(.).D 8 8 D _.`.'.).D 8 8 8 e.].[.{.D 8 -.}.    ",
"    |.-.D  . X.X  XX .8 8 oXOX    +X@X8 8 P.#X$X  %X&XD -.*X    ",
"      =X-X;X        :Xe.>X,X        <Xe.1X2X3X      4X8 Q.5X    ",
"      6X7X          8X9X0XqX          wXeXrX          tXyX      ",
"                                                                "
};
