/* XPM */
static char *_ad9d82d9194499fa94875c99edb4f60UMXyMZ7WIdgFjlox[] = {
/* columns rows colors chars-per-pixel */
"64 64 181 2 ",
"   c #000006",
".  c #06000E",
"X  c #070011",
"o  c #090115",
"O  c #0D0915",
"+  c #0B021A",
"@  c #0E091B",
"#  c #100D16",
"$  c #10071D",
"%  c #110B1E",
"&  c #111117",
"*  c #14111C",
"=  c #1E191A",
"-  c #0D0122",
";  c #0F0920",
":  c #0E0029",
">  c #100226",
",  c #130D23",
"<  c #12022A",
"1  c #160B2A",
"2  c #190C2C",
"3  c #161125",
"4  c #181226",
"5  c #1B1927",
"6  c #171128",
"7  c #191329",
"8  c #1D1A2C",
"9  c #1B0D34",
"0  c #150732",
"q  c #1C1234",
"w  c #1E1A32",
"e  c #1F1238",
"r  c #241E2C",
"t  c #211737",
"y  c #201D30",
"u  c #22143C",
"i  c #292526",
"p  c #2B2728",
"a  c #332C2E",
"s  c #3D3927",
"d  c #232333",
"f  c #2B2433",
"g  c #272638",
"h  c #272838",
"j  c #2A2A3C",
"k  c #2E2538",
"l  c #332C3C",
"z  c #302C36",
"x  c #3C3738",
"c  c #353132",
"v  c #433830",
"b  c #423E3F",
"n  c #4A452F",
"m  c #524F31",
"M  c #2F2F40",
"N  c #2F3342",
"B  c #313343",
"V  c #343A47",
"C  c #3E3A44",
"Z  c #36394C",
"A  c #353748",
"S  c #413F40",
"D  c #443D4D",
"F  c #3B4050",
"G  c #454243",
"H  c #46434D",
"J  c #484144",
"K  c #524E4F",
"L  c #404257",
"P  c #4A4452",
"I  c #534E59",
"U  c #48525D",
"Y  c #5E595B",
"T  c #655C42",
"R  c #4E5A64",
"E  c #4F5668",
"W  c #5C5860",
"Q  c #525B6A",
"!  c #645F62",
"~  c #55626C",
"^  c #58666F",
"/  c #5F6D7B",
"(  c #5B6975",
")  c #646164",
"_  c #686667",
"`  c #636068",
"'  c #69676A",
"]  c #6B6B6B",
"[  c #6F706F",
"{  c #6E6E73",
"}  c #616976",
"|  c #726D79",
" . c #726E77",
".. c #64757E",
"X. c #747374",
"o. c #75757B",
"O. c #7A7A7A",
"+. c #7D7C71",
"@. c #89857D",
"#. c #98947A",
"$. c #AF9769",
"%. c #A7A57F",
"&. c #A8A07B",
"*. c #CDB16B",
"=. c #CDC07C",
"-. c #DCCD7B",
";. c #E1CF77",
":. c #E9D573",
">. c #F6DF71",
",. c #F1E477",
"<. c #F6E874",
"1. c #FFF571",
"2. c #6D7985",
"3. c #757F85",
"4. c #787981",
"5. c #6E8089",
"6. c #73858D",
"7. c #7B878B",
"8. c #768993",
"9. c #788B93",
"0. c #738390",
"q. c #848384",
"w. c #888687",
"e. c #888887",
"r. c #8B8B8C",
"t. c #81878D",
"y. c #989780",
"u. c #98958E",
"i. c #8C8E92",
"p. c #868D92",
"a. c #949495",
"s. c #9C9993",
"d. c #9D9C9D",
"f. c #9A969F",
"g. c #A19F95",
"h. c #A7A48B",
"j. c #8A9EA9",
"k. c #9F9DA0",
"l. c #8EA1AA",
"z. c #93A3AB",
"x. c #A4A4A4",
"c. c #A8A7A7",
"v. c #A7A6A9",
"b. c #ABAAAB",
"n. c #B0AEAA",
"m. c #BBB6AB",
"M. c #AEAFB0",
"N. c #B0AEB2",
"B. c #B3B3B3",
"V. c #B3B4BB",
"C. c #BCBCBC",
"Z. c #C1BA83",
"A. c #C4BDA4",
"S. c #CCC482",
"D. c #C9C0A1",
"F. c #BFC0C0",
"G. c #C6C6C6",
"H. c #C4C4C4",
"J. c #CECECE",
"K. c #CBCBCB",
"L. c #D2D2D2",
"P. c #D5D5D5",
"I. c #D5D5D5",
"U. c #D9D9D9",
"Y. c #DFDFDF",
"T. c #DDDDDD",
"R. c #D8D8D8",
"E. c #E0DFE2",
"W. c #E3E3E3",
"Q. c gray88",
"!. c gray90",
"~. c #E6E6E6",
"^. c #E3E4E3",
"/. c #E8E8E8",
"(. c #EAEAEA",
"). c #EDEDED",
"_. c #EFEFEF",
"`. c #EBECEB",
"'. c #F0F0F0",
"]. c #F6F6F6",
"[. c #FBFBFB",
/* pixels */
"+ + + + + + + o + + + + + + + + + + + + + + + + + + + + + + + + + + + + + + + + + + + + + + + + + + + + + + + + + + + + + + + + ",
"+ + + + + + o o + + o o o o + + + + + + + + + + + + + + + + + + + + + + + + + + + + + + + + + + + + + + + + + + + + + + + + + + ",
"+ + + + + + o o o o o o o o o o o o + + + + + + o + + + + o o o + + + + + o + + o o o o o + + + + o o + + + + + + + + + + + + + ",
"+ + + + + o o o o o o o o o o o o o o + + + + + + o o o o o o o o o o o o o + o o o o o o o o o + + + + + + + + + + + + + + + + ",
"+ + + + o o o o o o o o o o o o o o o o o + + + o o o o o o o o o o o g 6 o o o o o o o o o o o o + + + + + + + + + + + + + + + ",
"+ + + o o o o o o o o o o o o o o o o o - < < > o o o o o o o o o + - - o o o o o o o o o o o o o o + + + o X + + + + + + + + + ",
"o X o o o o o o o o o o o o o o X o o o : < < < + o o o o o o o o < < < - o o o o o o o o o o o o o o + o j ( + + + + + + + + + ",
"$ ( 3 o o o o o X X o o o X o X B o o o : < < < + o o o o o o o + < > < > o o o o o o o o o o o o o o o o B 2.+ + + + + + + + + ",
"3 8.8 o o o o X o + + + + + X X X o o o o > : + X o o o o o o o o < < > + o o o o o X X X o o o o o o o o o o : < < + + + + + + ",
"o X o o o o X X + + + + + + + X X X o o o o o 8 A X o o o o o o o + + + o o o o X X X . X X X o o o o o o o - : > < + + + + o o ",
"o o o o o X X o + + + 6 + + + X X X o o + 8 . R 6.o o o o o o o o o o o o o o o X X 4 h X X o X o o o o o o - : : < + + + o o o ",
"o o o o X X X o + + w Z + + + X X X X o o o o X + o o o o l D P D k o o o o o o X o ~ ~ d . X X o o o o o o o - - + o o o o o o ",
"o X X X X X X o + + + + + + + + X X X o o o o $ o k f.E.(.(.!.Q.I.J.G.C.| l o o X X U R , X X X X o o o o o o o o o o o o o o o ",
"X X X X X X X . + + + + + + + + + X X o o o o l b._._.'.'.'.'.`.Q.R.L.G.C.B.r.4 X X . . X + X X X X o o o o o o o o o o o o o X ",
"X X X X X X X X X o + + + + + + + o X X X 4 l ].[.[.R.C.x.q.O.O.q.w.r.d.b.C.H.C.P X X + + + + o X X X o o o o o o o o o o X 4 $ ",
"X X X X X X . . X . X X + + + + + o . h o f x.) x = i c b K Y ! Y K J x a i p G ' f X + + + + o X X X X X X o o o o o X X X X X ",
". X X X X . . . . . . . @ @ + + o X X X % G _ a.b.F.J.I.T.^.!.!.!.!.T.L.G.C.c.w.' S 3 + + + + o X X X X X X X X X X X X X X X X ",
". X . X X . . . . . . . . . X X X X o.L.L.R.R.T.T.Q.!.(.(.(.(.(.(./.!.Q.Q.T.I.J.G.C.B.C.| + o X X X X X X X X X X X X X X X X X ",
". . . X . . . . . . . . . . X +  .I.R.T.Q.!.(._._._.'.'.'._.'.'.'._._._.(.(.!.Q.T.R.L.K.H.C.X.+ X X X X X X X X X X X X X X . X ",
". . . X X . . . . . . . % { v.L.R.T.Q.!.(._._._._.(.(.(.!.!.Q.Q.Q.Q.!.Q.!.!.!.!.!.T.R.I.J.K.G.C.d.` 4 X X X X + X X X X X . 8 + ",
". . . . X X . . . . * N.I.R.R.J.G.G.C.B.B.b.b.b.b.b.c.c.b.v.V.V.V.c.c.c.c.c.b.c.x.b.B.B.C.C.C.C.H.H.H.k.+ . . % O . . X X X . X ",
". . . . X X . . . I J.G.C.B.b.B.B.b.b.b.M.m.A.B.c.x.x.d.d.x.-.>.;.x.z.k.x.x.x.m.D.A.n.c.c.c.b.b.c.b.b.B.C.W . . . . . . . X X X ",
". . . . X X X X 4 b.x.x.x.x.x.x.d.x.d.d.g.<.1.S.i.r.r.w.w.q.#.%.#.w.w.r.r.r.i.Z.,.,.h.a.a.a.a.a.a.a.a.a.a.d.z . . . . . . . X X ",
". . . . X . . . X ' r.a.s.s.i.r.r.w.w.q.q.4.o.o.X.[ X.O.O.O.q.q.w.w.w.q.O.O.X.{ { o.q.w.q.w.q.q.r.u.u.r.O.) % . . . . . . . X X ",
". . . . X o j X . X 4 #.:.:.&.o.O.O.X.X.] O.w.r.a.d.a.a.a.a.a.a.a.a.a.a.a.a.a.e.q.X.{ O.O.O.O.o.@.:.:.=.4 . . . . . . . . . . X ",
". . . . + + 2.E X . X X n n # % r l C H @.i.p.7.3.6.6.6.8.9.9.9.9.9.9.8.8.6.2.3.t.i.@.H C l r * + s m = . . . . . . . . . . . X ",
". . . . + + L 1 X X X X X X X X o - + o T *.#./ 0.j.j.z.z.z.z.z.z.z.l.l.j.j.8./ +.$.v o o X X X . 4 . . . . . . . . . . . . . . ",
". . . . + + + + X X X X X X X X o - + o o + + + + + + $ O O @ O O O O O + + + + + + + o o X X X . O . . . . . . X o o . . . . . ",
". . . X X o o X X X X X X X X X X X o o o + + + + @ 1 1 2 1 $ 1 $ @ O O O O @ @ $ @ + + o o X X . . . . . . . X o o o . . . . . ",
". . . X X . . X X X X X X X X X o o o o + + + + + t 1 1 1 2 , , 2 % % # O % $ $ $ $ @ + + o X X . . . . . . . X o o X V   . . . ",
". . . X X X X X X X X X X X X X X , o o o + + + > 1 1 1 2 2 2 , 2 * % % # % % , , , $ @ + @ + + . . . . . . . . o 4 Q 9.R . . . ",
". . . . . X X X X X X X X X . , X o o o o + + + ; 1 1 2 2 2 2 , 2 * * * * * % , , , , $ @ < : - + . . . . . . . . + d 6.  . . . ",
". . . % % . X X X X X X X . N 3 o o o o + + + + + 1 1 2 2 2 3 3 * & * * * 3 3 3 , , , $ 1 < - - + . . . . . . . . .   @ . . . X ",
". . . X X X X X X X X X X X X X o o + + o + + + @ $ 1 2 2 % % & & * * * 3 3 6 6 3 , , , $ < > : + X X . . . . . . . . . . . . X ",
". . . . X X X X X X X X X X o o o o o + o + + + $ $ $ % % % & & * * * 3 4 4 4 4 e 7 , , $ @ ; + X X X . . . . . . . . . . . . X ",
". . . . X X . X X X X X X + - - + o o o o + + + $ $ % % % % * * 3 3 6 4 7 7 7 4 q 4 , , % @ + + + X X . . . . . . . . . . . X X ",
". . . . X . 4 X X X X X X + + - - + o + o + + + $ , , , , 3 3 3 6 4 7 7 7 7 7 7 6 3 3 , % @ 3 % X X X X . . . . . . . . . . X X ",
". . . . X . 5 X X X X X X + - - - o o + + + + @ $ , , , 3 3 6 6 7 7 7 7 7 7 7 7 6 3 3 , % % g 8 X X X X X . . . . . . . X X X X ",
". . . . X X . X X X o o o o - - + o + + + + @ @ $ , , , 7 8 4 4 7 7 7 7 7 7 7 7 7 3 3 , % $ @ + + X X X X X X X X X X X X X X X ",
". . . X X X o X X o o o o o o o o + + o + + @ % $ , , 3 7 8 4 4 7 7 7 7 7 7 7 7 4 3 3 , % @ @ + + o X X X X X X X X X . X X X X ",
". . . X o - - - o o o o o o o o o + 8 V @ @ @ , , , , 3 6 6 4 7 8 u u 8 8 7 7 4 6 3 , , @ @ + + + X X X X X X X X X X 5 X X X X ",
". o X . + - - : + o o o o o o o o X U ^ + + @ 1 1 , , , 6 4 4 4 u u u u 7 7 7 4 3 3 , , % @ @ O + + o X X X X X X X X X X X X X ",
". 3 X . + - - - + o o o o o o o o + + + + @ $ $ , , , , 3 6 4 7 u u u u 7 7 7 7 6 3 3 3 3 % % @ @ + + o X X X X X X X X X X X X ",
". . X X X + + + o o o o + o + + + + + + + @ $ , , , , , , 6 6 6 e u u q 7 7 7 7 6 6 3 3 3 % % % @ @ + + o X X X X X X X X X . . ",
". . X X X X X o o o o + + + + + + + + + @ $ $ , , , , , , 6 4 4 4 7 7 4 7 7 7 4 4 4 3 3 3 % % % @ @ O ; @ o X X X X X X X X . . ",
". . X X X X o o o o o + + + + + + + + + @ @ $ $ , , , , , , 6 6 6 4 4 4 4 4 4 6 6 3 3 3 3 * % % $ @ O @ @ + + o X X X X X X . . ",
". . X X X X o X . o o + + + + + + + + + + @ @ $ $ , , , , , , 3 6 4 4 4 7 4 7 e e q 3 3 3 % , % % 5 % O + + + + o X X X X X X . ",
". . . X X X X d ^ o o o o + + + + + , + @ @ @ $ $ , , , , , , , 3 6 6 4 4 4 q e q 7 4 3 3 , , % % @ @ @ O + + + o X X X X X X . ",
". . . X X X X d R X o o o + + + + + + + @ @ @ $ $ $ , , , , , , 3 4 6 4 4 4 q e q q 4 3 3 , , % % % @ @ + + + + + X X X X X X X ",
". . . X X X X X X o + + + o + + + + + @ @ @ $ $ , 1 9 9 9 , , 3 3 4 4 4 4 4 4 e e q 3 3 , , % % % @ @ @ + + + + + o X . X X X X ",
". . . X X X X o o - - : : + + + + + @ @ @ $ $ , , 2 9 9 9 2 , 3 4 4 4 4 4 4 4 4 4 3 3 3 , , % % % @ @ @ @ + + + + X 5 8 X X X X ",
". . X X X X X X + - : - > : + + + + @ @ @ $ $ , , 2 9 9 9 2 , 3 6 4 4 4 4 4 4 4 3 3 3 y 7 % % % % @ @ @ O + + + + + 1 2 X X X X ",
". X X X X X o X - - - - > > + + + + @ @ $ $ $ , , , 9 9 9 , , 3 4 4 4 4 4 4 4 6 3 3 8 d , , % % $ @ @ @ @ + + + + @ @ - + X X X ",
"X X X X X X o o - - - - > > - + o + @ @ $ $ , , , , g , , , , 3 3 4 4 4 4 4 4 6 3 3 g h j 3 , , $ $ @ @ @ O + + + @ @ - + X X X ",
"X X X X X X o o + - - : > > @ 8 } Z + @ @ $ $ , , , , , , , , , 3 6 6 4 4 4 4 4 6 3 3 3 , , , , , $ % @ @ @ @ + + @ @ - + o X X ",
"X X X X X o o o + - : : < - + + M , @ @ @ $ $ , , , , , , 3 , 3 6 6 6 4 4 4 4 4 4 6 3 3 , , , , , % % 5 @ @ @ @ + + + + + + o o ",
"X X X X X o o o o o + + + + + + + + @ 0 < @ , , , , , , , , , , 6 6 6 6 4 4 4 4 4 4 6 6 3 3 , , , , , ..d @ @ @ + + + + + + + o ",
"X X X o o o o o o o + + + + + + @ @ @ 1 > @ @ , , , , , , , , , 6 6 q e q 4 4 4 4 4 6 6 3 3 3 , , , , F 3 @ @ @ @ + + + + + + + ",
"X X X o o o o o o o + + + + + + + + @ @ @ @ $ ; ; , , , , , , , 6 7 q e e 7 6 6 4 4 6 6 6 3 , , , , , % , $ $ @ @ @ @ + + + + o ",
"X X o , o o o o o o o + + + + + + @ @ @ @ @ @ > $ , , , , , , , , 9 q q q q 6 6 6 6 6 6 6 6 2 9 , , , , , , , @ @ @ @ @ + + + + ",
"o o o X o o o o o o o + + + + + + + @ @ @ @ ; > @ , , , , , , , , 2 9 q u w 3 6 6 6 6 6 6 2 , 2 , , , , , , , ; $ @ @ @ @ + + + ",
"o o o o o o o o o o o + o + + + + + + @ @ @ @ @ $ ; , , , , , , , , , 2 4 7 6 6 6 6 6 6 6 6 , , , , , , , , , , , @ @ @ @ + + + ",
"o o o o o o o o o o o + o + + + + + + + @ @ @ @ @ @ ; ; , , , 1 , , , , , 2 2 2 , , , 2 6 2 , , , , , , , , , , , $ @ @ @ @ + + ",
"o o o o o o o o o o o o o o + + + + + + + + @ @ @ @ @ ; , , , , , , , , , , , , , , , , , , , , , , , , , , , , $ @ @ @ @ @ + + "
};
