/* XPM */
static char *a0cdc26846484753ef4bdec7f3c3fe75tIcoR0cNdTHi6ABq[] = {
/* columns rows colors chars-per-pixel */
"32 32 2 1 ",
"  c black",
". c #154FF5",
/* pixels */
"  ............................  ",
"  ............................  ",
"................................",
"................................",
"....                        ....",
"....                        ....",
"....                        ....",
"....                        ....",
"....                        ....",
"....                        ....",
"....                        ....",
"....                        ....",
"....                        ....",
"....                        ....",
"....                        ....",
"....          ..            ....",
"....          ..            ....",
"....                        ....",
"....                        ....",
"....                        ....",
"....                        ....",
"....                        ....",
"....                        ....",
"....                        ....",
"....                        ....",
"....                        ....",
"....                        ....",
"....                        ....",
"................................",
"................................",
"  ............................  ",
"  ............................  "
};
