/* XPM */
static char *e06a0aebdab042ecdcd72c557d0965ecY058VCDvpTm1oB8O[] = {
/* columns rows colors chars-per-pixel */
"64 64 90 1 ",
"  c #00EC29",
". c #00EE29",
"X c #00F02A",
"o c #00EF2A",
"O c #00D625",
"+ c #00BB20",
"@ c #00BD21",
"# c #00BD20",
"$ c #00C021",
"% c #00D224",
"& c #00B21E",
"* c #00B41F",
"= c #00B71F",
"- c #00B31F",
"; c #00B51F",
": c #00F12A",
"> c #00D424",
", c #00B81F",
"< c #00F32A",
"1 c #00ED29",
"2 c #00CC23",
"3 c #00CD23",
"4 c #00C122",
"5 c #00CE23",
"6 c #00CB23",
"7 c #00D826",
"8 c #00DE26",
"9 c #00B11E",
"0 c #00C923",
"q c #00D225",
"w c #00B01E",
"e c #00CA23",
"r c #00D325",
"t c #00B820",
"y c #00B61F",
"u c #00D425",
"i c #2F9317",
"p c #329116",
"a c #09AE1E",
"s c #00C522",
"d c #00E027",
"f c #00DF27",
"g c #BA2E00",
"h c #C52600",
"j c #279918",
"k c #B03500",
"l c #BB2D00",
"z c #259A18",
"x c #B23600",
"c c #B13500",
"v c #1BA11A",
"b c #00BF21",
"n c #922C00",
"m c #912C00",
"M c #A03100",
"N c #B13400",
"B c #AB3901",
"V c #A93A01",
"C c #AA3A01",
"Z c #AB3A01",
"A c #9E3601",
"S c #8B3101",
"D c #8D3101",
"F c #8D3201",
"G c #A63801",
"H c #8F2C00",
"J c #A03000",
"K c #B23400",
"L c #B33400",
"P c #A63100",
"I c #912A00",
"U c #922B00",
"Y c #942B00",
"T c #AD3200",
"R c #902C00",
"E c #A53200",
"W c #922D00",
"Q c #AB3300",
"! c #8F2B00",
"~ c #8E2B00",
"^ c #9F3000",
"/ c #B33600",
"( c #A63300",
") c #A83300",
"_ c #AD3400",
"` c #AF3400",
"' c #972D00",
"] c #992E00",
"[ c #952E00",
"{ c #AF3500",
/* pixels */
"                                                                ",
"                                                                ",
"                                                                ",
"                                                                ",
"                                                                ",
"                                                                ",
"                                                                ",
"                                                                ",
"                                                                ",
"      .XXXXXXXXXo                                               ",
"     .O+@@@@@@@#$o                                              ",
"     .%&********=X                                              ",
"     .%-;;;;;;;*=X                                              ",
"     .%-;;;;;;;*=X                                              ",
"     .%-;;;;;;;*=X                                              ",
"     .%-;;;;;;;*=X                                              ",
"     .%-;;;;;;;*=X                                              ",
"     .%-;;;;;;;*=X                                              ",
"     .%-;;;;;;;*=X                                              ",
"     .%-;;;;;;;*=X                                              ",
"ooooo:>-;;;;;;;*,<ooooooooooooooooooo.                    1ooooo",
"2222234*;;;;;;;;;522222222222222222267.                  1862222",
"------*;;;;;;;;;;-------------------90o                  .qw----",
";;;;;;;;;;;;;;;;;;;;;;;;;;;;;;;;;;;;-eo                  .r&;;;;",
";;;;;;;;;;;;;;;;;;;;;;;;;;;;;;;;;;;;-eo                  .r&;;;;",
";;;;;;;;;;;;;;;;;;;;;;;;;;;;;;;;;;;;-eo                  .r&;;;;",
";;;;;;;;;;;;;;;;;;;;;;;;;;;;;;;;;;;;-eo                  .r&;;;;",
";;;;;;;;;;;;;;;;;;;;;;;;;;;;;;;;;;;;-eo                  .r&;;;;",
";;;;;;;;;;;;;;;;;;;;;;;;;;;;;;;;;;;;-eo                  .r&;;;;",
";;;;;;;;;;;;;;;;;;;;;;;;;;;;;;;;;;;;-eo                  .r&;;;;",
";;;;;;;;;;;;;;;;;;;;;;;;;;;;;;;;;;;;-eo                  .r&;;;;",
"ttttttttttttttttttttttttttty;;;;;;;;-6X111111111111111111ou&;;;;",
"iiiiiiiiiiiiiiiiiiiiiiiiiipay;;;;;;;*sd888888888888888888f6-;;;;",
"gggggggggggggggggggggggggghjt;;;;;;;;*&&&&&&&&&&&&&&&&&&&&-;;;;;",
"kkkkkkkkkkkkkkkkkkkkkkkkkklzt;;;;;;;;;;;;;;;;;;;;;;;;;;;;;;;;;;;",
"kkkkkkkkkkkkkkkkkkkkkkkkkklzt;;;;;;;;;;;;;;;;;;;;;;;;;;;;;;;;;;;",
"kkkkkkkkkkkkkkkkkkkkkkkkkklzt;;;;;;;;;;;;;;;;;;;;;;;;;;;;;;;;;;;",
"kkkkkkkkkkkkkkkkkkkkkkkkkklzt;;;;;;;;;;;;;;;;;;;;;;;;;;;;;;;;;;;",
"kkkkkkkkkkkkkkkkkkkkkkkkkklzt;;;;;;;;;;;;;;;;;;;;;;;;;;;;;;;;;;;",
"kkkkkkkkkkkkkkkkkkkkkkkkkklzt;;;;;;;;;;;;;;;;;;;;;;;;;;;;;;;;;;;",
"kkkkkkkkkkkkkkkkkkkkkkkkkklzt;;;;;;;;;;;;;;;;;;;;;;;;;;;;;;;;;;;",
"kkkkkkkkkkkkkkkkkkkkkkkkkklzt;;;;;;;;;;;;;;;;;;;;;;;;;;;;;;;;;;;",
"kkkkkkkkkkkkkkkkkkkkkkkkkklzt;;;;;;;;;;;;;;;;;;;;;;;;;;;;;;;;;;;",
"xxxxxxckkkkkkkkkkkkkkkkkkklv4bbbbbbbbbbbbbbbbbbbbbbbbbbbbbbbbbbb",
"nnnnnmMckkkkkkkkkkkkkkkkkkNBVCCCCCCCZASDDDDDDDDFGCCCCCCCCCCCCCCC",
"mmmmmHJckkkkkkkkkkkkkkkkkkkNKKKKKKKKLPIUUUUUUUUYTKKKKKKKKKKKKKKK",
"mmmmmRJckkkkkkkkkkkkkkkkkkkkkkkkkkkkcEHmmmmmmmmWQckkkkkkkkkkkkkk",
"mmmmmRJckkkkkkkkkkkkkkkkkkkkkkkkkkkkcEHmmmmmmmmWQckkkkkkkkkkkkkk",
"mmmmmRJckkkkkkkkkkkkkkkkkkkkkkkkkkkkcEHmmmmmmmmWQckkkkkkkkkkkkkk",
"mmmmmRJckkkkkkkkkkkkkkkkkkkkkkkkkkkkcEHmmmmmmmmWQckkkkkkkkkkkkkk",
"mmmmmRJckkkkkkkkkkkkkkkkkkkkkkkkkkkkcEHmmmmmmmmWQckkkkkkkkkkkkkk",
"mmmmmRJckkkkkkkkkkkkkkkkkkkkkkkkkkkkcEHmmmmmmmmWQckkkkkkkkkkkkkk",
"mmmmmRJckkkkkkkkkkkkkkkkkkkkkkkkkkkkcEHmmmmmmmmWQckkkkkkkkkkkkkk",
"mmmmmRJckkkkkkkkkkkkkkkkkkkkkkkkkkkkcEHmmmmmmmmWQckkkkkkkkkkkkkk",
"!!!!!~^ckkkkkkkkkxxxxxxxxxxxxxxxxxxx/(HmmmmmmmmWQckkkkkkkkkkkkkk",
"))))))_kkkkkkkkk`']]]]]]]]]]]]]]]]]]][mmmmmmmmmWQckkkkkkkkkkkkkk",
"cccccckkkkkkkkkk{~RRRRRRRRRRRRRRRRRRRmmmmmmmmmmWQckkkkkkkkkkkkkk",
"kkkkkkkkkkkkkkkk{!mmmmmmmmmmmmmmmmmmmmmmmmmmmmmWQckkkkkkkkkkkkkk",
"kkkkkkkkkkkkkkkk{!mmmmmmmmmmmmmmmmmmmmmmmmmmmmmWQckkkkkkkkkkkkkk",
"kkkkkkkkkkkkkkkk{!mmmmmmmmmmmmmmmmmmmmmmmmmmmmmWQckkkkkkkkkkkkkk",
"kkkkkkkkkkkkkkkk{!mmmmmmmmmmmmmmmmmmmmmmmmmmmmmWQckkkkkkkkkkkkkk",
"kkkkkkkkkkkkkkkk{!mmmmmmmmmmmmmmmmmmmmmmmmmmmmmWQckkkkkkkkkkkkkk",
"kkkkkkkkkkkkkkkk{!mmmmmmmmmmmmmmmmmmmmmmmmmmmmmWQckkkkkkkkkkkkkk",
"kkkkkkkkkkkkkkkk{!mmmmmmmmmmmmmmmmmmmmmmmmmmmmmWQckkkkkkkkkkkkkk"
};
