/* XPM */
static char *collect_1_1735288492[] = {
/* columns rows colors chars-per-pixel */
"32 32 8 1 ",
"  c #1E4343",
". c #275757",
"X c #387E7E",
"o c #3D8989",
"O c #50B3B3",
"+ c #63DDDD",
"@ c #68E9E9",
"# c None",
/* pixels */
"################################",
"######################....######",
"#####################.@@@@.#####",
"####################.@OOO. #####",
"####################.@OO. ####. ",
"###################.@O+. ####.@.",
"###################.@O+. ###.@+.",
"###################.@OO+.##.@O+.",
"####################.@OO+..@OO+.",
"####################.@OOO++OO+. ",
"###################.oOOOOOOO++. ",
"##################.o+X+OO+++.. #",
"#################.o+X+Oo....  ##",
"################.o+X+Oo.    ####",
"###############.o+X+Oo. ########",
"##############.o+X+Oo. #########",
"#############.o+X+Oo. ##########",
"############.o+X+Oo. ###########",
"###########.o+X+Oo. ############",
"##########.o+X+Oo. #############",
"#########.o+X+Oo. ##############",
"########.o+X+Oo. ###############",
"#######.o+X+Oo. ################",
"#####..o+X+Oo. #################",
"###..@++X+Oo. ##################",
"##.@...O+Oo. ###################",
"#.@.   .+o. ####################",
"#.O. ##.Oo. ####################",
"#.O. ##.O. #####################",
"#.OO...OO. #####################",
"##.OOOOO. ######################",
"###..... #######################"
};
