/* XPM */
static char *exit1735287460[] = {
/* columns rows colors chars-per-pixel */
"52 52 13 1 ",
"  c black",
". c gray12",
"X c #3F3F3F",
"o c #6A6A6A",
"O c #DC0000",
"+ c red",
"@ c #3FADE0",
"# c gray57",
"$ c #B4B4B4",
"% c #81CEFF",
"& c gray86",
"* c white",
"= c None",
/* pixels */
"=========================  =========================",
"======================== *o ========================",
"======================= *&$o =======================",
"======================= *$$o =======================",
"====================== *&$$$o ======================",
"====================== *&&$$o ======================",
"===================== *&&$$$#o =====================",
"===================== *&$&$#$o =====================",
"==================== *&&&$$$##o ====================",
"==================== *&&$$$#$#o ====================",
"=================== *&&$&$$$##oo ===================",
"=================== *&$&$$$#$##o ===================",
"================== *&&$XXoooo#o#o ==================",
"================== **&X%@%@%@o#oo ==================",
"================== *&X%@%@%@%@o#o ==================",
"================== **X%%@%@%@%ooo ==================",
"================== *X%%%@@@@%@%oo ==================",
"================== *X%%@@@@@@%@oo ==================",
"================== *X%%@@@@@%@%#o ==================",
"================== *X%%@@@@@@%@oo ==================",
"================== *&**&&&&&&#o#o ==================",
"================== **&&&$$$$###oo ==================",
"=============      *&&&$&$$#$#o#o      =============",
"============ *&&&&o**&&&$$$$###oo.#*&&& ============",
"=========== *&$$##o*&&&$&$$#$#o#o.#&&$$o ===========",
"=========== *&&$$#o**&&&$$$$###oo.#&$$#o ===========",
"=========== *&$$##o*&&&$&$$#$#o#o.#&&$$o ===========",
"=========== *&&$$#o**&&&$$$$###oo.#&$$#o ===========",
"========== &*&$$##o*&&&oooooo#o#o.#&&$$o. ==========",
"========  &$*&&$$#o**&#**&&&oX#oo.#&$$#o.#  ========",
"======  &&$$*&$$##o*&&#*&$$#oXooo.#&&$$o.#&&  ======",
"====  &&$$$$*&&$$#o**&#&$$$ooXooo.#&$$#o.#$$&&  ====",
"==  &&$$$$$$*&$$##o*&&#&&$$#oXooo.#&&$$o.#$$$$&&  ==",
"= **$$$$$$$$*&&$$#o**&#&$$$ooXooo.#&$$#o.#$$$$$$&&  ",
" *$$$$$+$$$$*&$$##o*&&#&&$$#oXooo.#&&$$o.#$$+$$$$$# ",
" &$$$++OOO$$*&&$$#o**&#&$$$ooXooo.#&$$#o.#++OOO$$$# ",
" &$$$$OOO$$$*&$$##o*&&#&&$$#oXooo.#&&$$o.#$OOO$$$$# ",
" &$$$$O$O$$$*&&$$#o**&#&$$$ooXooo.#&$$#o.#$O$O$$$$# ",
" &$$$$$$$$$$*&$$##o*&&#&&$$#oXooo.#&&$$o.#$$$$$$$$# ",
" &$$$$$$$$$$*&&$$#o**&#&$$$ooXooo.#&$$#o.#$$$$$$$$# ",
" &$########$*&$$##o*&&#&&$$#oXooo.#&&$$o.########$# ",
" &#        #*&&$$#o**&#&$$$ooXooo.#&$$#o.        ## ",
"=  ======== ooooooo*&&#&&$$#oXooo.oooooo ========  =",
"============       **&&XXXXXXoooo       ============",
"==============$o== *&&&&o$ooooooo ==$o==============",
"=============$&o.= #####$&o.ooooo =$&o.=============",
"=============$ o ==     $ o      ==$ o =============",
"============= & .======= & .======= & .=============",
"=============$ o =======$ o =======$ o =============",
"=============$&o.=======$&o.=======$&o.=============",
"====================================================",
"===================================================="
};
