/* XPM */
static char *space_lf1735328018[] = {
/* columns rows colors chars-per-pixel */
"64 64 157 2 ",
"   c #050A12",
".  c #040A12",
"X  c #050B13",
"o  c #040A10",
"O  c #040B13",
"+  c #040913",
"@  c #050C13",
"#  c #040A11",
"$  c #040911",
"%  c #04080F",
"&  c #040910",
"*  c #030810",
"=  c #04090F",
"-  c #03080E",
";  c #03070D",
":  c #03060B",
">  c #03070C",
",  c #02060A",
"<  c #020509",
"1  c #020508",
"2  c #02050A",
"3  c #020408",
"4  c #020306",
"5  c #010305",
"6  c #010102",
"7  c #000101",
"8  c black",
"9  c #000102",
"0  c #010203",
"q  c #020305",
"w  c #020406",
"e  c #010205",
"r  c #010204",
"t  c #000001",
"y  c #050B15",
"u  c #050D15",
"i  c #050B11",
"p  c #070D15",
"a  c #0B151E",
"s  c #060B14",
"d  c #03070B",
"f  c #020407",
"g  c #020507",
"h  c #010306",
"j  c #010304",
"k  c #040B12",
"l  c #050B14",
"z  c #213438",
"x  c #080F17",
"c  c #040B14",
"v  c #03080F",
"b  c #03060C",
"n  c #02060B",
"m  c #02060C",
"M  c #010406",
"N  c #010202",
"B  c #050C14",
"V  c #060C16",
"C  c #03080D",
"Z  c #010307",
"A  c #010407",
"S  c #030910",
"D  c #050A13",
"F  c #03090F",
"G  c #03050A",
"H  c #04070D",
"J  c #080F15",
"K  c #03060A",
"L  c #010101",
"P  c #01060B",
"I  c #030509",
"U  c #010103",
"Y  c #020609",
"T  c #03060D",
"R  c #010408",
"E  c #020307",
"W  c #020405",
"Q  c #020409",
"!  c #03070E",
"~  c #000002",
"^  c #030609",
"/  c #040407",
"(  c #040A13",
")  c #050B16",
"_  c #04080E",
"`  c #010507",
"'  c #000100",
"]  c #050A14",
"[  c #04090E",
"{  c #04080D",
"}  c #040810",
"|  c #050C16",
" . c #030911",
".. c #050A10",
"X. c #050D16",
"o. c #060D18",
"O. c #050911",
"+. c #050C15",
"@. c #060D17",
"#. c #020506",
"$. c #060D16",
"%. c #050A11",
"&. c #010201",
"*. c #02080B",
"=. c #060D1A",
"-. c #070F1B",
";. c #060E16",
":. c #060E19",
">. c #07111D",
",. c #060E18",
"<. c #040912",
"1. c #060E1A",
"2. c #060D19",
"3. c #060E17",
"4. c #050C17",
"5. c #050C12",
"6. c #050D17",
"7. c #04070E",
"8. c #070D16",
"9. c #050B12",
"0. c #040B11",
"q. c #02070E",
"w. c #07101A",
"e. c #070E1A",
"r. c #10191C",
"t. c #0E171B",
"y. c #0C161F",
"u. c #111D27",
"i. c #050D18",
"p. c #070E1B",
"a. c #050D14",
"s. c #040A14",
"d. c #081119",
"f. c #02070B",
"g. c #040B15",
"h. c #03070A",
"j. c #0A1118",
"k. c #091017",
"l. c #03080B",
"z. c #050A0F",
"x. c #091016",
"c. c #070C16",
"v. c #06101B",
"b. c #131C1F",
"n. c #0B1316",
"m. c #060C17",
"M. c #03070F",
"N. c #02070D",
"B. c #0A1217",
"V. c #060A12",
"C. c #060E1B",
"Z. c #060F19",
"A. c #03090D",
"S. c #000103",
"D. c #0A0F14",
"F. c #0A1115",
"G. c #05080D",
/* pixels */
"  . X . o . O + @ X . . # $ % & % * = - ; : > > , < < 1 1 2 < 3 1 4 5 6 7 8 8 8 8 8 7 9 0 5 q 4 w 4 e r 6 7 8 8 8 8 8 8 8 8 8 t ",
". y . $ . u i p a s O . . $ - - = = - - - > > > d < f g f 3 f h f 4 r 7 8 8 8 8 8 8 8 8 6 0 r 0 j r 0 9 7 8 8 8 8 8 8 8 8 8 8 8 ",
"# k O . O X l + z x c . $ = ; ; $ v - ; b n b m : , 3 f h h h M 4 5 0 t 8 8 8 t 8 8 8 8 8 0 0 N N 9 t t t 8 8 8 8 8 8 8 8 8 8 8 ",
"& & # y .     B c V O . = - ; C > > : n , , < < : m 3 h Z h M A 4 r 6 8 8 8 8 8 8 8 8 8 8 7 9 9 t 8 8 8 8 8 8 8 8 8 8 8 8 8 8 8 ",
"= v S = % # &   D X . # F - > > : G G < 1 3 1 3 < < 3 5 h h 5 h 5 r 0 9 7 8 8 8 8 8 8 8 8 8 8 8 8 8 8 8 t 8 8 8 8 8 8 8 8 8 8 8 ",
"v v - C C v v % & $ $ H J > > > K , 2 , < < < f 3 3 4 h w f A h j r r L 7 8 8 8 8 8 8 8 8 8 8 8 8 8 8 8 8 8 8 t 8 8 8 8 8 8 8 8 ",
"b ; b ; ; v F F v v % ; P < G n < < < , , < 1 f h f 4 5 h h f A h r 0 6 8 8 8 8 8 8 8 8 8 8 8 8 8 8 8 8 8 8 8 8 8 8 8 8 t 8 8 8 ",
", , 2 2 > > ; > C C > n < 3 < < < < < 2 < < 3 h h f f 5 5 5 M h 5 r 0 6 t 8 8 8 8 8 8 8 8 8 8 8 8 8 8 8 8 8 8 8 8 8 8 8 8 8 8 8 ",
"1 < < < , : > K , n , 3 3 f I 3 < , , 2 < 1 h 5 5 M A h h h h 5 e 0 U 9 9 8 8 8 8 8 8 8 8 8 8 8 8 8 8 8 8 8 8 8 8 8 8 8 8 8 8 8 ",
"< < 1 1 < < Y 1 3 < 3 f h f 1 3 G : n n < M h h w 1 A M 5 5 5 5 0 6 t 8 8 8 8 8 8 8 8 t 8 8 8 8 8 8 8 8 8 8 8 8 8 8 8 8 8 8 8 8 ",
": < f A A 3 f 3 < < < f f A 3 1 : > : n 1 4 4 h f 2 f f 5 j r U 6 7 8 8 8 8 8 8 t 8 8 8 8 8 8 8 8 8 8 8 8 8 8 8 8 L 8 8 8 8 8 8 ",
"> n 1 f 3 3 f 3 2 2 < 3 h h f 1 < T : 2 R M 5 h A 1 2 E 5 r U L 9 8 8 8 8 8 8 8 8 8 8 8 8 8 8 8 8 8 8 8 8 8 8 8 8 8 8 8 8 8 8 8 ",
"; ; G 3 1 3 1 W 1 3 1 1 Q h h f 2 , m 1 A M h A 1 3 1 E 4 e U 6 L 8 8 t 8 8 8 8 8 8 8 8 8 8 8 8 t t 8 8 8 8 8 8 8 8 8 8 8 8 8 8 ",
"- ; n < 3 3 f 3 3 4 h A w q h A < < 1 3 4 h M A f M f 5 r 5 0 U 6 8 8 8 8 8 8 8 8 8 8 8 8 t 8 t 7 t 8 8 8 8 8 8 8 8 8 8 8 8 8 8 ",
"! > , 3 3 A A f h h 5 5 5 r e r 5 w 4 4 r U r q 4 w 5 r 0 0 r 5 r 6 7 7 7 7 8 7 8 8 t 8 8 8 8 t 7 8 8 7 7 7 t 8 t 7 7 7 8 8 8 8 ",
"v - n < A A h 5 h 5 r 0 r r 0 6 6 U r 0 0 6 6 N r r 0 0 N r q w e r 6 6 0 6 9 9 8 8 8 8 8 8 8 t 7 8 8 7 6 6 7 6 7 6 6 6 7 6 7 7 ",
"# . - > < 3 4 5 5 5 U 0 0 r 6 6 L L 6 0 N 8 t 7 6 9 7 7 6 5 f f 4 5 r j 5 0 7 8 8 8 8 8 8 8 8 t t t 7 7 6 6 6 6 6 6 6 U L 6 7 6 ",
"$ & v ; , < 1 A 4 q 5 0 0 r U 6 6 6 0 r 7 8 8 8 7 9 6 0 0 4 3 3 f f 5 j 5 r 9 8 8 t 7 8 8 8 8 t 8 8 8 6 6 6 7 7 6 6 U 6 6 6 6 6 ",
". S - ; , < w 1 f f 4 q q r r r r 0 5 r 6 7 8 8 t 6 U 0 5 4 f 3 3 < f w 5 5 0 8 8 7 8 8 8 8 8 8 8 8 8 t t 8 8 8 7 6 6 7 7 9 6 6 ",
"$ $ - > n < < , , 2 f f 3 f f A f h h q 0 7 8 8 t 6 6 N j 4 f < < G 1 f w r 9 8 8 8 8 8 8 8 8 8 8 8 8 8 8 8 8 8 8 t 8 8 t 7 6 6 ",
"# $ - ; n : < , 2 n , < < , , 2 d f w 4 q U 7 7 L 6 6 6 0 q f I < < 3 f w 0 t 8 8 8 8 8 8 8 8 8 8 8 8 8 8 8 8 8 8 8 8 t ~ 7 6 6 ",
"# # v - C C n ^ T K : : > > : n < 3 h / 4 r 6 6 U 6 6 6 U j f 3 1 < f 4 r 6 7 7 7 t t 8 8 8 8 8 8 8 8 8 8 8 8 8 8 8 8 8 8 t 9 N ",
"( & = & v v - ; > : C ; C b > > , < f A 5 0 N 6 6 0 U L 6 6 r 4 w f 4 r 0 7 t 7 6 6 7 8 8 8 8 8 8 8 8 8 8 8 8 8 8 8 8 8 8 7 6 6 ",
")   # & = v > ; ; : > ; % % _ > n < 3 h e 0 6 6 6 6 6 6 6 L 0 r 5 4 4 w r 9 7 7 L 6 6 7 7 8 t 8 8 8 8 8 8 8 8 8 8 8 8 8 8 t 9 6 ",
"X O X # $ & & % H > > - % F v K : 2 < h 5 r 0 6 6 0 U 6 7 t 0 ` 5 f 4 f 4 r 6 7 L 6 6 7 9 8 8 8 8 8 8 8 8 8 8 8 8 8 8 8 8 8 7 7 ",
"O O O . $ & & & ; K > _ & & = - ; ; > 1 M h 5 0 N 0 0 7 8 8 8 ' r q h h M r 0 U 0 0 6 6 6 t 8 8 8 8 8 8 8 8 8 8 8 8 8 8 8 8 8 t ",
"( o ] . . . # [ ( = - o $ # & & & & - > : < 1 4 r 0 0 7 8 8 8 6 0 e h q 5 5 5 4 r r 0 6 6 9 8 8 8 8 8 8 8 8 8 8 8 8 8 8 8 8 8 7 ",
". $ = . . y D # $ $ { & y X l D # # } % = > : 1 r 0 0 t 8 8 8 7 6 r W 4 r 5 f f f M 5 q j U 6 7 8 8 8 8 8 8 8 8 8 8 8 8 8 t 8 t ",
"v S $ . O O $ $ & # $ [ D ) l B | X O ( . $ m 3 e 6 9 7 8 8 8 8 6 r 4 q 5 q 1 < < I 1 1 h 0 0 6 8 8 8 8 8 8 8 8 8 8 8 8 8 8 8 7 ",
";  .& # O . $ & $ X l ..X.o = # O l B o.X = n 1 4 6 8 8 8 8 8 t 6 e 5 5 E f Y 2 < , , n 3 5 U t 8 8 8 8 8 8 8 8 8 8 8 8 8 6 L N ",
"> ; - v O.# # . X +.V l X . # # O l X.@.+.$ : 3 h N 8 7 7 6 6 L r w 4 5 f #.< 2 < 2 < 1 1 h 6 t 8 8 8 8 8 8 8 8 8 8 8 8 8 6 N 0 ",
"n > ; v = $ . ( ( B +.X $.$     X %.V @.|   ; , A j 0 &.e M w f *.< f f < b I g 1 < < 3 A j 6 8 8 8 8 8 8 8 8 8 8 8 8 8 7 6 N 6 ",
"2 n C _ v & . # X +.V =.-.@.B o =   | @.;.$ > % : 3 f 4 3 1 , n K 2 K : : > > ! : : K < A r N 7 8 8 8 8 8 8 8 8 8 8 8 8 7 6 6 6 ",
", > ; > ; - & . l @.o.:.>.,.V l # $ +.@.y O & _ ; : 1 < , > ; _ _ > ; _ % <.= v C : , 1 h e N 6 6 7 8 8 8 8 8 8 8 8 8 8 8 7 7 9 ",
"< b C > > - %   +.| :.1.:.o.2.3.# = . 4.| B O # & d K < : ; ! = <.{ = ( 5.& & - > < < 3 h 5 r 0 U 6 8 8 8 8 8 8 8 8 8 8 8 8 8 9 ",
"3 , > > ; ; = l y | :.1.:.1.X.l X y . X +.l B X . D C Y ^ > - } { ( . . . # _ > , < f f f f h r 6 L 8 8 8 8 8 8 8 8 8 8 8 8 t 9 ",
"f , K > > ; - & X l | 6.| +.l . l l l y V l . & o D _ _ o d > & & D X .   . = > : , 1 h M f 4 r 6 7 8 8 8 8 8 8 8 8 8 8 8 8 8 8 ",
"3 < 2 b m b ; - v # ( l l . . . +.B +.+.l   & = % - % & % & & . #   = . . $ & > > > < A f f e 0 t 8 8 8 8 8 8 8 8 8 8 8 8 8 8 8 ",
"3 3 < < Y n > ; C = $   $ ( & D +.l   . _ { v % ; > - - = & # $ 7.8.  9.l X . - - - : 3 A 5 0 6 8 8 8 8 8 8 8 8 8 8 8 8 8 8 8 8 ",
"A f A f f < 2 n ; v & & - % v . O . & & = _ _ ; > n ; * % % & = % 0.$.+.+.2.c { ; ; : 3 f 0 7 8 8 8 8 8 8 8 8 8 8 8 8 8 8 8 8 8 ",
"f f q 5 E 3 , : ; - % _ ; - q.S l # $ _ _ _ * d 2 , : > ; K % D . +.w.e.,.,.+.$ ; K < f e 6 8 8 8 8 8 8 8 8 8 8 8 8 8 8 8 8 8 8 ",
"f q r e 4 4 3 < < : , : , P r.t.v & % > n > > , < 2 : > > H _ & #   y.u.i.@.y . > < 3 M r 6 8 8 8 8 8 8 8 8 8 8 8 8 8 8 8 8 8 8 ",
"5 r 0 0 e e f A A 3 < 2 < , < n ; > n ; > < 2 1 f < K : ; v v # . l ,.p.:.@.6.a.; K f 5 6 7 8 8 8 8 8 8 8 8 8 8 8 8 8 8 8 8 8 8 ",
"r 0 6 N 6 U j 5 5 h E M A A < , , g Y > , 3 I 3 A f < < : ; = # $ o y u @.| | l _ > 1 r 6 8 8 8 8 8 8 8 8 8 8 8 8 8 8 8 8 8 8 8 ",
"5 0 6 6 L 6 U 0 0 r r r 5 4 1 < 3 1 K > 2 1 < < 1 1 2 < b ! & s.. y k d.D l l . % > n h 6 7 8 8 8 8 8 8 8 8 8 8 8 8 8 8 8 8 8 8 ",
"r 6 7 7 7 7 6 6 6 0 0 r q 4 3 3 f 2 , f.n , , < < < d : > * & $ & . O l c g.= & - b 1 M r U 7 8 8 8 8 8 8 8 8 8 8 8 8 8 8 8 8 8 ",
"U 7 t t t t 7 6 6 r 0 r 4 4 f A f , , n > > , , < : > : K > ; - C $ . . . . & & ; ^ < h r 0 N 8 8 8 8 8 8 8 8 8 8 8 8 8 8 8 8 8 ",
"6 7 t 8 8 8 8 7 6 6 6 6 r r q A < , n ; _ ; , K K : > : < : : h.$ & # . # . $ $ $ ; , 1 5 5 6 t 8 8 8 8 8 8 8 8 8 8 8 8 8 8 8 8 ",
"6 L 8 8 8 8 8 8 t 7 L L U e 5 1 n > n ; 7.> > d : : > : 2 : : ; <.% . . . $ & & C - ; , 1 f 5 U L 8 8 8 8 8 8 8 8 8 8 8 8 8 8 8 ",
"6 L t 8 8 8 8 8 8 7 6 6 6 r h 2 : n n > ; n > ; > ; - ; 3 : > - % j.k.% = l.& H $ & % v : 1 f r 0 7 t 8 8 8 8 8 8 8 8 8 8 8 8 t ",
"U 6 8 8 8 8 8 8 t L 6 U 0 5 3 K K K , n n n b ; > - & = } H C - z.x.$.l l . # l y D { { , f Q h r 7 7 7 8 8 8 8 8 8 t 8 8 8 8 8 ",
"0 6 7 t 8 8 8 8 7 7 6 0 r 5 M < < 2 2 T , K > - ; _ $ & $ & { # l | o.@.@.c.. . X y # - n f M h 5 r 6 6 8 8 8 8 8 8 8 8 8 8 8 8 ",
"r 0 N 7 8 t 7 9 9 7 6 0 h h f A 1 < , : K K Y ; % = # # <.# & l +.6.,.o.@.0.B O l . # C K A 5 h 5 r 0 U 7 t t 8 8 8 8 8 8 8 8 8 ",
"5 r j 0 6 N 0 9 t L 0 5 M 3 3 1 < , < 2 , R b b _ % # & # l . i.@.6.v.o.,.l l ( l k & ; , 3 Z h e r r 0 6 t 8 8 8 t 8 8 8 t 7 8 ",
"r r 0 r r 0 0 7 7 L 0 h 3 1 < K , , I : n b.n.n d % # # # . . | m.o.:.o.v.@.l .   $ - M.K 3 A h r r r 0 6 6 8 8 8 8 8 8 8 8 7 t ",
"5 r 5 q r r U 6 6 U 5 4 f 3 < n , K : - N.B.V.= & O.y . . X X +.+.V o.C.,.2.X [ _ C ; : , < A h j r 0 0 U 6 8 8 8 8 8 8 8 8 8 t ",
"w q 4 4 5 r U 6 6 r r e h f < n , > v v & % & & #   D D X l l X +.| 6.@.@.@.O & - ! K : 2 1 A h r 0 0 U 6 6 7 8 8 8 t 8 8 8 8 8 ",
"f 1 1 f h r 0 0 0 r r 5 A 3 , : b - S & . # . . . & & . X ) | ( l | | | $.l D   & v _ , < < f h 5 r r r 0 0 0 9 8 8 8 8 8 8 8 8 ",
"1 < < 1 M 5 e 0 0 0 5 h 3 1 < : - &  .  # . O . $ & { # # . # & . l | Z.4.} # & = - - > n 1 f w 5 r 0 0 0 r r 0 N t 8 8 8 8 8 8 ",
"< 2 < 3 1 5 j r 5 5 h 1 3 w , ; % $ #   . . $ & { % v = v & A.v & . X X X # & F H - ; > , f f f q r 0 S.0 r r 0 0 9 t 7 8 8 8 8 ",
"< , 2 < 3 h 5 5 A A f < < < ; v & #   # . . # & - F - ; ; ; - - $ = & $ & % _ - D.> : > K 3 E 4 e 0 6 6 0 0 r 5 r N 9 7 8 8 8 8 ",
"> > : n 3 f f 3 3 1 1 3 2 d - v & & o & v $ % d _ ; > ! n > n : C ; - _ ; - v ; h.: , b K 3 4 e r 0 6 6 6 0 0 5 r 0 N t 8 8 8 8 ",
"; ; ; n K < < , K K : ^ 3 > % - v v - ; v v - > > n 2 < 1 K , , b > : > > ; - > : 2 K : 2 1 f j r 0 N U U U U r r 0 6 t 8 t 8 8 ",
"v v ! > K : > > : : b F.G.> v ; - - b < > b d : > , 1 Z f < < < < : : , > b ; ; K g K , Q 3 w 5 r 0 N 0 U U 6 U 0 N 6 7 t 8 8 8 "
};
