/* XPM */
static char *RockTileSet2020_2_1735288183[] = {
/* columns rows colors chars-per-pixel */
"40 40 10 1 ",
"  c #373737",
". c gray29",
"X c #4B4B4B",
"o c #4E4E4E",
"O c #505050",
"+ c gray35",
"@ c #797979",
"# c #838383",
"$ c #A2A2A2",
"% c None",
/* pixels */
"XXXXXXXXXXXXXXXXXXXXXXXXXXXXXXXXXXXXXXXX",
"XX$$$$$$$$$$$$$$$$$$$$$$$$$$$$$$$$$$$$XX",
"X$X@@X#@@##@@##@@@####@@@##@@##@@#X@@X$X",
"X$@X@@$####@@####@@###@@@@###@@@@@@$X$@X",
"X$@@XXXXXXXXXXXXXXXXXXXXXXXXXXXXXXXX$@@X",
"X$X@XXoXX ..XX   ...... .....  .XXXX$X@X",
"X$@$XX#@@+@@@+$@+$@@##@+$@@#+$+$@#@X$@$X",
"X$#@XX@#@+$@+$##+$@++@@+$@#+$@+$#@#X$#@X",
"X$#@X.@@#+$+$#@#o++$$+@++++$#%+$@#@X$#@X",
"X$@#X.@++$+$@@@@o$$##$+++$$#@+$++@@X$@#X",
"X$@#X.+$$@$++++@o$@@##+oX+@@+$@$$+@X$@#X",
"X$#@X $#@@@$++++o++@@#+oo+++$@@#@$+X$#@X",
"X$@#XX@@##@@$+$$$++@@@+$$$+$@@#@#@$X$@@X",
"X$#@X @@@@#@+$@@@$++++$@@@$+@####@+X$#@X",
"X$#@XX+++++++$@#@+$$$$+$@@@+++++++$X$#@X",
"X$@#XX$+$$$Xo$@#@+$@@@+$@#@o+$$$+$@X$@@X",
"X$#@X.@+$@+$$+$#@+$@#@+$@#+$$+@@+$@X$#@X",
"X$#@XX@+$+$@$+$#@+$@@#+$@#+$@$+@+$@X$#@X",
"X$#@X.@@+$@@@$+@@@++++$@@+$@@@$+$@@X$#@X",
"X$#@X ++$@@##@$oo+$$$$+++$@@@@@$+++X$##X",
"X$#@X ++$@@#@#@+++$@@@oo+$@@@@@@oo+X$##X",
"X$#@XX$$+@@@#@+$$$++++$$$+$@@@@+$$$X$##X",
"X$#@XX@+$+@@@+$@@+$$$$+$@$+$@@+$+$@X$##X",
"X$#@XX@+$@+@@+$@@+$@#@+$@$+$@+$@+$@X$#@X",
"X$@#X.@+$@@++$@@@+$@#@+$@@$++$@@+$@X$@@X",
"X$#@X.+++++++$@##+$@@#+$@@@oo+++++@X$#@X",
"X$#@X $$$$$$+$@#++++++$@@@@+$$$$$$+X$##X",
"X$@#X.@@##@@$+@#++$$$$+$@@+$@@@#@@@X$@#X",
"X$#@X @@###@++ooo+@@@@$+++++@##@@@+X$##X",
"X$@#X.+@@#@+$$$$+$@@@#@++$$$+@##@+$X$@@X",
"X$@#X.$++@+$@@@@+$@@##@+$@@@$+@oo$@X$@@X",
"X$#@X.@$$+$+@###+$@@##@+++@@@$+$$@@X$##X",
"X$#@X.@@@+$$+@#@+$+++#@o$@+#@@+$@@@X$##X",
"X$@#X.@@@+$#$+++++$$$++o$@#++@+$@@@X$@@X",
"X$X@X.@@@+$@@$$$+$@##$$X$@@##++$@@@X$X@X",
"X$@$XXXXXXXXXXXXXXXXXXXXXXXXXXXXXXXX$@$X",
"X$@X$$$$$$$$$$$$$$$$$$$$$$$$$$$$$$$$X@@X",
"X$X$@X#@@##@@##@@@####@@@##@@##@@#X@@X@X",
"XX$@@@$##@@##@@###@@@@###@@##@@##@@$@@XX",
"XXXXXXXXXXXXXXXXXXXXXXXXXXXXXXXXXXXXXXXX"
};
