/* XPM */
static char *player1735287460[] = {
/* columns rows colors chars-per-pixel */
"32 32 205 2 ",
"   c black",
".  c #040508",
"X  c #0F0F0D",
"o  c #040C14",
"O  c #111112",
"+  c #1E1E1F",
"@  c #0C1D31",
"#  c #0E2339",
"$  c #262627",
"%  c #2E2E2F",
"&  c gray23",
"*  c #1B4A75",
"=  c #545455",
"-  c #595964",
";  c #4E6678",
":  c #656569",
">  c #717272",
",  c #767575",
"<  c #1C5080",
"1  c #24639B",
"2  c #2B73AB",
"3  c #2F7FBB",
"4  c #798295",
"5  c #7A879D",
"6  c #7E899F",
"7  c #3689C1",
"8  c #4D91C2",
"9  c #40A1E2",
"0  c #4AB3EE",
"q  c #4ABEFA",
"w  c #808080",
"e  c #848489",
"r  c #898B95",
"t  c #888C9B",
"y  c #8390A5",
"u  c #8F99AC",
"i  c #929BAE",
"p  c #979BAC",
"a  c #919FAF",
"s  c #9A9DAC",
"d  c #95A0B2",
"f  c #9AA2B3",
"g  c #9DA4B2",
"h  c #9FA5B3",
"j  c #ACACAE",
"k  c #A4A9B6",
"l  c #A7ADB8",
"z  c #A7AEBA",
"x  c #A6AABE",
"c  c #A9ABB8",
"v  c #A8AABA",
"b  c #AAACBA",
"n  c #AAAEBD",
"m  c #ADAFBF",
"M  c #AEB1BE",
"N  c #FE8BA4",
"B  c #ADB4C1",
"V  c #AEB3C8",
"C  c #B3B1C2",
"Z  c #B1B4C0",
"A  c #B1B5C5",
"S  c #B3B7C7",
"D  c #B6B7C4",
"F  c #B3B8C4",
"G  c #B2B9C8",
"H  c #B6B9C8",
"J  c #B2BDCA",
"K  c #B7BCCC",
"L  c #BBBECD",
"P  c #B9BDD7",
"I  c #F0B4C8",
"U  c #BEC0CB",
"Y  c #BEC2CC",
"T  c #BDC2CF",
"R  c #BCC5D1",
"E  c #BFC7D3",
"W  c #BCC5DC",
"Q  c #C2C3CE",
"!  c #C2C4CE",
"~  c #C3C5CE",
"^  c #C4C2D0",
"/  c #C4C3D1",
"(  c #C3C5D3",
")  c #C3C7D2",
"_  c #C4C7D0",
"`  c #C5C8D0",
"'  c #C5C8D1",
"]  c #C7C9D1",
"[  c #C1CAD7",
"{  c #C4C8D6",
"}  c #C8C9D2",
"|  c #C8CBD4",
" . c #C8CAD5",
".. c #CBCAD6",
"X. c #CCCCD6",
"o. c #C2C5DB",
"O. c #CBCFD8",
"+. c #CACEDA",
"@. c #C9C9DD",
"#. c #C9D3DD",
"$. c #C9D3DF",
"%. c #CCD0DC",
"&. c #D1D1D2",
"*. c #D0D1D8",
"=. c #D1D3DA",
"-. c #D7D6D8",
";. c #D3D2DD",
":. c #D2D6DC",
">. c #D5D6DE",
",. c #D6D9DE",
"<. c #DDDDDD",
"1. c #F5D5DF",
"2. c #C7CDE1",
"3. c #CECFE0",
"4. c #CAD1E2",
"5. c #CBD6E2",
"6. c #CCD4E0",
"7. c #CFD7E6",
"8. c #CED9E2",
"9. c #D3D3E2",
"0. c #D7D4E0",
"q. c #D1D2E4",
"w. c #D8D6E1",
"e. c #D8D7E2",
"r. c #D3DFE7",
"t. c #D4DCE4",
"y. c #DADBE1",
"u. c #D9D8E3",
"i. c #DBDBE2",
"p. c #DBDCE1",
"a. c #DBDCE2",
"s. c #DDDDE3",
"d. c #D8D9E4",
"f. c #DBDAE4",
"g. c #D9D9E6",
"h. c #DDDDE5",
"j. c #DDDEE4",
"k. c #D4DAE8",
"l. c #D2DEE8",
"z. c #D7DEE9",
"x. c #D5DFEB",
"c. c #D7DAEE",
"v. c #DCDDE9",
"b. c #DFDEE9",
"n. c #E7DBE4",
"m. c #E0DEE7",
"M. c #E0DEE8",
"N. c #D9E0E7",
"B. c #DCE2EB",
"V. c #D9E5EE",
"C. c #E2E2E5",
"Z. c #E1E1E7",
"A. c #E1E2E6",
"S. c #E2E0E8",
"D. c #E2E1E9",
"F. c #E2E2E9",
"G. c #E4E5EB",
"H. c #E0E5EF",
"J. c #E6E5EC",
"K. c #E6E5ED",
"L. c #E7E7EC",
"P. c #E7E6ED",
"I. c #E5E8ED",
"U. c #E7E8ED",
"Y. c #E6E9EE",
"T. c #E8E9EC",
"R. c #EAEAEF",
"E. c #EBEAEF",
"W. c #ECECEC",
"Q. c #F1E3EA",
"!. c #E5E6F5",
"~. c #E0ECF3",
"^. c #E8E9F0",
"/. c #EBEAF0",
"(. c #EAECF1",
"). c #EDECF1",
"_. c #ECEDF2",
"`. c #EDEEF3",
"'. c #EFEFF2",
"]. c #E2F0F7",
"[. c #E4F0F8",
"{. c #EBF4F8",
"}. c #EEFAFD",
"|. c #EAFDFC",
" X c #F0F0F3",
".X c #F2F2F4",
"XX c #F2F2F5",
"oX c #F0F3F7",
"OX c #F4F4F7",
"+X c #F6F6F7",
"@X c #F3F7F9",
"#X c #F7F7F8",
"$X c #F6F8F9",
"%X c #F6FAFC",
"&X c #F6FEFF",
"*X c #F8F8FA",
"=X c #FAFAFB",
"-X c #FBFBFC",
";X c #FAFFFF",
":X c #FCFCFD",
">X c #FDFDFD",
",X c #FEFEFE",
"<X c #FEFFFF",
"1X c white",
"2X c None",
/* pixels */
"2X2X2X2X2X2X2X2X2X2X2X2X2X2X2X;.f.>. .H 2X2X2X2X2X2X2X2X2X2X2X2X",
"2X2X2X2X2X2X2X2X2X2X2X2X2XQ s.+X'.j > : r b 2X2X2X2X2X2X2X2X2X2X",
"2X2X2X2X2X2X2X2X2X2X2X2X' T.-X&.$       . ; f 2X2X2X2X2X2X2X2X2X",
"2X2X2X2X2X2X2X2X2X2X2X~ T.<X<.O         < q 8 r 2X2X2X2X2X2X2X2X",
"2X2X2X2X2X2X2X2X2X2X2Xh.-X<X=   @ 7 2 o * < o $ n 2X2X2X2X2X2X2X",
"2X2X2X2X2X2X2X2X2X2X' '.<XW.X . 9 0 3 #       + =.2X2X2X2X2X2X2X",
"2X2X2X2X2X2X2X2X2X2X*.#X<XA.. . 1 o       X - +.H.2X2X2X2X2X2X2X",
"2X2X2X2X2X2X2X2X2X2Xp.<X<X=X&       . % e ( c.H.%.2X2X2X2X2X2X2X",
"2X2X2X2X2X2X2X2X2X2XA.<X<X<XT.w , j -.'.!.c.B.8.2X2X2X2X2X2X2X2X",
"2X2X2X2X2X2X2X2X2X2XA.<X:X<X<X<X<X<XoXH.V.~.r.2X2X2X2X2X2X2X2X2X",
"2X2X2X2X2X2X2X2X2X2Xe.:X<X<X-X$X@X{.[.].V.6.2X2X2X2X2X2X2X2X2X2X",
"2X2X2X2X2X2X2X2X2X2X>.h.<X;X&X&X}.~.l.J d x L ( 2X2X2X2X2X2X2X2X",
"2X2X2X2X2X2X2X2X2X2XG.F R t.t.#.J d 6 6 d V { y.U.2X2X2X2X2X2X2X",
"2X2X2X2X2X2X2X2X2XS.$X'.J a y 6 5 y u h B ( d.E.=XS.2X2X2X2X2X2X",
"2X2X2X2X2X2X2X2X@X'.=.,.+XA.U z g g v G { f.^.#X=Xf. .2X2X2X2X2X",
"2X2X2X2X2X2X2Xs.:XT.U b =.<X<X+XP.a.j.S.E.OX@X@XB.K 0.2X2X2X2X2X",
"2X2X2X2X2X2X2XOX:XX.k k B -X<X<X=X$X'.P.b.4.2.4.5.C h.2X2X2X2X2X",
"2X2X2X2X2X2XA.:X'.D s s k +X<X:X$XQ.n.q.o.P W 7.+.v S.e.2X2X2X2X",
"2X2X2X2X2X2XXX<Xe.2Xk k B #X&X|.|.N I k.@.o.2.l.R C P.m.2X2X2X2X",
"2X2X2X2X2X2X<XOX2X2XF  ./ -X<X:X@X1.n.t.4.2.5.5.2X^ ^.P.2X2X2X2X",
"2X2X2X2X2XS.<XP.2X2X/ s.:.=X<X:X#XXXK.d.3.2.k.8.2X/ E.P.2X2X2X2X",
"2X2X2X2X2X/.=Xy.2X2X' G.h.=X<X:X#X'.G.f.q.k.N.4.2XA A.E.2X2X2X2X",
"2X2X2X2X2XXX'.2X2X2XU G.G.-X<X:X#X XP.h.f.k.x.2X2X2Xa.^.2X2X2X2X",
"2X2X2X2XQ #Xh.2X2X2X2Xs.'.=X<X:X#X XP.b.v.x.%.2X2X2Xy.E.2X2X2X2X",
"2X2X2X2X' '.2X2X2X2X2X%.'.=X<X-X$X'.U.S.B.x.A 2X2X2X>.E.2X2X2X2X",
"2X2X2X2X} S.2X2X2X2X2XZ U.$X<X<X$X'.R.G.B.[ 2X2X2X2X .s.2X2X2X2X",
"2X2X2X2X~ ;.2X2X2X2X2X2X:.OX;X-X#X X^.P.j.a 2X2X2X2X2X2X2X2X2X2X",
"2X2X2X2X2X2X2X2X2X2X2X2XM E.+X#XXX'.U.U.G 2X2X2X2X2X2X2X2X2X2X2X",
"2X2X2X2X2X2X2X2X2X2X2X2X2X] XX@XXX`.(.%.2X2X2X2X2X2X2X2X2X2X2X2X",
"2X2X2X2X2X2X2X2X2X2X2X2X2X4 +.'.XXU.T 2X2X2X2X2X2X2X2X2X2X2X2X2X",
"2X2X2X2X2X2X2X2X2X2X2X2X2X2X2Xp z t 2X2X2X2X2X2X2X2X2X2X2X2X2X2X",
"2X2X2X2X2X2X2X2X2X2X2X2X2X2X2X2X2X2X2X2X2X2X2X2X2X2X2X2X2X2X2X2X"
};
