/* XPM */
static char *_df9d09ba63d4f5fdcfa88561b4bf75aQmwUs0KoDiH8RhDR[] = {
/* columns rows colors chars-per-pixel */
"64 64 8 1 ",
"  c None",
". c #0B0B0B",
"X c #070707",
"o c #323232",
"O c black",
"+ c #060606",
"@ c #727272",
"# c gray7",
/* pixels */
"                                                            ....",
".                                                         ...XX.",
"...........................................................X.XX.",
".ooooooooooooooooooooooooooooooooooooo.oo.oooooooooooooooo.X.XX.",
".ooooooooooooooooooooooooooooooooooooo.oo.oo.oooooooooo.oo.X.XX.",
".ooo...............................ooo.oo.o.O.oooooooo.O.o.X.XX.",
".ooo.+++++++++++++++++++++++++++++.ooo.oo.oo.oooooooooo.oo.X.XX.",
".ooo.+ooooooooooooooooooooooooooo@.ooo.oo.oooooooooooooooo.X.XX.",
".ooo.+oo@@@@@@@@@@@@@@@@@@@@@@@@o@.ooo.oo.oooooooooooooooo.X.XX.",
".ooo.+oo@oooooooooooooooooooooo#o@.ooo.oo.oooooooooooooooo.X.XX.",
".ooo.+oo@oooooooooooooooooooooo#o@.ooo.oo.oooooooooooooooo.X.XX.",
".ooo.+oo@oooooooooooooooooooooo#o@.ooo.oo.oooooooooooooooo.X.XX.",
".ooo.+oo@oooooooooooooooooooooo#o@.ooo.oo.oooooooooooooooo.X.XX.",
".ooo.+oo@oooooooooooooooooooooo#o@.ooo.oo.oooooooooooooooo.X.XX.",
".ooo.+oo@oooooooooooooooooooooo#o@.ooo.oo.oooooooooooooooo.X.XX.",
".ooo.+oo@oooooooooooooooooooooo#o@.ooo.oo.oooooooooooooooo.X.XX.",
".ooo.+oo@oooooooooooooooooooooo#o@.ooo.oo.oooooooooooooooo.X.XX.",
".ooo.+ooo@ooooooooooooooooooooo#o@.ooo.oo.oooooooooooooooo.X.XX.",
".ooo.+oooo######################o@.ooo.oo.oooooooooooooooo.X.XX.",
".oooo.ooooooooooooooooooooooooooo@.ooo.oo.oooooooooooooooo.X.XX.",
".ooooo.@@@@@@@@@@@@@@@@@@@@@@@@@o@.ooo.oo.oooooooooooooooo.X.XX.",
".oooooo............................ooo.oo.oooooooooooooooo.X.XX.",
".ooooooooooooooooooooooooooooooooooooo.oo.oooooooooooooooo.X.XX.",
".ooooooooooooooooooooooooooooooooooooo.oo.oooooooooooooooo.X.XX.",
".......................................oo.oo.oooooooooo.oo.X.XX.",
".ooooooooooooooooooooo.oooooooooooooooooo.o.O.oooooooo.O.o.X.XX.",
".oooooooooooooooooooooo.ooooooooooooooooo.oo.oooooooooo.oo.X.XX.",
".ooooooooooooooooooooooo.oooooooooooooooo.oooooooooooooooo.X.XX.",
".oooooooooooooooooooooooo..................................X.XX.",
".oooooo.............oooooo.oooooooooooooo.oooooooooooooooo.X.XX.",
".ooooo.+++++++++++++.oooooo...............oooooooooooooooo.X.XX.",
".oooo.+ooooooooooooo+.oooooo.oooooooooooo.oooooooooooooooo.X.XX.",
".ooo.+ooooooooooooooo+.oooooo.ooooooooooo.oooooooooooooooo.X.XX.",
".ooo.+ooo@@@@@@@@@oooo+.oooooo.oooooooooo.oooooooooooooooo.X.XX.",
".ooo.+oo@ooooooooo#oooo+.oooooo.ooooooooo.oooooooooooooooo.X.XX.",
".ooo.+oo@oooooooooo#oooo+.oooooo..........oooooooooooooooo.X.XX.",
".ooo.+oo@ooooooooooo#oooo+.oooooo.ooooooo.oooooooooooooooo.X.XX.",
".ooo.+oo@oooooooooooo#oooo+.oooooo.........................X.XX.",
".ooo.+oo@ooooooooooooo#oooo+.oooooo.ooooo.oooooooooooooooo.X.XX.",
".ooo.+oo@oooooooooooooo#oooo+.oooooo.oooo.oo.oooooooooo.oo.X.XX.",
".ooo.+oo@ooooooooooooooo#oooo+.oooooo.ooo.o.O.oooooooo.O.o.X.XX.",
".ooo.+oo@oooooooooooooooo#oooo+.oooooo.oo.oo.oooooooooo.oo.X.XX.",
".ooo.+oo@ooooooooooooooooo#oooo+.ooooo.oo.oooooooooooooooo.X.XX.",
".ooo.+oo@oooooooooooooooooo#oooo+.oooo.oo.oooooooooooooooo.X.XX.",
".ooo.+oo@ooooooooooooooooooo#oooo@.ooo.oo.oooooooooooooooo.X.XX.",
".ooo.+oo@oooooooooooooooooooo#ooo@.ooo.oo.oooooooooooooooo.X.XX.",
".ooo.+oo@oooooooooooooooooooo#ooo@.ooo.oo.oooooooooooooooo.X.XX.",
".ooo.+oo@oooooooooooooooooooo#ooo@.ooo.oo.oooooooooooooooo.X.XX.",
".ooo.+oo@oooooooooooooooooooo#ooo@.ooo.oo.oooooooooooooooo.X.XX.",
".ooo.+oo@oooooooooooooooooooo#ooo@.ooo.oo.oooooooooooooooo.X.XX.",
".ooo.+oo@oooooooooooooooooooo#ooo@.ooo.oo.oooooooooooooooo.X.XX.",
".ooo.+oo@oooooooooooooooooooo#ooo@.ooo.oo.oooooooooooooooo.X.XX.",
".ooo.+oo@oooooooooooooooooooo#ooo@.ooo.oo.oooooooooooooooo.X.XX.",
".ooo.+oo@oooooooooooooooooooo#ooo@.ooo.oo.oooooooooooooooo.X.XX.",
".ooo.+oo@oooooooooooooooooooo#ooo@.ooo.oo.oooooooooooooooo.X.XX.",
".ooo.+oo@oooooooooooooooooooo#ooo@.ooo.oo.oooooooooooooooo.X.XX.",
".ooo.+oo@oooooooooooooooooooo#ooo@.ooo.oo.oooooooooooooooo.X.XX.",
".ooo.+ooo#####################ooo@.ooo.oo.oooooooooooooooo.X.XX.",
".ooo.+ooooooooooooooooooooooooooo@.ooo.oo.oo.oooooooooo.oo.X.XX.",
".ooo.+@@@@@@@@@@@@@@@@@@@@@@@@@@@@.ooo.oo.o.O.oooooooo.O.o.X.XX.",
".ooo...............................ooo.oo.oo.oooooooooo.oo.X.XX.",
".ooooooooooooooooooooooooooooooooooooo.oo.oooooooooooooooo.X.XX.",
"...........................................................X.XX.",
"................................................................"
};
