/* XPM */
static char *baf59543da1b4434b05159fed882c9cevrgLcTBAZ9kvF0il[] = {
/* columns rows colors chars-per-pixel */
"64 64 145 2 ",
"   c None",
".  c #1D181B",
"X  c #292526",
"o  c #2B2728",
"O  c #332C2E",
"+  c #353132",
"@  c #3C3738",
"#  c #423E3F",
"$  c #413F40",
"%  c #454243",
"&  c #484144",
"*  c #524E4F",
"=  c #5D575A",
"-  c #5E5A5B",
";  c #645F62",
":  c #636061",
">  c #686667",
",  c #6A6768",
"<  c #6C6C6C",
"1  c #6F6F73",
"2  c #747474",
"3  c #74757A",
"4  c #7A7A7A",
"5  c #87827E",
"6  c #89847E",
"7  c #8E8C7F",
"8  c #94937F",
"9  c #A7A57F",
"0  c #ABA37D",
"q  c #CDC07C",
"w  c #DCCD7B",
"e  c #E1CF77",
"r  c #E5D373",
"t  c #EAD573",
"y  c #EDD974",
"u  c #F6DF71",
"i  c #F2D279",
"p  c #F1E477",
"a  c #F6E874",
"s  c #FFF571",
"d  c #6E7C84",
"f  c #747F84",
"g  c #7C7C81",
"h  c #6F8188",
"j  c #798286",
"k  c #72868E",
"l  c #768992",
"z  c #788B92",
"x  c #848384",
"c  c #888687",
"v  c #888887",
"b  c #81878D",
"n  c #8B8B8B",
"m  c #989780",
"M  c #96938E",
"N  c #99978D",
"B  c #868C92",
"V  c #8C8E92",
"C  c #949494",
"Z  c #9C9993",
"A  c #9D9C9D",
"S  c #A19F95",
"D  c #ACA582",
"F  c #A5A48D",
"G  c #B6B28B",
"H  c #8299A5",
"J  c #899FAA",
"K  c #88A1AC",
"L  c #94A5AD",
"P  c #8FA8B2",
"I  c #93A6B1",
"U  c #92A9B4",
"Y  c #A4A4A4",
"T  c #A8A7A7",
"R  c #A7A7A8",
"E  c #AAABAB",
"W  c #B0AEAA",
"Q  c #BBB6AB",
"!  c #AEAFB0",
"~  c #B3B3B3",
"^  c #B3B4BB",
"/  c #BCBCBC",
"(  c #C1BA83",
")  c #C4BDA4",
"_  c #CCC482",
"`  c #E3C682",
"'  c #C9C0A1",
"]  c #BFC0C0",
"[  c #B9CED7",
"{  c #B5CFD9",
"}  c #B9CFD9",
"|  c #B3D0DE",
" . c #B8D0DB",
".. c #96C9E0",
"X. c #9CCBE1",
"o. c #A3CEE2",
"O. c #A7D0E3",
"+. c #ACD2E3",
"@. c #B4D5E4",
"#. c #B9D7E5",
"$. c #BCD9E6",
"%. c #ADDEF5",
"&. c #C4C4C4",
"*. c #CCCCCC",
"=. c #D2D2D2",
"-. c #D5D5D5",
";. c gray83",
":. c #D7D7D7",
">. c #D8D8D8",
",. c gray85",
"<. c #DBDBDB",
"1. c gainsboro",
"2. c #DDDEDE",
"3. c #DFDFDF",
"4. c #DDDEDD",
"5. c #C3DBE7",
"6. c #C9DEE7",
"7. c #C6DDE9",
"8. c #CCDFE8",
"9. c #CFE0E8",
"0. c #D0E0E8",
"q. c gray88",
"w. c #E2E2E2",
"e. c gray89",
"r. c #E3E4E3",
"t. c gray90",
"y. c #E6E6E6",
"u. c #E7E7E7",
"i. c #E5E6E5",
"p. c gray91",
"a. c #E9E9E9",
"s. c #EAEAEA",
"d. c gray92",
"f. c #EBECEB",
"g. c #ECECEC",
"h. c gray93",
"j. c #EEEEEE",
"k. c #EFEFEF",
"l. c gray94",
"z. c #F1F1F1",
"x. c gray95",
"c. c #F6F6F6",
"v. c white",
"b. c gray99",
"n. c #F9F9F9",
/* pixels */
"                                                                                                                                ",
"                                                                                                                                ",
"                                                                                                                                ",
"                                                                                                                                ",
"                                                                                                                                ",
"                                                                                                                                ",
"                                                                                                                                ",
"                                                                                                                                ",
"                                                                                                                                ",
"                                                                                                                                ",
"                                                                                                                                ",
"                                                                                                                                ",
"                                                    v.v.d.d.t.q.-.*.&.*.&.                                                      ",
"                                                j.j.j.z.z.z.z.f.q.>.=.&./ ^ ~                                                   ",
"                                              c.n.v.>./ Y x 4 4 x c n A E / &./                                                 ",
"                                            Y : @ . X + # * - ; = * & @ O X o % ,                                               ",
"                                          % > C E ] *.-.3.r.t.t.t.t.3.=.&./ T c , $                                             ",
"                                    3.q.=.>.>.3.3.q.t.d.d.d.d.d.d.p.t.q.q.3.-.*.&./ ^ &.&.                                      ",
"                                  -.>.3.q.t.d.j.j.j.z.z.z.j.k.j.z.j.j.j.d.d.t.q.3.>.=.*.&./ *.                                  ",
"                            -.>.>.3.q.t.d.j.j.j.j.d.d.d.t.t.q.q.q.q.t.q.t.t.t.t.t.3.>.-.*.*.&.&.&.                              ",
"                      t.-.>.>.*.&.&./ ^ ^ E E E E E R R E R ^ ^ ^ R R R R R E R Y E ~ ~ / / / / &.&.&.&.                        ",
"                    *.&./ ~ E ~ ~ E E E ! Q ) ~ R Y Y A A Y w u e Y Y A Y Y Y Q ' ) W R R R E E R E E ~ /                       ",
"                  E Y Y Y Y Y Y A Y A A S a s _ V n n c c x 8 9 8 c c n n n V ( p p F C C C C C C C C C C Z                     ",
"                  C C C Z Z V n n c c x x g 3 3 2 < 2 4 4 4 x x c c c x 4 4 2 1 1 3 x c x c x x n M N n g c                     ",
"                      D t t 0 3 4 4 2 2 < 4 c n C Z C C C C C C C C C C C C C v x 2 1 4 4 4 4 3 7 r y q                         ",
"                                      4 6 V B j f h k k l l z z l l l l l k d f b V 5 4                                         ",
"                                          i G H J U I I L L L L L L L L I P K H F `                                             ",
"                                                  +.@.@. .} } [ [ { { | @.+.                                                    ",
"                                                  @.#.$.5.8.8.8.8.7.5.#.@.+.O.                                                  ",
"                                                +.@.$.5.6.8.9.9.8.6.5.5.#.@.O.                                                  ",
"                                                @.#.5.5.6.9.9.9.9.8.6.5.$.@.+.                                                  ",
"                                                @.$.5.6.8.9.9.9.9.8.6.5.$.#.@.                                                  ",
"                                                @.$.5.6.8.9.9.9.9.9.8.5.5.#.@.                                                  ",
"                                              @.@.$.5.6.8.9.9.9.9.9.8.5.5.$.@.+.                                                ",
"                                              @.#.5.5.6.8.9.9.9.9.9.8.6.5.$.@.+.                                                ",
"                                              @.#.5.5.6.8.9.9.9.9.9.8.6.5.$.@.+.                                                ",
"                                              @.#.5.6.8.9.9.0.0.9.9.8.6.5.$.@.+.                                                ",
"                                              @.#.5.6.8.8.9.9.9.9.9.8.6.5.$.@.+.                                                ",
"                                              @.#.5.6.8.8.9.9.9.9.9.8.6.5.$.@.+.O.                                              ",
"                                            O.@.#.5.6.8.8.9.9.9.9.9.8.6.5.$.@.+.O.                                              ",
"                                            O.@.#.5.6.8.9.9.9.9.0.9.8.6.5.$.@.+.O.                                              ",
"                                            O.@.#.5.6.8.9.9.0.0.0.0.8.6.5.$.@.+.O.                                              ",
"                                            O.@.#.5.6.8.9.9.9.9.0.0.8.6.5.$.@.+.O.                                              ",
"                                            O.@.#.5.6.8.8.9.9.9.9.9.8.6.5.$.@.+.O.o.                                            ",
"                                          o.O.@.#.5.6.8.8.9.9.9.9.9.8.6.5.$.@.+.O.o.                                            ",
"                                          o.O.@.#.5.6.8.9.9.9.9.9.9.8.6.5.$.@.+.O.o.                                            ",
"                                          o.O.@.#.5.6.8.9.9.0.0.9.9.8.6.5.$.@.+.O.o.                                            ",
"                                          o.O.@.#.5.5.6.8.9.9.9.9.9.8.6.5.$.@.+.O.o.                                            ",
"                                        X.o.O.@.#.5.5.6.8.9.9.9.9.9.8.6.5.$.@.+.O.o.                                            ",
"                                        X.o.O.@.@.$.5.6.8.9.9.9.9.9.8.5.5.#.@.O.o.X.X.                                          ",
"                                        X.o.O.+.@.$.5.6.8.9.9.9.9.9.8.5.5.#.@.O.o.X.X.                                          ",
"                                        X.o.o.+.@.#.5.5.8.9.9.0.9.8.6.5.$.#.+.O.o.X.X.                                          ",
"                                        X.X.o.O.@.#.5.5.6.8.9.9.9.8.6.5.#.@.+.O.o.X.X.                                          ",
"                                        X.X.o.O.+.@.$.5.5.6.8.8.8.6.5.5.#.@.O.o.o.X.X...                                        ",
"                                      X.X.X.o.o.O.@.#.$.5.5.6.6.5.5.5.#.@.+.O.o.X.X.X...                                        ",
"                                      ..X.X.X.o.O.+.@.@.#.$.5.5.5.$.#.@.+.O.o.o.X.X.....                                        ",
"                                      ....X.X.o.o.O.+.@.@.#.#.#.#.@.@.+.O.o.o.X.X.X.....                                        ",
"                                  ........X.X.X.o.o.O.O.+.@.@.@.@.@.+.O.o.o.X.X.X...........                                    ",
"                                                  %.o.o.O.O.O.+.O.O.O.o.%.%.                                                    ",
"                                                                                                                                ",
"                                                                                                                                ",
"                                                                                                                                ",
"                                                                                                                                ",
"                                                                                                                                "
};
