/* XPM */
static char *WALL1735331043[] = {
/* columns rows colors chars-per-pixel */
"64 64 26 1 ",
"  c #060700",
". c #070901",
"X c #0A0C03",
"o c #0E1106",
"O c #0F1109",
"+ c #101207",
"@ c #12140A",
"# c #15190E",
"$ c #181C0F",
"% c #161B11",
"& c #1A1D13",
"* c #1D2116",
"= c #1E2319",
"- c #23251C",
"; c #28271F",
": c #25291E",
"> c #282A1E",
", c #252720",
"< c #262A20",
"1 c #2C2D25",
"2 c #2E2E28",
"3 c #302D25",
"4 c #302F29",
"5 c #2C3025",
"6 c #2E3029",
"7 c #303129",
/* pixels */
".X   .X .X..X.. .XX.X X....X .XX XXX XX X X    XXXXX..XX.X..... ",
"&-&&***%X#**&&&&&&&&&&&&&&&&&&&&&$$&**&&&&-&&&&&&&&&&%X#&&&&*&&&",
"51;1<<<* *1:<<2<,,1,51,=<<<1,<5,;1>>>3;;<<511,3,,1;;<= %,,<<5<<<",
"51:1<=5*X%==<<22,55,15,,1;<1,,15-11-13--5,,2<-1;,31-=*.*,-;:51<5",
"<<111<:*X&::1<<<,,212,1,11,,55155,11<11<,11,221,1,1<<* *:->5<11<",
"<56<<5<* &::11112,,62,1,<52:,5,56<<6<12<,26,22,,1,56,* =>>17<14<",
"5511<,=*X&>>222122222242662166622221272242442,21476=:% %<1131131",
"1771515* &><222122222243662226522662266142444224736>:* *<>173313",
"522256<* &;-37724444444444222444222244224244442,6666,* &<;<43733",
"22661:<*X&;11442;23442,242211124221122222142422216<,,% &<1555313",
"1222<=<*X&;<1221122232,222111122121222211121421266<,:* &;;<11333",
"112556>* &--121123,222322111111211112111113143;2<665:% *:-;13133",
"26<2<>:* *<<1121,2321331111111422111222<3142212;16<,=&.&<<533315",
"22115<<& *=,122,22323111211111342111221111434132666,,&.*;;<37313",
"44<111<*.*,,22211232111313111222112122111133422,<66<:%.&;:>17331",
"44<1<<=* %,,12114,31231131111112111122111143412166,,<%.&;<157313",
"2121<<<* %:<551,6161211141111112111111111114313166,,:%.*=<111113",
"21111<<=.*:=55116,61116121111122>51111121141113<666<=%.*<=>55111",
"<121<;;& %><5521616161,6111112225111311<11324111666,:*.%:<555531",
"22<2<;;&X*::525,1,6111<111<<11211111312211133111<<,==*.%::>5533>",
">51-->>&X*==56;;5-:51,5,;31-14<<>::62,2,=13-1<<16<=:==.*>>>5>53-",
"o@@oX@OoXoOoOOO@+o+oOOOo++@o@@o@OOO@@O@OOOOO#@@@#@OOoo.oo+++++++",
"XoooXooXooXooo+XX+oooooXooXXXXXXXOooXXXXXXOOXXXXOOXXooooooooXXXo",
"----=-:<-=--:=>--------=->---;;%.==<-,,---,-;=--=::===::=*:>->--",
"><;;11,,1--1,,<<->>-<<;;1;:<:<<%.=,,::<=-;<;<<-;<>>>--<,>:::>>;:",
"<1<;,1-<2,<1,:1<->1;<1;<1<:1:><%.==,:,6<;<1,11=:1>>1-;1::5>-11-1",
"2<,11,2<,<<-22,<1->1<:<<,1<,<<<*X=,<56::<::2>;1;>11-1>:2>:>1;>>-",
"21<1<<22,11,22<<1>>3<:11<11,<><#.=,,55<<1<,2111>><1<3<,25>11<13>",
"221<12661111211111212111121<<-># =<15511221552113221512122121211",
"221111221111222111212111111<5<:#.=;=5522252565111122<15211111111",
"2211122611112221112121112111<<:#.=::2251211222111216112221211261",
"21112<2611116221112152222211:->#.=,15211212122111216<12251112621",
"31312244311242122142221221555<=O.=->1122112121122224432411141411",
"2311122444444441444421212215<<5*.-151622616226662442414214414424",
"4441222444444443424422222255<::*X->52522222626664444244443132432",
"42112124111144412122422222565<>%.=>>2122116211124142424414313442",
"1211222243134444222222662222<55%X=<,225112613141142214442,222222",
"2222224231141441227222222222<<:% =<52522266244143434414422222222",
"221142424141423122262222222255<*X=<<2222224222212424134422222221",
"2222242244142343626722222222<<5$X=,,5262224241354221314422222222",
"221<11155>513131113713153414;=>$.-:556656165667333333556,11<7717",
"72121>735631731171<57<71<42<,>>#.=>5675571776<75177<35>67,171171",
"<-&:-*>;*=:=>>*-;&---&>-&-:***=@o$=*:>*=>*-:====--;*:-*:<-=<==>=",
"XXX ...Xo...X.X .XXXXX XX XXX.X..XXX....X XX.XXX.X...X......XX X",
"%%%%#%%#.@$%%%&&%*&&&&&$#%###&&&$$$$$$*$#@**##%%&&&#*@.#$*%***##",
"5<,::<<*.%<<<<1<<<1<<>>;>>>>><<<:>:>>5=>::<5:<<5<1<:<*.*=<=<<<->",
"6<:5<<>=.*<=<:1<:15,<1:>5::5>;4<=5>=55>>6=565:5<,5<===.*<==<5<=5",
"555<<<:*.=<:<:1<<<<11<<:>1>>:1,15>>55>55<<5<<<<<55<<=*.*5<<<<5<<",
",65,<6<=.*>=555<4,,442,,,42,24,34,,4,111,22,2,,,5<<6>&.*>=,6,66,",
"666<,,<*.*<<676544444242444,44144224443422224222655:;&.&<122666<",
"666<1,,% *=<155<,44,222,4,,44;,421,333,42,,44222665,>& &=,<166<<",
"66<6,6,=.*:=,5554,4242224414;44413441122,21122,42255>& &<,,26666",
"262,,,,=.&><11212,422111224,444;12122,24222112;,66<,>&.&,1662611",
"662,2,,=.%:>15112342131;,244;4441312222,2221122;121<;& $,,,61621",
"22,22,2=.&:-11511131131142,,444,12142222212111;1222,:#.&,=,61221",
"2622,,,% &:115511212111142444;441131121,11212221421-:#.$,1112222",
"22111,<&.&>>15112111111122131314214321111314131,42<::$.&,,<66611",
"22111<<=X&--<521113213111311114131111423133141114251>&.&=,,66112",
"2421<,,& %>111215211211142311414211322211141221141<=:# #<<<61222",
"4211<,,,.*::11211111113<221113221231;31113121111445>:&.%,<162121",
"422111<& &:=<51511113,1,121;11132,,2322,14434,154221:* *,,,21212",
"41121,,&X%:<112512112222321222122222222211116115111:=% %-,212<21",
"111,1,,=X&,<626,22222,22,42,26221,,2222,111122<5<5:=<* &,,11122,",
",26,,,1=X&<,56<14,,62,22,43,26,26,,2214,:11,22<55:::<&.&<,121221"
};
