<?xml version="1.0" encoding="UTF-8" standalone="no"?>
<!-- Created with Inkscape (http://www.inkscape.org/) -->
<svg xmlns:dc="http://purl.org/dc/elements/1.1/" xmlns:cc="http://creativecommons.org/ns#" xmlns:rdf="http://www.w3.org/1999/02/22-rdf-syntax-ns#" xmlns:svg="http://www.w3.org/2000/svg" xmlns="http://www.w3.org/2000/svg" xmlns:sodipodi="http://sodipodi.sourceforge.net/DTD/sodipodi-0.dtd" xmlns:inkscape="http://www.inkscape.org/namespaces/inkscape" width="696.85156" height="356.19891" id="svg2" version="1.1" inkscape:version="0.48.4 r9939" sodipodi:docname="pipe-fork.svg">
  <defs id="defs4">
    <marker inkscape:stockid="Arrow1Mend" orient="auto" refY="0" refX="0" id="Arrow1Mend" style="overflow:visible">
      <path id="path3834" d="M 0,0 5,-5 -12.5,0 5,5 0,0 z" style="fill-rule:evenodd;stroke:#000000;stroke-width:1pt" transform="matrix(-0.4,0,0,-0.4,-4,0)" inkscape:connector-curvature="0"/>
    </marker>
    <marker inkscape:stockid="Arrow1Mend" orient="auto" refY="0" refX="0" id="Arrow1Mend-5" style="overflow:visible">
      <path inkscape:connector-curvature="0" id="path3834-3" d="M 0,0 5,-5 -12.5,0 5,5 0,0 z" style="fill-rule:evenodd;stroke:#000000;stroke-width:1pt" transform="matrix(-0.4,0,0,-0.4,-4,0)"/>
    </marker>
    <marker inkscape:stockid="Arrow1Mend" orient="auto" refY="0" refX="0" id="Arrow1Mend-6" style="overflow:visible">
      <path inkscape:connector-curvature="0" id="path3834-4" d="M 0,0 5,-5 -12.5,0 5,5 0,0 z" style="fill-rule:evenodd;stroke:#000000;stroke-width:1pt" transform="matrix(-0.4,0,0,-0.4,-4,0)"/>
    </marker>
    <marker inkscape:stockid="Arrow1Mend" orient="auto" refY="0" refX="0" id="Arrow1Mend-1" style="overflow:visible">
      <path inkscape:connector-curvature="0" id="path3834-5" d="M 0,0 5,-5 -12.5,0 5,5 0,0 z" style="fill-rule:evenodd;stroke:#000000;stroke-width:1pt" transform="matrix(-0.4,0,0,-0.4,-4,0)"/>
    </marker>
    <marker inkscape:stockid="Arrow1Mend" orient="auto" refY="0" refX="0" id="Arrow1Mend-9" style="overflow:visible">
      <path inkscape:connector-curvature="0" id="path3834-0" d="M 0,0 5,-5 -12.5,0 5,5 0,0 z" style="fill-rule:evenodd;stroke:#000000;stroke-width:1pt" transform="matrix(-0.4,0,0,-0.4,-4,0)"/>
    </marker>
  </defs>
  <sodipodi:namedview id="base" pagecolor="#ffffff" bordercolor="#666666" borderopacity="1.0" inkscape:pageopacity="0.0" inkscape:pageshadow="2" inkscape:zoom="1" inkscape:cx="390.21257" inkscape:cy="101.71586" inkscape:document-units="px" inkscape:current-layer="layer1" showgrid="false" inkscape:window-width="1918" inkscape:window-height="1056" inkscape:window-x="0" inkscape:window-y="22" inkscape:window-maximized="0" fit-margin-top="10" fit-margin-left="10" fit-margin-right="10" fit-margin-bottom="10"/>
  <metadata id="metadata7">
    <rdf:RDF>
      <cc:Work rdf:about="">
        <dc:format>image/svg+xml</dc:format>
        <dc:type rdf:resource="http://purl.org/dc/dcmitype/StillImage"/>
        <dc:title/>
      </cc:Work>
    </rdf:RDF>
  </metadata>
  <g inkscape:label="Layer 1" inkscape:groupmode="layer" id="layer1" transform="translate(-4.359375,-38.236134)">
    <text xml:space="preserve" style="font-size:16px;font-style:normal;font-variant:normal;font-weight:normal;font-stretch:normal;text-align:start;line-height:125%;letter-spacing:0px;word-spacing:0px;text-anchor:start;fill:#000000;fill-opacity:1;stroke:none;font-family:DejaVu Sans;-inkscape-font-specification:DejaVu Sans" x="45.456863" y="60.392384" id="text2985" sodipodi:linespacing="125%"><tspan sodipodi:role="line" id="tspan2987" x="45.456863" y="60.392384">pipe()</tspan></text>
    <text xml:space="preserve" style="font-size:16px;font-style:normal;font-variant:normal;font-weight:normal;font-stretch:normal;text-align:start;line-height:125%;letter-spacing:0px;word-spacing:0px;text-anchor:start;fill:#000000;fill-opacity:1;stroke:none;font-family:DejaVu Sans;-inkscape-font-specification:DejaVu Sans" x="70.5" y="111.88136" id="text3026" sodipodi:linespacing="125%"><tspan sodipodi:role="line" id="tspan3028" x="70.5" y="111.88136">1</tspan></text>
    <text xml:space="preserve" style="font-size:16px;font-style:normal;font-variant:normal;font-weight:normal;font-stretch:normal;text-align:start;line-height:125%;letter-spacing:0px;word-spacing:0px;text-anchor:start;fill:#000000;fill-opacity:1;stroke:none;font-family:DejaVu Sans;-inkscape-font-specification:DejaVu Sans" x="624.5" y="111.87355" id="text3026-3" sodipodi:linespacing="125%"><tspan sodipodi:role="line" id="tspan3028-7" x="624.5" y="111.87355">0</tspan></text>
    <g id="g4706">
      <path sodipodi:nodetypes="ccscc" inkscape:connector-curvature="0" d="m 93.795324,88.171397 517.344936,0.0017 c 2.90068,0.0017 5.25118,8.004583 5.25118,17.876673 0,9.87209 -2.3505,17.875 -5.25118,17.8765 l -517.344937,10e-4" style="fill:none;stroke:#000000;stroke-width:1;stroke-linecap:butt;stroke-linejoin:miter;stroke-miterlimit:4;stroke-opacity:1;stroke-dashoffset:0" id="path2991-5"/>
      <path transform="translate(-3.6336365,-0.06243515)" d="m 102.5,106.11218 a 5.25,17.875 0 1 1 -10.5,0 5.25,17.875 0 1 1 10.5,0 z" sodipodi:ry="17.875" sodipodi:rx="5.25" sodipodi:cy="106.11218" sodipodi:cx="97.25" id="path2991" style="fill:#ffffff;stroke:#000000;stroke-width:1;stroke-linecap:butt;stroke-linejoin:miter;stroke-miterlimit:4;stroke-opacity:1;stroke-dasharray:none;stroke-dashoffset:0" sodipodi:type="arc"/>
      <path inkscape:connector-curvature="0" id="path3051" d="m 323.7539,105.36218 55,0" style="fill:none;stroke:#000000;stroke-width:3;stroke-linecap:butt;stroke-linejoin:miter;stroke-opacity:1;marker-end:url(#Arrow1Mend)"/>
    </g>
    <text xml:space="preserve" style="font-size:16px;font-style:normal;font-variant:normal;font-weight:normal;font-stretch:normal;text-align:start;line-height:125%;letter-spacing:0px;word-spacing:0px;text-anchor:start;fill:#000000;fill-opacity:1;stroke:none;font-family:DejaVu Sans;-inkscape-font-specification:DejaVu Sans" x="45.456863" y="221.39243" id="text2985-4" sodipodi:linespacing="125%"><tspan sodipodi:role="line" id="tspan2987-9" x="45.456863" y="221.39243">fork()</tspan></text>
    <text xml:space="preserve" style="font-size:16px;font-style:normal;font-variant:normal;font-weight:normal;font-stretch:normal;text-align:start;line-height:125%;letter-spacing:0px;word-spacing:0px;text-anchor:start;fill:#000000;fill-opacity:1;stroke:none;font-family:DejaVu Sans;-inkscape-font-specification:DejaVu Sans" x="80.6875" y="270.21732" id="text3026-6" sodipodi:linespacing="125%"><tspan sodipodi:role="line" id="tspan3028-4" x="80.6875" y="270.21732" style="text-align:end;text-anchor:end">parent 1</tspan></text>
    <text xml:space="preserve" style="font-size:16px;font-style:normal;font-variant:normal;font-weight:normal;font-stretch:normal;text-align:start;line-height:125%;letter-spacing:0px;word-spacing:0px;text-anchor:start;fill:#000000;fill-opacity:1;stroke:none;font-family:DejaVu Sans;-inkscape-font-specification:DejaVu Sans" x="624.5" y="270.32278" id="text3026-3-2" sodipodi:linespacing="125%"><tspan sodipodi:role="line" id="tspan3028-7-0" x="624.5" y="270.32278">parent 0</tspan></text>
    <text xml:space="preserve" style="font-size:16px;font-style:normal;font-variant:normal;font-weight:normal;font-stretch:normal;text-align:start;line-height:125%;letter-spacing:0px;word-spacing:0px;text-anchor:start;fill:#000000;fill-opacity:1;stroke:none;font-family:DejaVu Sans;-inkscape-font-specification:DejaVu Sans" x="80.6875" y="370.21732" id="text3026-6-1" sodipodi:linespacing="125%"><tspan sodipodi:role="line" id="tspan3028-4-3" x="80.6875" y="370.21732" style="text-align:end;text-anchor:end">child 1</tspan></text>
    <text xml:space="preserve" style="font-size:16px;font-style:normal;font-variant:normal;font-weight:normal;font-stretch:normal;text-align:start;line-height:125%;letter-spacing:0px;word-spacing:0px;text-anchor:start;fill:#000000;fill-opacity:1;stroke:none;font-family:DejaVu Sans;-inkscape-font-specification:DejaVu Sans" x="624.5" y="370.32278" id="text3026-3-2-7" sodipodi:linespacing="125%"><tspan sodipodi:role="line" id="tspan3028-7-0-7" x="624.5" y="370.32278">child 0</tspan></text>
    <g id="g4711">
      <path sodipodi:nodetypes="ccccccccccccscccccccsccccccccccccccccccc" inkscape:connector-curvature="0" d="m 93.794822,248.17077 128.618788,0.005 c 9.83344,0.002 17.83677,8.00541 17.83977,17.83389 l -0.005,14.30832 -0.006,-0.008 c 0,9.87209 8.00291,17.87489 17.7138,17.86789 l 194.29125,-5.4e-4 c 9.69311,0.008 17.69602,-7.99526 17.69602,-17.86735 l -0.006,0.008 -0.005,-14.30832 c 0.003,-9.82848 8.00633,-17.83189 17.83977,-17.83389 l 123.37979,-0.004 c 2.88893,0.003 5.23943,8.00573 5.23943,17.87782 0,9.87209 -2.3505,17.87502 -5.23923,17.87702 l -87.60413,0.004 c -9.86603,0.004 -17.86848,8.00733 -17.86548,17.85821 0.003,4.75216 -6e-4,9.53928 0.014,14.26458 -0.0146,4.7253 -0.011,9.51242 -0.014,14.26458 -0.003,9.85088 7.99945,17.85421 17.86548,17.85821 l 87.60838,10e-5 c 2.88448,-9e-4 5.23498,8.00169 5.23498,17.87378 0,9.87209 -2.3505,17.875 -5.23516,17.88077 l -123.38402,-7.4e-4 c -9.83344,-0.002 -17.83677,-8.00541 -17.83977,-17.83389 l 0.005,-14.30832 0.006,0.008 c 0,-9.87209 -8.00291,-17.87485 -17.69602,-17.86885 l -194.29125,-0.003 c -9.71089,-0.003 -17.7138,7.99972 -17.7138,17.87181 l 0.006,-0.008 0.005,14.30832 c -0.003,9.82848 -8.00633,17.83189 -17.83977,17.83389 l -128.61879,0.005 m -3.88e-4,-100.00774 92.843318,0.003 c 9.86603,0.004 17.86848,8.00733 17.86548,17.85821 -0.003,4.75216 6e-4,9.53928 -0.014,14.26458 0.0146,4.7253 0.0113,9.51242 0.014,14.26458 0.003,9.85088 -7.99945,17.85421 -17.86548,17.85821 l -92.84332,0.003" style="fill:none;stroke:#000000;stroke-width:1;stroke-linecap:butt;stroke-linejoin:miter;stroke-miterlimit:4;stroke-opacity:1;stroke-dashoffset:0" id="path2991-5-3"/>
      <path inkscape:connector-curvature="0" id="path3051-7-5" d="m 323.7539,315.36218 55,0" style="fill:none;stroke:#000000;stroke-width:3;stroke-linecap:butt;stroke-linejoin:miter;stroke-opacity:1;marker-end:url(#Arrow1Mend)"/>
      <path transform="translate(-3.633637,159.93756)" d="m 102.5,106.11218 a 5.25,17.875 0 1 1 -10.5,0 5.25,17.875 0 1 1 10.5,0 z" sodipodi:ry="17.875" sodipodi:rx="5.25" sodipodi:cy="106.11218" sodipodi:cx="97.25" id="path2991-7" style="fill:#ffffff;stroke:#000000;stroke-width:1;stroke-linecap:butt;stroke-linejoin:miter;stroke-miterlimit:4;stroke-opacity:1;stroke-dasharray:none;stroke-dashoffset:0" sodipodi:type="arc"/>
      <path transform="matrix(1,0,0,-1,-3.633637,472.16924)" d="m 102.5,106.11218 a 5.25,17.875 0 1 1 -10.5,0 5.25,17.875 0 1 1 10.5,0 z" sodipodi:ry="17.875" sodipodi:rx="5.25" sodipodi:cy="106.11218" sodipodi:cx="97.25" id="path2991-7-9" style="fill:#ffffff;stroke:#000000;stroke-width:1;stroke-linecap:butt;stroke-linejoin:miter;stroke-miterlimit:4;stroke-opacity:1;stroke-dasharray:none;stroke-dashoffset:0" sodipodi:type="arc"/>
    </g>
  </g>
</svg>